<svg width="80" height="101" viewBox="0 0 80 101" fill="none" xmlns="http://www.w3.org/2000/svg">
<path d="M42.7521 17.5383C38.1737 18.7642 34.8962 20.2055 32.4688 22.6352C30.0411 25.0654 28.6027 28.3453 27.3764 32.9218C26.1492 28.3443 24.7068 25.0644 22.2748 22.6344C19.8438 20.2053 16.5628 18.7642 11.9841 17.5383C16.5628 16.3125 19.8438 14.8714 22.2748 12.4423C24.7068 10.0122 26.1492 6.73236 27.3764 2.15483C28.6027 6.73139 30.0411 10.0113 32.4688 12.4414C34.8962 14.8712 38.1737 16.3124 42.7521 17.5383Z" stroke="#26103D" stroke-width="2.63097"/>
<path d="M67.324 58.9897C69.6017 61.2696 72.5974 62.6864 76.6151 63.8541C72.5974 65.0219 69.6017 66.4387 67.324 68.7186C65.046 70.9989 63.6318 73.9969 62.4642 78.0137C61.2953 73.9958 59.8772 70.9978 57.5952 68.7176C55.3142 66.4384 52.3155 65.0218 48.297 63.8541C52.3155 62.6865 55.3142 61.2699 57.5952 58.9907C59.8772 56.7105 61.2953 53.7124 62.4642 49.6946C63.6318 53.7114 65.046 56.7094 67.324 58.9897Z" stroke="#26103D" stroke-width="3.28871"/>
<path d="M15.94 90.9812C14.3096 91.5607 12.9957 92.2853 11.9395 93.3428C10.8836 94.4 10.1606 95.7149 9.58189 97.3451C9.00214 95.7143 8.27728 94.3992 7.21946 93.3419C6.16196 92.2849 4.84682 91.5606 3.21586 90.9812C4.84682 90.4019 6.16196 89.6775 7.21946 88.6205C8.27728 87.5632 9.00214 86.2482 9.58189 84.6173C10.1606 86.2475 10.8836 87.5624 11.9395 88.6197C12.9957 89.6772 14.3096 90.4017 15.94 90.9812Z" stroke="#26103D" stroke-width="2.63097"/>
</svg>
