<svg width="294" height="139" viewBox="0 0 294 139" fill="none" xmlns="http://www.w3.org/2000/svg">
<path d="M14.874 8.53028C14.8783 9.02979 14.9375 10.1929 15.0515 12.0196C15.2121 15.2583 15.3041 17.2307 15.3274 17.9368L15.6632 20.0242L15.9112 22.1073C16.6204 20.8506 16.9655 20.1189 16.9465 19.9124C16.9567 19.7073 17.244 18.9581 17.8081 17.6647C18.5744 16.4402 19.0844 15.3498 19.3379 14.3933C19.376 14.2189 19.5585 13.8022 19.8852 13.1431C19.8018 13.0508 19.889 12.7762 20.1468 12.3192C20.4062 11.8329 20.6084 11.3144 20.7535 10.7636C20.9279 10.2143 21.0159 9.92503 21.0173 9.89574C21.0481 9.86791 21.0789 9.84008 21.1096 9.81226C21.2019 9.72877 21.3323 9.47098 21.5009 9.03888C21.6093 8.63314 21.6694 8.31308 21.6812 8.07871L21.7495 6.71642C21.7539 6.62853 21.8426 6.32459 22.0155 5.8046L22.0223 4.79167C22.0575 4.08855 22.44 3.19726 23.1697 2.11779L24.086 1.41481C24.0992 1.15114 24.3271 1.00103 24.7694 0.96448C25.2411 0.929396 25.6498 0.979264 25.9955 1.11408C26.3412 1.2489 26.5726 1.31925 26.6898 1.32513C26.8011 1.44819 27.2185 1.61598 27.9421 1.8285C28.2878 1.96331 28.4965 2.19406 28.5683 2.52073C28.6693 2.84887 28.7058 3.29125 28.6779 3.84789L28.1984 7.26015C28.1881 7.46523 28.0289 8.8817 27.7209 11.5096L27.6943 12.918C27.6621 12.9751 27.6225 13.4724 27.5754 14.4099L27.4608 16.6951C27.4388 17.1345 27.4248 17.4128 27.4189 17.53L27.467 19.2065C27.3498 19.2006 27.4602 20.5131 27.7982 23.144C27.7776 23.5542 27.8793 24.4551 28.1032 25.8467C28.3579 27.2105 28.3892 28.3428 28.1971 29.2437C28.1736 29.7124 27.7275 30.1159 26.8588 30.4542C26.2202 30.3047 25.8342 30.0944 25.701 29.8234C25.4446 29.6637 25.2894 29.5384 25.2352 29.4476L24.9057 28.9905C24.4561 28.5861 24.098 28.1129 23.8315 27.5709C23.6367 27.3555 23.5049 27.0552 23.4361 26.67C23.1637 26.2451 23.0136 25.7236 22.9859 25.1054C22.9582 24.4873 22.8623 24.0566 22.6983 23.8134C22.565 23.5424 22.4603 23.2875 22.3842 23.0487C22.0781 22.7103 21.9017 22.1287 21.8549 21.304C21.8096 20.45 21.7585 19.7132 21.7014 19.0936C21.7191 18.742 21.7469 18.4791 21.7851 18.3048C21.7089 18.066 21.6592 17.8873 21.6357 17.7686C21.6416 17.6514 21.6336 17.5188 21.6116 17.3709L21.394 18.197C21.2987 18.3391 21.0796 18.9008 20.7367 19.8822L19.6706 22.6923L18.7408 25.4212C18.5899 25.5017 18.3964 25.8445 18.1605 26.4494C17.863 27.11 17.6836 27.4681 17.622 27.5238C17.5898 27.5809 17.5414 27.6666 17.477 27.7808C17.2191 28.2378 16.9363 28.6055 16.6286 28.8837C15.8009 29.5765 14.9703 29.7404 14.1369 29.3755C13.3313 29.0414 12.7601 28.4254 12.4233 27.5274C12.2432 27.019 12.0983 26.6887 11.9884 26.5363C11.9709 26.3005 11.8303 25.8823 11.5667 25.2816C11.3896 24.7147 11.2637 24.0035 11.1891 23.148C11.0559 22.877 10.9761 22.4178 10.9499 21.7703C10.8166 21.4993 10.7332 21.1133 10.6995 20.6123C10.6659 20.1114 10.6023 19.6236 10.5086 19.1489C10.3871 18.6435 10.3147 18.0378 10.2914 17.3318C10.2592 16.8015 10.088 15.8237 9.77767 14.3984C9.69419 14.3061 9.5917 14.0072 9.47019 13.5018C9.38809 13.9676 9.34557 14.2298 9.34263 14.2884C9.34116 14.3177 9.18797 15.0296 8.88307 16.4241C8.93873 16.4856 8.90204 16.9243 8.773 17.7402C8.5693 18.288 8.43738 18.8688 8.37722 19.4826C8.0635 21.0528 7.90146 22.2342 7.89108 23.0267C7.96574 23.2948 7.94958 23.617 7.84259 23.9935C7.76636 24.3421 7.6894 24.7054 7.61171 25.0833C7.56478 25.4334 7.49002 25.7527 7.38744 26.0412L7.37201 26.3489C7.23857 27.2526 7.1982 27.7646 7.25092 27.8847C7.23476 28.207 7.08308 28.5959 6.79591 29.0514C6.53802 29.5084 6.14835 29.6651 5.62689 29.5214C4.70116 29.24 4.16799 29.0371 4.02739 28.9125C3.73157 28.369 3.59395 27.8922 3.61452 27.482L3.72032 25.3727L3.84789 24.5861C3.823 24.4967 3.85454 24.1606 3.94252 23.5776C3.9147 23.5468 3.9118 23.3117 3.93385 22.8723C3.95736 22.4035 3.93104 22.0498 3.85491 21.811L3.87695 21.3715C3.86832 20.3725 3.88232 19.8005 3.91897 19.6555C3.98638 19.4826 4.00474 19.1164 3.97407 18.5569C4.09126 18.5627 4.17552 18.3467 4.22686 17.9087C4.27966 17.4414 4.34859 16.9456 4.43363 16.4212L4.74786 16.3048C4.69073 16.2726 4.69666 15.8617 4.76563 15.0721C4.80521 14.8685 4.9049 14.3449 5.0647 13.5011C5.2245 12.6574 5.29709 12.0883 5.28249 11.7939C5.29866 11.4716 5.48477 10.9817 5.84082 10.324C6.54862 8.50921 6.92966 7.35351 6.98394 6.85694C7.06751 6.36184 7.17744 5.9268 7.31373 5.55182C7.47941 4.59092 7.79813 3.79922 8.26991 3.17674C8.50731 2.5425 8.90727 2.18075 9.46978 2.09148L10.017 1.72243L10.0609 1.72463C10.6381 1.3424 11.6371 1.33377 13.058 1.69873C14.2605 2.31708 14.8998 3.03935 14.9758 3.86553C14.8381 4.2698 14.8107 5.69288 14.8939 8.13478L14.874 8.53028Z" fill="#6F23E7"/>
<path d="M41.5234 17.2242C41.5264 16.5782 41.4042 16.0874 41.1567 15.7519C40.9106 15.3872 40.4375 15.1578 39.7373 15.064C39.5249 15.2002 39.2216 15.6843 38.8275 16.5162C38.4641 17.3204 38.2149 18.189 38.08 19.122C37.7165 20.5136 37.4995 21.9125 37.4289 23.3187C37.3862 24.7557 37.5677 25.8221 37.9734 26.518C38.0261 26.6381 38.0825 26.685 38.1425 26.6586C38.289 26.666 38.5381 26.3848 38.8897 25.815C40.5835 23.0804 41.4614 20.2168 41.5234 17.2242ZM42.4647 25.6859L41.7195 27.3667C41.7166 27.4253 41.2602 28.0339 40.3504 29.1924C40.0588 29.7358 39.5453 30.0185 38.81 30.0403C38.1039 30.0637 37.4191 29.9559 36.7556 29.717C35.8636 29.3492 35.1942 28.9338 34.7475 28.4708C34.3008 28.0079 33.8688 27.252 33.4515 26.2031C33.0649 25.1264 32.8739 24.2504 32.8784 23.5751C32.7804 22.6009 32.738 21.982 32.7512 21.7184L32.8041 20.6637C32.857 19.609 32.9318 18.996 33.0285 18.8246C33.0637 18.7089 33.1524 18.405 33.2946 17.9128C33.5027 16.6897 33.9131 15.5355 34.5256 14.4501C35.7168 12.3659 36.8852 11.3231 38.0307 11.3218L38.2504 11.3328C38.3075 11.365 38.3947 11.3841 38.5119 11.39L39.0831 11.4186C40.1041 11.5579 40.7296 11.6774 40.9595 11.7771C41.3931 11.9163 41.771 11.994 42.0933 12.0102L43.2248 12.2872C43.5779 12.2755 44.0283 12.3715 44.5761 12.5752C45.1532 12.7804 45.4542 12.9277 45.4791 13.017C45.5333 13.1079 45.605 13.4345 45.6943 13.997C45.7835 14.5596 45.8362 14.9734 45.8523 15.2385C45.8991 15.4758 45.9306 15.727 45.9466 15.9922C46.0737 18.1426 46.3547 20.1539 46.7894 22.026C46.8143 22.1153 46.837 22.2486 46.8575 22.4259C46.878 22.6031 46.9629 22.9598 47.1122 23.496C47.263 24.0029 47.3735 24.4343 47.4438 24.7902C47.5141 25.1462 47.6517 25.623 47.8567 26.2207C48.0104 26.669 48.2484 27.1949 48.5705 27.7985C49.1695 28.739 48.7973 29.4252 47.454 29.8571C47.2753 29.9069 46.9662 29.9207 46.5267 29.8987C46.4389 29.8943 46.1679 29.7339 45.7138 29.4174C45.4209 29.4027 45.1506 29.2276 44.9031 28.8921L44.556 28.7866C44.3612 28.5712 44.1906 28.4599 44.0441 28.4525C43.9884 28.391 43.5206 27.178 42.6406 24.8137C42.5365 25.1315 42.4779 25.4223 42.4647 25.6859Z" fill="#6F23E7"/>
<path d="M52.9876 14.0985L52.8844 13.5206C52.8859 13.4913 52.8917 13.3741 52.902 13.1691C52.9431 12.9362 52.9424 12.6571 52.8999 12.3319C52.9367 11.5995 52.9492 11.0568 52.9376 10.7037C52.8555 10.5822 52.8403 10.0087 52.8917 8.98329C52.8552 7.9535 52.9191 6.9728 53.0833 6.04119C53.098 5.74823 53.2981 4.97995 53.6835 3.73637C54.0381 3.10801 54.2176 2.74988 54.222 2.66199C54.3832 2.37637 54.6938 2.03951 55.1538 1.6514L56.0547 1.25604C56.503 1.1023 57.2625 1.18445 58.3333 1.50248L59.289 1.7707C59.264 2.26874 59.1739 2.89567 59.0185 3.65151C58.948 4.47034 58.7728 5.62167 58.4928 7.10551C57.9327 10.0732 57.5653 13.3002 57.3904 16.7864L57.531 17.4984C58.4129 16.8965 59.2077 16.2755 59.9153 15.6355C60.6522 14.9969 61.1261 14.6242 61.3371 14.5173C61.3678 14.4895 61.7187 14.2281 62.3897 13.733C63.1822 13.156 63.6261 12.7965 63.7214 12.6544C64.3148 11.9499 65.0165 11.4271 65.8266 11.0859C66.3539 11.1123 66.8161 11.2677 67.213 11.5519C67.6612 11.9856 67.8779 12.3489 67.8632 12.6419C67.8485 12.9348 67.7928 13.167 67.6961 13.3384C67.6302 13.4819 67.5034 13.6665 67.3159 13.892C67.1284 14.1176 66.954 14.3732 66.7928 14.6588C66.3782 15.3135 65.5402 16.2113 64.2788 17.3522C63.4144 18.19 62.7529 18.7882 62.2943 19.1471C62.016 19.4268 61.3472 19.8779 60.288 20.5003C60.3144 20.5603 60.3671 20.6804 60.4462 20.8606C60.556 21.013 60.6637 21.2093 60.7691 21.4495C61.932 22.8589 62.9411 23.82 63.7965 24.3328C64.1304 24.702 64.4856 24.9401 64.862 25.0471C64.8606 25.0764 65.0158 25.2017 65.3278 25.4229L65.587 25.524C66.2154 25.8786 66.6321 26.061 66.8372 26.0713C67.7659 26.2941 68.2184 26.6399 68.1949 27.1086C68.1729 27.5481 67.9216 27.8732 67.4411 28.0841C67.4382 28.1427 66.984 28.4136 66.0787 28.8969C65.963 28.8617 65.7096 28.9371 65.3184 29.1231C64.2168 29.4203 62.9791 29.2113 61.6052 28.4963C60.8318 28.105 60.2005 27.5153 59.7114 26.7272L58.7403 25.8855C58.7154 25.7961 58.2453 25.2145 57.33 24.1406L57.4374 25.5118L57.591 26.8411C57.544 27.7786 57.5651 28.5286 57.6544 29.0911C57.7437 29.6536 57.6066 30.0433 57.2433 30.26C56.9093 30.4782 56.3021 30.5799 55.4217 30.5651C54.5707 30.5518 53.9364 30.3144 53.519 29.8529C53.4063 29.7591 53.3074 29.3871 53.2226 28.7367C53.1685 28.0584 53.1041 27.5853 53.0294 27.3172C52.5331 25.5007 52.3759 23.9509 52.5578 22.6677L52.5799 21.3472C52.6151 21.2315 52.6467 20.8953 52.6746 20.3387C53.0484 18.7421 53.1527 16.662 52.9876 14.0985Z" fill="#6F23E7"/>
<path d="M78.4674 15.5527C78.4162 15.4033 78.214 15.3344 77.861 15.3461C77.5373 15.3592 77.2794 15.5225 77.0875 15.8359C75.7908 17.68 75.0442 19.6838 74.8475 21.8473C75.8319 22.1316 76.7035 21.7348 77.4625 20.6568C78.5146 17.8313 78.8496 16.1299 78.4674 15.5527ZM74.1647 32.8269L73.7296 32.7169L73.1453 32.0708C72.9695 32.062 72.8413 31.9822 72.7608 31.8313C72.4576 31.4343 71.9099 30.6432 71.1176 29.458L70.5797 27.008C70.6032 26.5392 70.5359 26.1247 70.3777 25.7643C70.1509 24.4313 70.0126 23.6754 69.9628 23.4967C69.9145 23.2886 69.8977 22.7445 69.9125 21.8641C69.9566 20.9852 70.0329 20.3429 70.1413 19.9371C70.2571 19.3849 70.8682 18.0352 71.9745 15.8879C72.2514 15.6374 72.4301 15.294 72.5107 14.8575L73.2646 13.882C73.9473 13.1526 74.6637 12.6305 75.4137 12.3157C75.4167 12.2571 75.922 12.1356 76.9299 11.9512C77.1364 11.9322 77.6015 12.0289 78.3251 12.2414C80.0623 12.7397 81.1352 13.3075 81.5438 13.9448L81.6646 14.1711C82.1816 14.9901 82.4429 16.222 82.4485 17.867C82.3238 18.595 82.2197 19.2066 82.1362 19.7017C82.0526 20.1968 81.6848 21.0888 81.0327 22.3778C80.5521 23.176 80.0943 23.8139 79.6591 24.2914C78.9911 24.7278 78.5399 24.9401 78.3055 24.9284C78.1854 24.9811 77.9349 24.9979 77.5541 24.9788L76.5433 24.9281C76.4569 24.8944 76.2672 24.8702 75.9743 24.8555C75.6813 24.8408 75.2602 24.7463 74.7109 24.5719C74.6785 25.2164 74.808 26.148 75.0994 27.3668C75.4214 28.5578 75.693 29.291 75.9142 29.5664C76.5059 30.066 76.9739 30.3979 77.3181 30.562C77.6623 30.7261 78.1296 30.7789 78.7199 30.7204C79.3117 30.6326 79.7468 30.4488 80.0252 30.1691L81.2383 28.8202C82.0206 27.8608 82.7721 27.8104 83.4927 28.6689C83.8251 29.0674 83.9379 29.4549 83.8309 29.8313C83.7546 30.1799 83.4257 30.883 82.844 31.9405C82.3693 32.6216 81.8711 33.184 81.3496 33.6278C80.4179 34.051 79.8641 34.2582 79.6883 34.2493C79.4232 34.2654 79.0153 34.2009 78.4645 34.0558C78.1642 34.1876 77.6669 34.148 76.9726 33.9369C76.9755 33.8783 76.8898 33.83 76.7155 33.7919C76.569 33.7845 76.3662 33.7303 76.1069 33.6292L76.197 33.5896C76.1384 33.5867 75.9626 33.5779 75.6697 33.5632L74.4723 32.8423L74.1647 32.8269Z" fill="#6F23E7"/>
<path d="M86.8109 19.5837C86.7992 19.2307 86.8477 18.5576 86.9562 17.5645L87.3388 16.0858L88.3125 14.2402L89.0597 13.3966C89.0714 13.1622 89.8493 12.8782 91.3933 12.5444L91.4372 12.5466C91.761 12.5335 92.2575 12.5878 92.9269 12.7095C93.6257 12.8326 94.2848 13.1594 94.9043 13.6898C95.5253 14.1908 95.9449 14.6084 96.1632 14.9424C96.7167 16.2037 96.923 17.3595 96.7822 18.4098C96.7675 18.7027 96.6034 19.0469 96.2899 19.4424C96.2577 19.4995 96.0335 19.5764 95.6175 19.673C95.2015 19.7696 94.8638 19.7674 94.6046 19.6662C94.3468 19.5358 94.048 19.3446 93.7082 19.0926C93.3684 18.8406 93.2256 18.4663 93.2799 17.9698C93.0309 17.6636 92.9914 17.2798 93.1614 16.8184C93.2376 16.4698 93.2069 16.2039 93.0693 16.0208L92.5529 15.7746C92.3742 15.8244 92.1852 16.0792 91.9859 16.5391C91.8159 17.0005 91.714 17.5681 91.6802 18.242C91.6185 19.4724 91.8703 20.6011 92.4356 21.6281C92.6245 21.9606 92.9569 22.3591 93.4329 22.8235L94.1754 23.83L95.2651 24.942L96.0428 26.1264C96.2375 26.3418 96.4931 26.8098 96.8094 27.5306C97.1564 28.2235 97.316 28.8483 97.2881 29.4049C97.2616 29.9322 97.0667 30.598 96.7033 31.4021L96.2792 31.9536C96.2762 32.0122 96.1055 32.1945 95.7671 32.5006C94.8441 33.3354 93.8648 33.8296 92.8291 33.9833L92.5215 33.9679C91.5782 34.038 90.6561 33.9771 89.7552 33.785L88.4106 33.3652C88.2641 33.3578 88.1059 33.2911 87.936 33.1651C87.7646 33.0684 87.6072 32.9871 87.4636 32.9212C86.8118 32.4479 86.4193 32.0758 86.2861 31.8048C86.144 31.7095 86.062 31.2943 86.0402 30.5589C85.8571 30.1092 85.9312 29.5108 86.2624 28.7638C86.2844 28.3243 86.3452 27.9896 86.4449 27.7597C87.0339 27.1431 87.759 27.0326 88.6202 27.4282C88.9073 27.5601 89.042 27.8018 89.0244 28.1534C89.02 28.2413 89.0485 28.5511 89.11 29.0828C89.2022 29.5867 89.3544 30.0643 89.5668 30.5155C89.7791 30.9667 90.0903 31.2026 90.5005 31.2232C90.9106 31.2437 91.3435 31.1039 91.7991 30.8037C92.3134 29.919 92.5728 29.4327 92.5772 29.3448L92.6959 28.734C92.7766 28.2975 92.6675 27.8368 92.3688 27.3519C92.2985 26.9959 92.1111 26.6341 91.8064 26.2664L91.1957 25.2665L90.5674 24.6182C90.4517 24.5831 90.0973 24.3303 89.5041 23.86C89.4792 23.7706 89.3283 23.5575 89.0515 23.2205C88.7747 22.8836 88.5163 22.4741 88.2761 21.9922C88.0374 21.4809 87.7225 21.0245 87.3315 20.6231C87.3125 20.4166 87.139 20.0701 86.8109 19.5837Z" fill="#6F23E7"/>
<path d="M114.598 25.2067C114.402 25.6081 114.298 25.9113 114.288 26.1164C114.278 26.3214 114.204 26.6261 114.066 27.0304C113.905 27.316 113.911 27.7862 114.083 28.441C114.057 28.9684 114.087 29.5426 114.173 30.1637C114.257 30.8434 114.407 31.3502 114.626 31.6843L115.195 31.7569C115.139 31.6953 115.216 31.6258 115.425 31.5481C115.753 31.4471 115.949 31.3541 116.012 31.2692C116.106 31.1564 116.336 30.9624 116.702 30.687C117.098 30.4132 117.391 30.1195 117.583 29.8061C117.749 29.4326 118.034 29.021 118.438 28.5713C119.051 27.486 119.653 25.7246 120.245 23.2872C120.512 22.6545 120.653 22.1769 120.67 21.8547C120.716 21.5046 120.662 21.1201 120.507 20.7011L119.83 20.1385C119.274 20.1106 118.78 20.2914 118.349 20.681L117.481 21.2983C117.209 21.4608 117.024 21.6278 116.928 21.7992C116.504 22.0423 116.036 22.5915 115.523 23.4469C115.522 23.4762 115.459 23.5611 115.334 23.7017C115.239 23.8438 115.123 24.117 114.985 24.5213C114.766 24.7746 114.638 25.0031 114.598 25.2067ZM111.516 17.2544C111.549 16.6099 111.635 16.0562 111.776 15.5933C111.917 15.1304 112.006 14.5182 112.044 13.7564C112.083 12.9947 112.174 12.0448 112.319 10.9066L112.355 10.2035C112.33 10.1142 112.372 9.85197 112.482 9.41693C112.438 8.53363 112.485 7.90449 112.621 7.52951L112.643 7.09006C112.611 6.55979 112.689 6.16722 112.878 5.91237C113.22 5.54768 113.705 5.24893 114.333 5.01612C114.991 4.78478 115.511 4.66401 115.893 4.65382L116.113 4.66484C116.227 4.72931 116.327 4.77839 116.414 4.8121C116.531 4.81798 116.776 4.91836 117.148 5.11324C117.488 5.36524 117.616 5.7388 117.532 6.2339C117.553 6.41115 117.558 6.60231 117.547 6.80738C117.537 7.01246 117.287 8.48312 116.797 11.2194C116.309 13.9263 115.997 15.761 115.861 16.7233L115.724 18.5668C115.841 18.5727 115.947 18.5046 116.043 18.3625C116.078 18.2468 116.216 18.1362 116.456 18.0308C116.52 17.9165 116.627 17.8338 116.777 17.7826C116.957 17.7035 117.138 17.5951 117.322 17.4574C118.18 16.7369 119.342 16.4133 120.807 16.4868C121.275 16.5103 121.666 16.6327 121.978 16.8539L122.619 17.2385L124.043 17.8386C124.497 18.1551 124.749 18.4027 124.799 18.5814L125.152 20.3173C125.195 20.6425 125.193 21.2592 125.147 22.1674C125.103 23.0463 124.982 23.7157 124.782 24.1756C124.768 24.4686 124.659 24.8743 124.457 25.3928C124.442 25.6858 124.307 26.3252 124.052 27.311C123.797 28.2968 123.443 29.2042 122.991 30.0332C122.837 30.1724 122.676 30.4433 122.509 30.8461C122.373 31.2211 121.997 31.6869 121.382 32.2434C121.118 32.2302 120.858 32.4521 120.6 32.9091C120.292 33.1873 119.718 33.4963 118.879 33.836C117.742 34.2489 117.042 34.4488 116.778 34.4356C116.515 34.4223 116.25 34.4238 115.985 34.4398C115.748 34.4867 115.424 34.4998 115.014 34.4792C114.633 34.4601 114.294 34.4872 113.997 34.5604C113.698 34.6629 113.218 34.5654 112.557 34.2679C112.474 34.1756 112.058 33.9785 111.31 33.6766C110.59 33.3762 110.215 32.9609 110.183 32.4306C109.961 32.1552 109.846 31.8117 109.838 31.4001C109.83 30.9591 109.803 30.62 109.757 30.3827C109.739 30.1469 109.746 29.7067 109.779 29.0622C109.773 28.592 109.909 27.3505 110.186 25.3379C110.334 24.1411 110.572 22.6258 110.898 20.7919C111.008 20.3568 111.214 19.1777 111.516 17.2544Z" fill="#6F23E7"/>
<path d="M137.884 21.793L137.685 21.3864C137.333 21.3688 136.638 22.0535 135.599 23.4405C134.379 24.9359 133.496 26.4336 132.951 27.9335C132.583 28.8255 132.355 29.5631 132.267 30.146C132.224 30.9956 132.372 31.5611 132.711 31.8424C132.857 31.8497 133.023 31.7553 133.209 31.559C133.425 31.3642 133.549 31.2236 133.583 31.1372C133.794 31.0303 134.074 30.7066 134.425 30.1662C134.833 29.6286 135.053 29.3459 135.084 29.3181L135.521 28.503L136.332 27.2661C136.274 27.2631 136.379 26.9306 136.647 26.2686C137.029 25.671 137.243 25.2118 137.289 24.891L137.884 21.793ZM128.079 31.9625C128.054 30.6984 128.117 29.7323 128.268 29.0644C129.065 26.6373 129.687 24.7887 130.132 23.5188C130.134 23.4895 130.255 23.1284 130.495 22.4356C130.869 21.4264 131.195 20.7673 131.475 20.4582C131.48 20.3703 131.609 20.1418 131.862 19.7727C131.875 19.5091 132.22 19.0711 132.897 18.4589L133.407 17.9558C133.958 17.5136 134.717 17.3167 135.684 17.3651C136.038 17.3242 136.447 17.3594 136.912 17.4708C137.742 17.8943 138.68 18.514 139.726 19.3301L140.152 19.6158C140.384 19.6862 140.6 19.7704 140.801 19.8686C140.918 19.8745 141.164 19.9456 141.539 20.0819L142.088 20.55C142.343 20.739 142.491 20.9961 142.534 21.3213C142.349 21.4882 142.233 22.0551 142.184 23.0219C142.004 24.2758 142.018 25.7596 142.225 27.4735C142.263 29.0614 142.458 30.7453 142.809 32.5251C142.802 32.6716 142.884 33.0722 143.057 33.7271C143.259 34.3833 143.341 34.7986 143.303 34.9729C143.266 35.7054 142.559 36.037 141.183 35.968C139.839 35.8125 138.931 35.1795 138.458 34.0691C138.435 33.9505 138.344 33.7109 138.186 33.3506C137.852 32.9814 137.676 32.6789 137.659 32.443L137.602 31.8234C137.489 31.7296 137.422 31.6088 137.4 31.4608C137.023 31.9412 136.558 32.4319 136.004 32.9327L135.008 34.3366L134.639 34.6706C134.604 34.7863 134.29 34.9027 133.697 35.0198C133.102 35.1662 132.676 35.1742 132.418 35.0438C132.271 35.0364 132.068 34.9968 131.807 34.925L129.913 34.037C129.48 33.8978 129.168 33.6765 128.977 33.3733C128.608 33.1198 128.424 32.9784 128.426 32.9491C128.158 32.4364 128.042 32.1075 128.079 31.9625Z" fill="#6F23E7"/>
<path d="M156.344 24.437L156.289 23.7734C156.207 23.6518 156.156 23.5024 156.135 23.3251C156.146 23.1201 156.117 22.8102 156.05 22.3957C156.076 21.8683 155.968 21.393 155.725 20.9696C155.649 20.7308 155.301 20.64 154.681 20.697C154.25 21.0866 153.709 22.2195 153.057 24.0959C153.055 24.1252 153.006 24.2402 152.907 24.4408C152.777 24.6986 152.638 25.1322 152.49 25.7415C152.343 26.3216 152.253 26.6548 152.219 26.7412C152.152 26.9141 152.114 27.0738 152.107 27.2202C152.043 27.3345 152.004 27.5234 151.991 27.7871L151.773 28.6132C151.647 28.7831 151.607 29.0014 151.652 29.268L151.621 29.8832C151.646 29.9726 151.619 30.2209 151.54 30.6281L151.509 31.2433L151.522 32.7418C151.504 33.0934 151.768 33.6794 152.315 34.4998C152.546 34.5701 152.693 34.5628 152.756 34.4779C153.372 33.9213 153.724 33.3369 153.814 32.7246L153.974 32.16C154.128 32.0208 154.267 31.5872 154.392 30.8592L154.649 30.1232C154.662 29.8595 154.735 29.5842 154.867 29.2971C154.998 29.01 155.083 28.7939 155.119 28.6489C155.131 28.4145 155.351 27.8382 155.779 26.9198C155.754 26.8304 155.744 26.7418 155.748 26.6539L155.764 26.3463C156.149 25.1027 156.342 24.4663 156.344 24.437ZM162.637 10.5227C162.585 11.5481 162.495 12.175 162.366 12.4035L161.915 15.2445L161.84 16.7386C161.786 17.2352 161.734 17.9815 161.684 18.9776C161.634 19.9737 161.607 20.8094 161.602 21.4847C161.629 22.1321 161.572 22.6727 161.433 23.1062C161.489 23.1678 161.513 23.2718 161.505 23.4183L161.532 23.772L161.437 24.7805L161.344 26.6262C161.358 26.9499 161.344 27.5073 161.305 28.2983C161.329 28.9751 161.332 29.5185 161.311 29.9287C161.29 30.3388 161.314 30.7512 161.381 31.1658L161.352 31.737L161.438 33.5476L161.363 35.0417C161.411 35.2497 161.43 35.4563 161.42 35.6613C161.411 35.8371 161.454 36.1477 161.549 36.593C161.672 37.0691 161.71 37.4968 161.661 37.8762C160.793 38.8019 159.741 38.9841 158.506 38.4228C158.244 38.3803 157.973 38.2199 157.693 37.9415C157.443 37.6646 157.295 37.3929 157.249 37.1263L157.249 36.2452C157.104 36.2085 157.029 35.9551 157.023 35.4849C156.915 35.3032 156.878 35.1545 156.914 35.0388C157.009 34.8967 156.948 34.644 156.731 34.2807L156.206 35.0914C156.048 35.3185 155.879 35.4569 155.701 35.5066L155.498 36.0252C155.066 36.444 154.74 36.7948 154.52 37.0775L153.967 37.5784C153.256 37.6896 152.292 37.5825 151.075 37.2571C150.782 37.2424 150.549 37.2014 150.376 37.134L150.069 37.1185C150.007 37.1742 149.692 37.0262 149.122 36.6746C148.634 36.4445 148.38 36.2409 148.359 36.0636L148.621 36.1208C148.22 35.9244 148.087 35.6388 148.223 35.2638C147.879 35.0997 147.676 34.7664 147.613 34.2639L147.292 32.75C147.253 32.3662 147.288 31.9568 147.398 31.5217C147.345 31.4016 147.438 31.0098 147.677 30.3462L147.565 29.9441L147.517 29.1487C147.435 29.0271 147.463 28.7642 147.6 28.3599L147.359 27.9072C147.418 26.7354 147.497 26.0198 147.599 25.7606L147.671 25.1915C147.536 24.9498 147.605 24.4539 147.878 23.704L148.595 21.7134C148.598 21.6548 148.655 21.3933 148.766 20.929C148.949 20.2039 149.149 19.744 149.364 19.5492L150.221 18.2705C150.375 18.1314 150.547 17.9197 150.738 17.6356C151.057 17.1229 151.685 16.8901 152.623 16.9372C153.597 16.8392 155.144 17.0342 157.263 17.5224L157.341 15.9843L157.301 14.132C157.345 13.2531 157.356 12.446 157.335 11.7106C157.342 10.9767 157.386 10.3915 157.467 9.95504C157.498 9.92721 157.674 9.33398 157.997 8.17534C158.319 7.01671 158.803 6.15985 159.447 5.60478C159.658 5.49788 160.028 5.44301 160.557 5.44016C161.115 5.43878 161.45 5.48498 161.563 5.57874C161.676 5.67251 161.833 5.75383 162.035 5.82271C162.844 6.09823 163.217 6.86586 163.154 8.12561L162.637 10.5227Z" fill="#6F23E7"/>
<path d="M175.117 23.9247C175.12 23.2788 174.998 22.788 174.75 22.4525C174.504 22.0877 174.031 21.8584 173.331 21.7646C173.119 21.9008 172.815 22.3848 172.421 23.2168C172.058 24.021 171.809 24.8896 171.674 25.8226C171.31 27.2142 171.093 28.6131 171.023 30.0193C170.98 31.4563 171.162 32.5227 171.567 33.2186C171.62 33.3387 171.676 33.3856 171.736 33.3592C171.883 33.3666 172.132 33.0854 172.484 32.5156C174.177 29.781 175.055 26.9174 175.117 23.9247ZM176.058 32.3865L175.313 34.0673C175.31 34.1259 174.854 34.7345 173.944 35.893C173.653 36.4364 173.139 36.7191 172.404 36.7409C171.698 36.7642 171.013 36.6565 170.349 36.4176C169.457 36.0498 168.788 35.6344 168.341 35.1714C167.895 34.7085 167.463 33.9526 167.045 32.9037C166.659 31.827 166.468 30.951 166.472 30.2757C166.374 29.3015 166.332 28.6826 166.345 28.419L166.398 27.3643C166.451 26.3096 166.526 25.6966 166.622 25.5252C166.658 25.4095 166.746 25.1056 166.888 24.6134C167.097 23.3903 167.507 22.2361 168.119 21.1507C169.311 19.0664 170.479 18.0237 171.624 18.0224L171.844 18.0334C171.901 18.0656 171.988 18.0847 172.106 18.0906L172.677 18.1192C173.698 18.2585 174.323 18.378 174.553 18.4777C174.987 18.6169 175.365 18.6946 175.687 18.7108L176.819 18.9878C177.172 18.9761 177.622 19.0721 178.17 19.2758C178.747 19.481 179.048 19.6283 179.073 19.7176C179.127 19.8084 179.199 20.1351 179.288 20.6976C179.377 21.2601 179.43 21.674 179.446 21.9391C179.493 22.1764 179.524 22.4276 179.54 22.6928C179.668 24.8432 179.948 26.8544 180.383 28.7266C180.408 28.8159 180.431 28.9492 180.451 29.1265C180.472 29.3037 180.557 29.6604 180.706 30.1966C180.857 30.7034 180.967 31.1349 181.038 31.4908C181.108 31.8468 181.245 32.3236 181.45 32.9213C181.604 33.3696 181.842 33.8955 182.164 34.499C182.763 35.4396 182.391 36.1258 181.048 36.5577C180.869 36.6075 180.56 36.6213 180.121 36.5993C180.033 36.5949 179.762 36.4344 179.308 36.118C179.015 36.1033 178.744 35.9282 178.497 35.5927L178.15 35.4872C177.955 35.2718 177.784 35.1605 177.638 35.1531C177.582 35.0916 177.114 33.8786 176.234 31.5142C176.13 31.8321 176.072 32.1229 176.058 32.3865Z" fill="#6F23E7"/>
<path d="M185.601 24.5387C185.589 24.1857 185.638 23.5126 185.746 22.5194L186.129 21.0407L187.102 19.1952L187.85 18.3516C187.861 18.1172 188.639 17.8331 190.183 17.4994L190.227 17.5016C190.551 17.4885 191.047 17.5427 191.717 17.6644C192.416 17.7876 193.075 18.1143 193.694 18.6447C194.315 19.1458 194.735 19.5633 194.953 19.8973C195.507 21.1586 195.713 22.3144 195.572 23.3647C195.557 23.6577 195.393 24.0019 195.08 24.3973C195.048 24.4545 194.823 24.5313 194.407 24.6279C193.991 24.7246 193.654 24.7223 193.394 24.6212C193.137 24.4908 192.838 24.2996 192.498 24.0476C192.158 23.7956 192.015 23.4213 192.07 22.9247C191.821 22.6185 191.781 22.2347 191.951 21.7733C192.028 21.4247 191.997 21.1588 191.859 20.9757L191.343 20.7295C191.164 20.7793 190.975 21.0342 190.776 21.4941C190.606 21.9555 190.504 22.5231 190.47 23.1969C190.408 24.4274 190.66 25.5561 191.225 26.583C191.414 26.9156 191.747 27.314 192.223 27.7785L192.965 28.7849L194.055 29.8969L194.833 31.0814C195.027 31.2967 195.283 31.7648 195.599 32.4855C195.946 33.1784 196.106 33.8032 196.078 34.3598C196.052 34.8872 195.857 35.5529 195.493 36.3571L195.069 36.9085C195.066 36.9671 194.895 37.1494 194.557 37.4555C193.634 38.2904 192.655 38.7846 191.619 38.9382L191.311 38.9228C190.368 38.993 189.446 38.932 188.545 38.74L187.2 38.3201C187.054 38.3128 186.896 38.2461 186.726 38.1201C186.554 38.0234 186.397 37.9421 186.253 37.8761C185.602 37.4029 185.209 37.0307 185.076 36.7597C184.934 36.6645 184.852 36.2492 184.83 35.5139C184.647 35.0641 184.721 34.4657 185.052 33.7187C185.074 33.2793 185.135 32.9446 185.235 32.7146C185.824 32.098 186.549 31.9875 187.41 32.3832C187.697 32.515 187.832 32.7568 187.814 33.1083C187.81 33.1962 187.838 33.506 187.9 34.0378C187.992 34.5417 188.144 35.0193 188.357 35.4705C188.569 35.9217 188.88 36.1575 189.29 36.1781C189.701 36.1987 190.133 36.0589 190.589 35.7586C191.103 34.874 191.363 34.3877 191.367 34.2998L191.486 33.689C191.566 33.2525 191.457 32.7918 191.159 32.3068C191.088 31.9509 190.901 31.589 190.596 31.2213L189.986 30.2215L189.357 29.5732C189.242 29.538 188.887 29.2853 188.294 28.815C188.269 28.7256 188.118 28.5124 187.841 28.1755C187.565 27.8385 187.306 27.4291 187.066 26.9471C186.827 26.4358 186.512 25.9795 186.121 25.5781C186.102 25.3715 185.929 25.0251 185.601 24.5387Z" fill="#6F23E7"/>
<path d="M200.451 22.9045L200.425 22.5508C200.432 22.4043 200.531 22.189 200.721 21.9048C200.88 21.6778 201.113 21.4105 201.422 21.1029C201.732 20.7954 201.917 20.6137 201.978 20.5581C202.372 20.3135 202.717 20.1693 203.013 20.1254C203.226 19.9892 203.673 19.8648 204.354 19.7521L204.837 19.7763C205.013 19.7851 205.144 19.8064 205.23 19.8401C205.317 19.8738 205.622 19.9478 206.144 20.0622C206.968 20.0447 207.783 20.1884 208.59 20.4932C208.788 20.65 208.943 20.7752 209.056 20.869C209.168 20.9628 209.323 21.1027 209.519 21.2888C209.746 21.447 210 21.6506 210.282 21.8997C210.594 22.121 211.001 22.4792 211.505 22.9744C212.511 23.994 212.799 24.9924 212.368 25.9694L211.931 26.7845C211.469 27.2019 210.993 27.3248 210.503 27.1534L210.109 27.0896C209.796 26.8977 209.55 26.5329 209.371 25.9953C209.119 25.7477 208.952 25.5777 208.868 25.4854C208.089 24.624 207.237 24.0525 206.311 23.7712C205.811 23.7755 205.315 24.0149 204.821 24.4894C204.327 24.964 204.31 25.6092 204.768 26.4252C204.755 26.6889 204.776 26.8515 204.832 26.913C204.887 26.9745 205.008 27.2009 205.194 27.592C205.551 28.0799 205.825 28.4901 206.013 28.8226C206.139 29.2401 206.359 29.5448 206.672 29.7368L206.908 30.3213C206.994 30.355 207.392 30.6246 208.1 31.13C208.269 31.2853 208.434 31.5139 208.595 31.8157C208.595 31.8157 209.134 32.4742 210.214 33.7912C210.381 33.9758 210.543 34.263 210.699 34.6526C211.033 35.0218 211.193 35.3529 211.178 35.6459C211.193 35.9403 211.118 36.2596 210.954 36.6039C210.938 36.9261 210.778 37.1824 210.475 37.3728C210.201 37.5647 209.987 37.7302 209.833 37.8693C209.71 37.9806 209.21 38.2786 208.334 38.7633C208.268 38.9069 207.578 39.21 206.262 39.6727L204.926 39.9581C204.897 39.9566 204.764 39.9647 204.529 39.9822C204.291 40.0291 203.909 40.0393 203.382 40.0128L203.03 39.9952C202.881 40.0464 202.542 40.0588 202.015 40.0324C201.079 39.9561 200.27 39.6952 199.587 39.2498C199.444 39.1838 199.359 39.1062 199.334 39.0168C198.795 38.0499 198.522 37.6397 198.515 37.7862C198.405 37.6339 198.332 37.3365 198.295 36.8941C198.288 36.4532 198.272 36.1881 198.247 36.0987C198.224 35.98 198.276 35.8211 198.403 35.6219C198.69 35.1664 199.219 35.1636 199.99 35.6134L200.546 35.9496C200.796 36.2265 201.11 36.4038 201.488 36.4815C201.695 36.4625 201.944 36.475 202.235 36.519C202.527 36.563 202.805 36.5769 203.07 36.5609L203.879 36.249L203.835 36.2468C203.866 36.219 203.954 36.2087 204.101 36.2161C204.249 36.1941 204.471 36.1465 204.769 36.0733C205.632 35.8523 205.989 35.459 205.841 34.8936L205.56 34.3508C205.271 33.6608 204.944 33.1598 204.578 32.8477L204.237 32.6104C203.123 31.4091 202.249 30.396 201.614 29.5712C201.529 29.5082 201.347 29.3375 201.067 29.0591C200.817 28.7822 200.634 28.3325 200.518 27.7099C200.283 27.1401 200.155 26.7519 200.136 26.5453L200.178 25.7104C200.181 25.6518 200.175 25.4753 200.161 25.1808C200.146 24.8864 200.158 24.6374 200.198 24.4338C200.268 24.2023 200.277 24.0266 200.224 23.9064C200.201 23.7878 200.277 23.4538 200.451 22.9045Z" fill="#6F23E7"/>
<path d="M5.91182 68.6368L5.77531 70.4803L5.70477 71.8865L5.70891 73.5608C5.64719 74.7913 5.72608 76.1463 5.94558 77.6258L6.14546 78.0323C6.16163 77.71 6.21953 77.4339 6.31918 77.204C6.44812 76.9755 6.52067 76.7001 6.53683 76.3778L7.26667 74.1236C7.27108 74.0357 7.35387 73.8489 7.51505 73.5633C7.64693 73.2762 7.84989 72.743 8.12394 71.9638C8.42875 71.1567 8.62515 70.4617 8.71313 69.8787C8.80258 69.2664 8.88248 68.8445 8.95283 68.6131C9.02318 68.3817 9.02469 68.0587 8.95737 67.6441L9.26747 65.8534C9.28804 65.4433 9.36133 65.1532 9.48733 64.9833C10.7266 64.8693 11.5374 64.8071 11.9197 64.7969C11.9109 64.9727 12.0017 65.2122 12.1921 65.5155C12.1862 65.6327 12.2755 65.9015 12.46 66.3219L12.5961 67.1217C12.7513 67.5407 12.8807 69.3535 12.9842 72.56C12.962 73.5869 13.1691 75.0217 13.6053 76.8645C13.7636 76.6375 13.8361 76.3621 13.823 76.0384C14.0076 75.8714 14.119 75.4071 14.1572 74.6454L14.6561 73.4809L15.7181 68.9965L15.9909 67.0717L16.4108 65.7271C16.4885 65.3492 16.6189 65.0914 16.802 64.9537C17.0159 64.7882 17.3418 64.7311 17.7798 64.7825L18.8784 64.8376C19.0761 64.9943 19.3508 65.0815 19.7024 65.0992L20.2231 65.2575C20.1761 65.6075 20.127 66.0016 20.0757 66.4396C20.0287 66.7896 19.8712 67.5894 19.6029 68.8389C19.0412 73.0107 18.6512 75.5169 18.4328 76.3577C18.4225 76.5628 18.3705 76.7217 18.2767 76.8345C18.2268 77.2432 17.9718 78.229 17.5116 79.7919C17.4998 80.0262 17.1709 80.4356 16.5248 81.02C16.3021 81.3613 15.9835 81.5656 15.5689 81.6329C15.4151 81.772 15.1324 81.8459 14.7208 81.8547C14.3077 81.8927 13.8858 81.8128 13.4552 81.615C13.0231 81.4464 12.7799 81.3168 12.7257 81.2259C12.446 80.9476 12.0894 80.7388 11.6558 80.5996L11.0098 80.3028C10.6774 79.9043 10.4833 79.6743 10.4277 79.6128C10.3193 79.4311 10.2381 79.0012 10.184 78.323C10.1269 78.2907 10.0734 77.8916 10.0238 77.1254C9.60755 78.3968 9.39577 79.1058 9.38842 79.2523C9.21696 79.743 9.09973 80.0308 9.03673 80.1157C9.00449 80.1729 8.97005 80.2739 8.93341 80.419C8.92753 80.5361 8.89236 80.6519 8.82789 80.7661C8.81907 80.9419 8.70698 81.1272 8.49162 81.322C8.30555 81.5182 7.94591 81.6617 7.4127 81.7524C6.87802 81.8725 6.18881 81.8526 5.34509 81.6928L4.81555 81.7103C4.61048 81.7 4.39222 81.6597 4.16079 81.5893C3.82098 81.3373 3.58666 81.0319 3.45781 80.673C3.13123 80.1573 2.8508 79.5999 2.61652 79.0007C2.44956 78.8161 2.24457 78.2185 2.00157 77.2077C1.76876 76.5792 1.65456 76.2211 1.65897 76.1332L1.6788 75.7377C1.56749 75.6146 1.45329 75.2564 1.3362 74.6632C1.2484 74.0713 1.24114 73.6304 1.31443 73.3404C1.23242 73.2188 1.2039 72.909 1.22888 72.4109C1.18499 72.115 1.1792 71.6448 1.21153 71.0003C1.178 69.9119 1.11073 69.2037 1.00971 68.8755C1.05811 68.4961 0.967373 67.9629 0.7375 67.2759C0.569252 65.9458 0.534215 65.1804 0.63239 64.9797C0.556256 64.741 0.647865 64.3784 0.907217 63.8921C0.914564 63.7457 1.30134 63.3539 2.06755 62.7168C2.45428 62.6187 2.76116 62.6488 2.98819 62.807C3.21668 62.936 3.47668 63.0224 3.76817 63.0664L5.2842 63.583C6.12204 63.86 6.42437 64.8591 6.1912 66.5802L5.92946 68.2852C5.92799 68.3145 5.92505 68.3731 5.92064 68.461L5.91182 68.6368Z" fill="#6F23E7"/>
<path d="M32.1252 66.295C32.0739 66.1456 31.8718 66.0767 31.5188 66.0883C31.195 66.1015 30.9372 66.2648 30.7452 66.5782C29.4486 68.4222 28.7019 70.426 28.5053 72.5895C29.4896 72.8739 30.3613 72.477 31.1202 71.399C32.1724 68.5735 32.5074 66.8722 32.1252 66.295ZM27.8224 83.5691L27.3874 83.4592L26.803 82.8131C26.6273 82.8043 26.4991 82.7244 26.4186 82.5735C26.1154 82.1765 25.5677 81.3854 24.7754 80.2003L24.2374 77.7502C24.2609 77.2815 24.1936 76.8669 24.0355 76.5066C23.8086 75.1735 23.6703 74.4176 23.6206 74.2389C23.5722 74.0309 23.5555 73.4867 23.5703 72.6064C23.6144 71.7275 23.6906 71.0851 23.7991 70.6794C23.9149 70.1272 24.5259 68.7774 25.6322 66.6301C25.9091 66.3797 26.0879 66.0362 26.1685 65.5997L26.9223 64.6242C27.6051 63.8949 28.3214 63.3728 29.0715 63.0579C29.0744 62.9993 29.5798 62.8778 30.5877 62.6934C30.7942 62.6744 31.2593 62.7712 31.9829 62.9837C33.7201 63.482 34.793 64.0498 35.2016 64.6871L35.3224 64.9134C35.8394 65.7323 36.1006 66.9643 36.1062 68.6093C35.9816 69.3373 35.8775 69.9489 35.7939 70.444C35.7104 70.9391 35.3426 71.8311 34.6905 73.12C34.2099 73.9183 33.752 74.5562 33.3169 75.0336C32.6489 75.4701 32.1977 75.6824 31.9633 75.6706C31.8432 75.7234 31.5927 75.7402 31.2118 75.7211L30.2011 75.6704C30.1147 75.6367 29.925 75.6125 29.632 75.5978C29.3391 75.5831 28.9179 75.4885 28.3687 75.3141C28.3363 75.9586 28.4658 76.8903 28.7571 78.1091C29.0792 79.3001 29.3508 80.0332 29.572 80.3087C30.1637 80.8083 30.6316 81.1401 30.9759 81.3042C31.3201 81.4684 31.7873 81.5212 32.3777 81.4627C32.9695 81.3749 33.4046 81.1911 33.6829 80.9114L34.896 79.5624C35.6784 78.6031 36.4299 78.5527 37.1504 79.4112C37.4829 79.8097 37.5956 80.1971 37.4886 80.5736C37.4124 80.9222 37.0834 81.6253 36.5017 82.6828C36.027 83.3639 35.5289 83.9263 35.0073 84.37C34.0756 84.7932 33.5219 85.0004 33.3461 84.9916C33.081 85.0077 32.673 84.9432 32.1223 84.7981C31.822 84.9299 31.3247 84.8902 30.6304 84.6792C30.6333 84.6206 30.5476 84.5722 30.3733 84.5341C30.2268 84.5268 30.024 84.4725 29.7647 84.3714L29.8548 84.3319C29.7962 84.3289 29.6204 84.3201 29.3274 84.3054L28.1301 83.5846L27.8224 83.5691Z" fill="#6F23E7"/>
<path d="M51.5957 69.8268C51.65 68.7428 51.5161 68.1927 51.1938 68.1766C51.0488 68.1399 50.8584 68.1304 50.6225 68.1479L50.0336 68.4708L50.0754 68.517C49.86 68.7117 49.5948 69.0215 49.2798 69.4463L49.3238 69.4485C49.0029 69.9904 48.7641 70.3602 48.6073 70.558C48.2952 70.9241 48.1355 71.1805 48.1282 71.3269C48.1208 71.4734 48.0512 71.6902 47.9193 71.9773C47.8167 72.2659 47.7178 72.4812 47.6226 72.6232C47.5566 72.7668 47.4182 73.1857 47.2071 73.88C46.9975 74.545 46.87 75.0379 46.8246 75.3587L46.6223 75.8772L46.1078 78.2304C46.0067 78.4897 45.9832 78.9584 46.0373 79.6366C46.1207 80.3163 46.2129 80.8202 46.3139 81.1484C46.6082 81.7212 46.9158 82.0303 47.2366 82.0758C47.4505 81.9103 47.6168 81.8158 47.7354 81.7924C47.7618 81.8525 47.8628 81.8869 48.0386 81.8957C48.2144 81.9045 48.3484 81.8672 48.4407 81.7837L48.3968 81.7815C49.1073 81.0829 49.6201 80.5212 49.9351 80.0965C50.2501 79.6717 50.4604 78.9921 50.5661 78.0575L50.7486 77.0534C50.9171 76.6213 51.0161 76.1123 51.0455 75.5264L51.4217 72.4173C51.6049 71.6922 51.6636 71.1078 51.5977 70.6639L51.6088 70.4442L51.5957 69.8268ZM44.8506 52.3509C45.3706 52.5239 45.6489 52.8315 45.6854 53.2739C45.719 54.3623 45.6932 55.1687 45.6082 55.6931L45.5002 57.8464C45.4591 58.0793 45.4347 59.4438 45.427 61.9398C45.4501 64.4081 45.4937 66.4662 45.5579 68.1142L45.6875 68.1647C46.048 67.4192 46.2758 66.9753 46.3711 66.8333C46.4956 66.6927 46.6077 66.5074 46.7073 66.2774C46.8363 66.0489 47.0509 65.8688 47.3512 65.737C47.3541 65.6784 47.5094 65.51 47.8171 65.2317C48.1555 64.9256 48.3855 64.7316 48.5071 64.6495C48.658 64.569 48.7635 64.5155 48.8236 64.4892C48.9144 64.435 49.0345 64.3823 49.1839 64.331C49.3627 64.2813 49.4674 64.2425 49.4982 64.2146C49.9142 64.118 50.1662 64.0719 50.254 64.0763L50.8341 63.9292C50.8927 63.9321 50.9806 63.9366 51.0978 63.9424C51.2458 63.9205 51.4171 64.0172 51.6119 64.2325C51.7555 64.2985 51.9613 64.2941 52.2294 64.2195C52.7567 64.2459 53.2342 64.3873 53.6619 64.6438C54.0896 64.9002 54.3832 65.1939 54.5429 65.525C54.7332 65.8282 54.9983 66.1059 55.3381 66.3579C55.3616 66.4765 55.4421 66.6274 55.5798 66.8105C55.7482 66.9658 55.8668 67.2361 55.9356 67.6214C56.1654 68.8958 56.2244 70.6463 56.1127 72.8729C56.0527 72.8992 56.0182 73.0003 56.0094 73.1761C56.0299 73.3533 56.0167 73.617 55.9698 73.9671C55.9536 74.2893 55.9404 74.553 55.9301 74.7581L55.6948 75.9358L55.6441 76.9465C55.5811 77.0314 55.5225 77.3222 55.4682 77.8188L54.7383 80.073L54.0349 81.8C54.0305 81.8879 53.8694 82.1735 53.5514 82.6568C53.1354 82.7534 52.786 82.9856 52.5032 83.3532C51.6609 83.7515 51.1181 84.0327 50.8749 84.1967C50.2288 84.7811 49.4663 85.0512 48.5874 85.0071C48.4703 85.0012 48.0572 85.0393 47.3482 85.1212C46.2847 85.2441 45.4109 85.0974 44.7269 84.6813C44.3754 84.6637 44.1513 84.4469 44.0547 84.0308C43.4834 83.7085 43.1678 83.5605 43.1077 83.5868C42.929 83.6366 42.7554 83.5839 42.587 83.4286C42.4479 83.2747 42.3541 83.0938 42.3058 82.8858C42.0744 82.8154 41.9228 82.6169 41.8511 82.2903C41.8468 81.7908 41.7516 81.3454 41.5657 80.9543C41.3797 80.5631 41.3109 80.1779 41.3593 79.7985C41.437 79.4206 41.4283 79.009 41.3331 78.5636C41.2687 78.0905 41.2732 77.7089 41.3465 77.4189C41.2235 76.9428 41.1467 76.4249 41.116 75.8654L41.1226 75.7335C41.1622 75.5299 41.2003 75.3556 41.237 75.2106L41.2722 74.5075C41.3602 73.9245 41.394 73.5444 41.3735 73.3671C41.2944 73.1869 41.2644 72.9064 41.2835 72.5256C41.2279 72.464 41.2022 72.3893 41.2067 72.3014L41.1892 71.7719C40.9387 71.495 40.9878 71.101 41.3366 70.5898C41.4626 70.4199 41.4875 69.9219 41.4115 69.0957L40.9923 66.0348C41.0216 66.0363 41.0407 65.9491 41.0495 65.7734L41.1177 65.2922C40.8879 64.0177 40.8046 62.7506 40.8678 61.4909C40.8429 61.4015 40.8363 61.2397 40.8481 61.0053L40.8855 60.2582C40.8534 59.728 40.8835 59.1274 40.9759 58.4565C41.0976 57.7871 41.1475 57.0847 41.1256 56.3494C41.1111 55.4675 41.2511 54.7256 41.5457 54.1236C41.6248 53.7164 41.7567 53.4293 41.9413 53.2623C42.1274 53.0661 42.4306 52.8757 42.8511 52.6912C43.544 52.3441 44.2105 52.2307 44.8506 52.3509Z" fill="#6F23E7"/>
<path d="M60.6403 68.9587L60.6139 68.605C60.6213 68.4585 60.7202 68.2432 60.9107 67.959C61.0689 67.732 61.3026 67.4647 61.6117 67.1571C61.9208 66.8496 62.1062 66.668 62.1677 66.6123C62.5618 66.3677 62.9068 66.2235 63.2027 66.1796C63.4151 66.0434 63.8619 65.919 64.5431 65.8063L65.0265 65.8305C65.2022 65.8394 65.3333 65.8606 65.4198 65.8943C65.5062 65.928 65.8109 66.002 66.3338 66.1164C67.157 66.0989 67.9722 66.2426 68.7793 66.5474C68.977 66.7042 69.1322 66.8295 69.245 66.9232C69.3578 67.017 69.5123 67.1569 69.7086 67.343C69.9356 67.5012 70.1897 67.7049 70.4709 67.9539C70.7829 68.1752 71.1908 68.5334 71.6946 69.0286C72.7008 70.0483 72.9885 71.0466 72.5577 72.0236L72.1203 72.8387C71.6588 73.2561 71.1827 73.3791 70.692 73.2076L70.2987 73.1438C69.9853 72.9519 69.7392 72.5871 69.5606 72.0495C69.3087 71.8019 69.141 71.6319 69.0575 71.5396C68.2784 70.6782 67.4259 70.1068 66.5002 69.8254C66.0007 69.8297 65.5041 70.0691 65.0103 70.5436C64.5166 71.0182 64.4989 71.6634 64.9573 72.4794C64.9441 72.7431 64.9653 72.9057 65.021 72.9672C65.0766 73.0287 65.1974 73.2551 65.3834 73.6462C65.7407 74.1341 66.0139 74.5443 66.2028 74.8768C66.3287 75.2943 66.5484 75.599 66.8618 75.791L67.0968 76.3755C67.1832 76.4092 67.5809 76.6788 68.2898 77.1843C68.4582 77.3396 68.623 77.5681 68.7841 77.8699C68.7841 77.8699 69.3238 78.5284 70.4032 79.8455C70.5701 80.0301 70.7319 80.3172 70.8886 80.7069C71.2225 81.0761 71.3822 81.4071 71.3675 81.7001C71.3821 81.9945 71.3073 82.3139 71.1432 82.6581C71.127 82.9803 70.9673 83.2367 70.6641 83.427C70.3901 83.6189 70.1762 83.7844 70.0224 83.9235C69.8993 84.0348 69.3998 84.3328 68.5237 84.8176C68.4578 84.9611 67.7671 85.2642 66.4516 85.7269L65.1156 86.0123C65.0863 86.0109 64.9537 86.0189 64.7179 86.0364C64.4806 86.0833 64.0983 86.0935 63.5709 86.067L63.2194 86.0494C63.0699 86.1006 62.7316 86.113 62.2042 86.0866C61.2682 86.0103 60.4589 85.7494 59.7764 85.304C59.6328 85.238 59.5486 85.1604 59.5237 85.071C58.9848 84.1042 58.7117 83.694 58.7043 83.8404C58.5945 83.6881 58.5213 83.3907 58.4848 82.9483C58.4775 82.5074 58.4614 82.2423 58.4365 82.1529C58.4131 82.0343 58.4651 81.8753 58.5926 81.6761C58.8798 81.2206 59.4086 81.2178 60.179 81.6676L60.7349 82.0039C60.9853 82.2808 61.2995 82.458 61.6774 82.5357C61.884 82.5167 62.133 82.5292 62.4245 82.5732C62.716 82.6172 62.9943 82.6312 63.2594 82.6151L64.0681 82.3032L64.0241 82.301C64.0549 82.2732 64.1435 82.2629 64.29 82.2703C64.438 82.2483 64.6606 82.2008 64.958 82.1276C65.8208 81.9065 66.1783 81.5133 66.0304 80.9478L65.7493 80.405C65.4608 79.7151 65.1335 79.214 64.7673 78.902L64.4268 78.6646C63.3123 77.4633 62.4379 76.4502 61.8038 75.6254C61.7188 75.5624 61.5365 75.3917 61.2567 75.1133C61.0063 74.8365 60.8232 74.3867 60.7076 73.7641C60.4719 73.1943 60.3445 72.8061 60.3255 72.5995L60.3674 71.7646C60.3703 71.706 60.3645 71.5295 60.3499 71.2351C60.3353 70.9406 60.3477 70.6916 60.3873 70.488C60.4577 70.2566 60.4665 70.0808 60.4138 69.9607C60.3904 69.842 60.4658 69.508 60.6403 68.9587Z" fill="#6F23E7"/>
<path d="M82.1208 60.0356L82.2526 60.0422C83.275 60.1522 83.9188 60.4929 84.1838 61.0642C84.4797 61.6077 84.5711 62.1263 84.4583 62.6199C84.3747 63.115 83.9483 63.7104 83.1792 64.4061C82.4393 65.1032 81.7772 65.4225 81.1927 65.3638C81.0169 65.355 80.6698 65.2494 80.1513 65.0472C79.662 64.8464 79.4035 64.7307 79.3757 64.6999C79.3523 64.5813 79.2688 64.489 79.1252 64.423C78.3782 64.0919 77.9909 63.3235 77.9632 62.1179C77.9691 62.0007 78.0614 61.9173 78.2401 61.8675C78.1229 61.8616 78.1171 61.6851 78.2226 61.3379C78.46 60.7037 78.9354 60.3017 79.6488 60.1319C80.5659 60.0016 81.3898 59.9695 82.1208 60.0356ZM81.4752 71.1492L80.3601 78.4505C80.3513 78.6263 80.3425 78.8021 80.3336 78.9778C80.3263 79.1243 80.3343 79.2569 80.3578 79.3755C80.3226 79.4913 80.3006 79.637 80.2918 79.8128L80.1331 82.9768C80.2003 83.9788 80.1709 84.5647 80.0449 84.7346C79.8662 84.7844 79.6567 84.862 79.4165 84.9674C79.1747 85.1021 78.7192 85.1087 78.0498 84.987C77.4082 84.896 76.9446 84.77 76.659 84.6088L76.1382 84.4505C75.8453 84.4358 75.6614 84.2945 75.5868 84.0264C75.2177 83.7729 75.028 83.455 75.0178 83.0727C74.9373 82.9218 75.0501 82.7219 75.3563 82.4729C75.3344 82.3249 75.2861 82.1169 75.2114 81.8488C75.1382 81.5515 75.1221 81.2863 75.1632 81.0534C75.2584 80.9114 75.2255 80.6894 75.0644 80.3876C75.0806 80.0654 75.1429 79.7014 75.2513 79.2956C75.3744 79.1843 75.425 78.761 75.4032 78.0257C75.6229 77.743 75.746 77.338 75.7725 76.8106C75.6788 76.336 75.7463 75.8695 75.9748 75.411C76.2034 74.9525 76.3441 74.4897 76.3969 74.0224C76.4923 73.2929 76.6601 72.5818 76.9004 71.8889C76.9151 71.596 77.0705 71.1339 77.3665 70.5026C77.6918 69.8727 77.9013 69.5014 77.9951 69.3886L78.7335 68.7208L79.5399 68.4529L79.5838 68.4551C79.9413 68.3555 80.2921 68.3878 80.6363 68.5519C81.4697 68.9168 81.9699 69.1915 82.1369 69.3761C82.0138 69.4874 81.9318 69.6595 81.8907 69.8924C81.8497 70.1253 81.8101 70.3289 81.772 70.5032C81.6474 70.6438 81.5485 70.8592 81.4752 71.1492Z" fill="#6F23E7"/>
<path d="M89.0965 69.7692L89.1603 69.3759C88.548 69.2865 88.1108 69.2205 87.8486 69.178C87.6171 69.1076 87.2246 69.0292 86.6709 68.9427C86.1172 68.8562 85.6821 68.7462 85.3657 68.6129C84.7608 68.377 84.4357 67.832 84.3904 66.978C84.3466 66.0947 84.6521 65.5667 85.3069 65.3939C85.9002 65.2768 86.314 65.2241 86.5484 65.2359C86.7828 65.2476 87.2237 65.2404 87.8711 65.2141C88.2022 65.0545 88.6468 64.974 89.2049 64.9726L89.8729 64.8299C89.8714 64.8592 89.9901 64.8358 90.2289 64.7597L90.4949 63.8478C90.5184 63.3791 90.6737 62.917 90.9609 62.4614C90.9712 62.2564 91.1903 61.6946 91.6182 60.7763C91.624 60.6591 91.9303 59.8227 92.537 58.2671C92.6615 58.1265 93.1179 57.8117 93.906 57.3225C94.3865 57.1117 95.0376 57.3059 95.8593 57.9051C96.3178 58.1337 96.6261 58.4282 96.7842 58.7885C96.5996 58.9555 96.4912 59.3613 96.4588 60.0058C96.4192 60.2094 96.1598 61.2831 95.6805 63.2268L95.6188 64.4573C95.8517 64.4983 96.2289 64.5907 96.7503 64.7343C97.3011 64.8794 97.9536 65.0443 98.708 65.229C100.158 65.5954 101.052 66.2277 101.388 67.1257C101.503 67.7775 101.45 68.2301 101.232 68.4835C101.014 68.7369 100.506 68.9024 99.7094 68.9799C99.0634 68.9768 98.213 68.9489 97.1584 68.896C96.133 68.8446 95.3676 68.8796 94.8622 69.0011C94.7772 69.5255 94.7273 69.9342 94.7126 70.2271L94.6356 70.8841C94.6253 71.0892 94.4391 72.1665 94.077 74.1162C93.888 74.371 93.6732 75.726 93.4326 78.181L93.2717 81.389C93.2452 81.9163 93.2642 82.4165 93.3286 82.8897C93.3255 83.5357 93.376 83.9935 93.48 84.263C93.4667 84.5267 93.5121 85.087 93.6159 85.9439C93.2218 86.7759 92.6145 87.1713 91.7942 87.1302C91.0032 87.0905 90.3148 86.7623 89.729 86.1455L89.2808 85.4181C89.2047 85.1793 89.1395 85.0145 89.0854 84.9237C89.0605 84.8343 89.0363 84.7303 89.0129 84.6117C88.8372 84.0155 88.6944 83.6412 88.5846 83.4888C88.4206 83.2456 88.3415 83.0654 88.3474 82.9482C88.3533 82.8311 88.3606 82.6846 88.3694 82.5088C88.3358 82.0078 88.2839 81.5793 88.2136 81.2234C88.0745 81.0696 88.0262 80.5678 88.0688 79.7182C88.2053 78.1685 88.2501 77.2749 88.2033 77.0376C88.2956 76.9541 88.3381 76.3982 88.331 75.3699L88.5113 74.4097C88.5172 74.2926 88.5978 73.856 88.7532 73.1002C88.7005 72.9801 88.7013 72.6717 88.7556 72.1752C88.8113 71.6493 88.8736 71.2853 88.9425 71.0832C89.0187 70.7345 89.0701 70.2966 89.0965 69.7692Z" fill="#6F23E7"/>
<path d="M110.189 72.281C110.328 71.8474 110.341 71.29 110.229 70.6089C110.033 70.4228 109.759 70.321 109.407 70.3033C108.968 70.2813 108.552 70.6716 108.159 71.4743C107.655 72.1539 107.264 72.9126 106.987 73.7504L106.943 73.7482C106.559 74.9625 106.365 75.6136 106.361 75.7015C106.824 75.8422 107.202 75.9199 107.495 75.9346C107.789 75.92 108.134 75.7758 108.53 75.5019C109.236 74.8912 109.789 73.8175 110.189 72.281ZM109.74 78.6024L108.107 78.6527C107.199 78.6071 106.486 78.4833 105.967 78.281L106.057 79.1226C106.023 81.5586 106.617 83.1891 107.838 84.014C108.183 84.1781 108.472 84.266 108.706 84.2778C108.941 84.2895 109.254 84.1878 109.647 83.9725C109.77 83.8612 109.88 83.7052 109.979 83.5045C110.021 83.2423 110.173 83.1325 110.436 83.175C111.713 81.7118 112.651 81.1568 113.251 81.5099C113.845 81.9509 114.137 82.2886 114.125 82.523C114.119 82.6402 114.039 82.7684 113.885 82.9075L113.872 83.1712C113.857 83.4641 113.641 83.9819 113.221 84.7245C112.832 85.4686 112.419 86.094 111.982 86.6008C111.755 87.0299 111.476 87.3243 111.145 87.4839C110.178 88.0228 109.17 88.2073 108.121 88.0372C107.888 87.9961 107.73 87.9294 107.647 87.8372C107.415 87.7668 107.24 87.7433 107.121 87.7668L106.772 87.7052C106.508 87.692 106.292 87.6223 106.122 87.4963C105.838 87.3059 105.637 87.2077 105.52 87.2018C104.773 86.8706 104.315 86.6274 104.147 86.4721C104.007 86.3183 103.881 86.2091 103.766 86.1447C103.652 86.0802 103.389 85.7586 102.978 85.1799C102.613 84.8386 102.404 84.6225 102.349 84.5317C102.187 84.2592 102.035 84.0607 101.895 83.9361C101.783 83.8131 101.723 83.5457 101.715 83.1341C101.605 82.9817 101.556 82.7884 101.568 82.554L101.409 82.1936C101.42 81.9886 101.34 81.823 101.17 81.697C101.003 81.5124 100.926 81.2883 100.939 81.0246L100.957 80.6731C100.843 80.6086 100.822 80.4313 100.896 80.1413L100.953 78.9987L100.929 78.601L100.944 78.2934C100.921 78.1748 100.963 77.9272 101.07 77.5508L101.045 77.1531C101.076 77.1252 101.132 76.8931 101.213 76.4566C101.361 75.8472 101.512 75.473 101.665 75.3338L101.685 74.9383C101.719 74.8519 101.739 74.7355 101.747 74.589C101.754 74.4425 101.792 74.2828 101.859 74.11C101.956 73.9386 102.223 73.2912 102.661 72.1677L103.441 70.6649C103.669 70.2358 104.015 69.7686 104.481 69.2633C104.518 69.1182 104.648 68.8605 104.872 68.4899L105.47 67.9912C105.659 67.7364 105.932 67.5591 106.29 67.4596C106.71 67.2751 107.023 67.188 107.228 67.1983L108.467 67.0842C108.612 67.1208 108.714 67.1406 108.773 67.1436L109.344 67.1722C109.985 67.2631 110.506 67.4214 110.906 67.6471C111.772 67.9548 112.399 68.3241 112.789 68.7548C113.646 69.8257 114.051 70.8299 114.004 71.7674C113.956 72.7049 113.77 73.5032 113.443 74.1623C112.627 75.7955 112.046 76.8237 111.702 77.247C111.126 78.1874 110.472 78.6392 109.74 78.6024Z" fill="#6F23E7"/>
<path d="M117.973 74.2133C117.961 73.8603 118.01 73.1872 118.118 72.1941L118.501 70.7154L119.474 68.8698L120.222 68.0262C120.233 67.7918 121.011 67.5078 122.555 67.174L122.599 67.1762C122.923 67.1631 123.419 67.2174 124.089 67.3391C124.788 67.4622 125.447 67.789 126.066 68.3194C126.687 68.8204 127.107 69.238 127.325 69.572C127.879 70.8333 128.085 71.9891 127.944 73.0394C127.929 73.3323 127.765 73.6765 127.452 74.072C127.42 74.1291 127.195 74.206 126.779 74.3026C126.363 74.3992 126.026 74.397 125.766 74.2958C125.509 74.1654 125.21 73.9742 124.87 73.7222C124.53 73.4702 124.388 73.0959 124.442 72.5993C124.193 72.2932 124.153 71.9094 124.323 71.448C124.4 71.0994 124.369 70.8335 124.231 70.6504L123.715 70.4042C123.536 70.454 123.347 70.7088 123.148 71.1687C122.978 71.6301 122.876 72.1977 122.842 72.8716C122.78 74.102 123.032 75.2307 123.597 76.2577C123.786 76.5902 124.119 76.9887 124.595 77.4531L125.337 78.4596L126.427 79.5716L127.205 80.756C127.399 80.9714 127.655 81.4394 127.971 82.1602C128.318 82.8531 128.478 83.4779 128.45 84.0345C128.424 84.5618 128.229 85.2276 127.865 86.0317L127.441 86.5832C127.438 86.6417 127.267 86.8241 126.929 87.1302C126.006 87.965 125.027 88.4592 123.991 88.6129L123.683 88.5975C122.74 88.6676 121.818 88.6067 120.917 88.4146L119.572 87.9948C119.426 87.9874 119.268 87.9207 119.098 87.7947C118.927 87.698 118.769 87.6167 118.626 87.5508C117.974 87.0775 117.581 86.7054 117.448 86.4344C117.306 86.3391 117.224 85.9238 117.202 85.1885C117.019 84.7388 117.093 84.1404 117.424 83.3934C117.446 82.9539 117.507 82.6192 117.607 82.3893C118.196 81.7726 118.921 81.6622 119.782 82.0578C120.069 82.1897 120.204 82.4314 120.186 82.783C120.182 82.8709 120.21 83.1807 120.272 83.7124C120.364 84.2163 120.516 84.6939 120.729 85.1451C120.941 85.5963 121.252 85.8322 121.662 85.8528C122.073 85.8733 122.505 85.7335 122.961 85.4333C123.475 84.5486 123.735 84.0623 123.739 83.9744L123.858 83.3636C123.938 82.9271 123.829 82.4664 123.531 81.9815C123.46 81.6255 123.273 81.2637 122.968 80.896L122.358 79.8961L121.729 79.2478C121.614 79.2127 121.259 78.9599 120.666 78.4896C120.641 78.4002 120.49 78.1871 120.213 77.8501C119.937 77.5132 119.678 77.1037 119.438 76.6217C119.199 76.1105 118.884 75.6541 118.493 75.2527C118.474 75.0462 118.301 74.6997 117.973 74.2133Z" fill="#6F23E7"/>
<path d="M174.847 75.5224C174.66 75.2458 174.329 74.007 174.105 72.7596C173.884 71.5162 173.851 70.7293 174.04 71.01C186.737 90.2205 204.682 104.565 225.091 112.909C242.745 120.122 262.233 122.852 281.759 120.34C281.393 120.14 281.035 119.936 280.673 119.724C277.516 117.833 274.732 115.321 272.501 112.308C271.73 111.259 271.958 109.777 273.007 109.006C274.056 108.235 275.537 108.463 276.308 109.512C278.156 112.02 280.479 114.11 283.092 115.68C285.708 117.244 288.639 118.3 291.729 118.746C293.964 119.067 294.595 121.952 292.366 123.239C289.675 124.697 287.318 126.66 285.415 128.992C283.482 131.356 282.01 134.111 281.119 137.096C280.745 138.342 279.427 139.055 278.179 138.676C276.933 138.302 276.22 136.984 276.599 135.736C277.669 132.146 279.437 128.841 281.765 125.998C282.053 125.645 282.351 125.302 282.652 124.963C263.122 127.466 243.638 124.746 225.994 117.532C205.563 109.179 187.578 94.7928 174.843 75.5247L174.847 75.5224Z" fill="#6F23E7"/>
</svg>
