<svg width="167" height="147" viewBox="0 0 167 147" fill="none" xmlns="http://www.w3.org/2000/svg">
<path d="M11.2622 5.96302C11.2656 6.35615 11.3122 7.27153 11.402 8.70916C11.5286 11.2582 11.601 12.8105 11.6194 13.3662L11.884 15.0091L12.0793 16.6485C12.638 15.6594 12.9099 15.0836 12.8949 14.921C12.903 14.7596 13.1293 14.17 13.5737 13.1521C14.1774 12.1884 14.5791 11.3301 14.7789 10.5773C14.8089 10.4401 14.9526 10.1122 15.2101 9.59343C15.1443 9.52079 15.213 9.30463 15.4161 8.94497C15.6205 8.56225 15.7798 8.15417 15.8941 7.72071C16.0315 7.28841 16.1008 7.06073 16.1019 7.03767C16.1262 7.01577 16.1504 6.99387 16.1746 6.97197C16.2473 6.90627 16.3501 6.70338 16.4828 6.3633C16.5683 6.04398 16.6156 5.79208 16.6249 5.60762L16.6787 4.53547C16.6822 4.4663 16.7521 4.22709 16.8883 3.81785L16.8936 3.02064C16.9214 2.46727 17.2227 1.7658 17.7975 0.916235L18.5194 0.362973C18.5298 0.155459 18.7093 0.0373189 19.0578 0.0085523C19.4294 -0.0190592 19.7514 0.0201881 20.0237 0.126294C20.296 0.2324 20.4783 0.287766 20.5706 0.292392C20.6583 0.389246 20.9872 0.5213 21.5572 0.688553C21.8296 0.794659 21.994 0.976261 22.0505 1.23336C22.1301 1.49161 22.1589 1.83978 22.1369 2.27786L21.7591 4.9634C21.751 5.1248 21.6256 6.2396 21.383 8.30779L21.362 9.41627C21.3366 9.46123 21.3054 9.85262 21.2684 10.5904L21.1781 12.3889C21.1607 12.7348 21.1497 12.9538 21.1451 13.046L21.1829 14.3655C21.0906 14.3609 21.1776 15.3938 21.4438 17.4644C21.4276 17.7872 21.5077 18.4962 21.6841 19.5915C21.8847 20.6648 21.9094 21.556 21.7581 22.265C21.7396 22.6339 21.3882 22.9515 20.7038 23.2177C20.2007 23.1 19.8966 22.9345 19.7917 22.7212C19.5897 22.5955 19.4674 22.4969 19.4247 22.4254L19.1651 22.0657C18.8109 21.7475 18.5288 21.375 18.3189 20.9485C18.1654 20.779 18.0616 20.5426 18.0074 20.2394C17.7928 19.905 17.6746 19.4946 17.6527 19.0081C17.6309 18.5216 17.5554 18.1826 17.4261 17.9912C17.3212 17.7779 17.2387 17.5773 17.1787 17.3894C16.9376 17.123 16.7986 16.6653 16.7617 16.0163C16.7261 15.3441 16.6858 14.7642 16.6409 14.2766C16.6547 13.9999 16.6767 13.793 16.7067 13.6558C16.6467 13.4678 16.6075 13.3272 16.5891 13.2338C16.5937 13.1416 16.5874 13.0372 16.5701 12.9208L16.3986 13.571C16.3236 13.6828 16.151 14.1249 15.8809 14.8973L15.041 17.1089L14.3084 19.2566C14.1896 19.32 14.0372 19.5897 13.8513 20.0658C13.617 20.5857 13.4756 20.8676 13.4271 20.9114C13.4017 20.9563 13.3636 21.0238 13.3128 21.1137C13.1097 21.4733 12.8869 21.7627 12.6445 21.9817C11.9924 22.5269 11.3381 22.6559 10.6815 22.3687C10.0469 22.1058 9.59689 21.6209 9.33159 20.9142C9.18971 20.5141 9.0755 20.2541 8.98897 20.1342C8.97515 19.9486 8.86442 19.6195 8.65678 19.1468C8.51721 18.7006 8.41806 18.1408 8.35931 17.4676C8.25433 17.2543 8.19149 16.8928 8.1708 16.3833C8.06582 16.17 8.00009 15.8662 7.97361 15.4719C7.94713 15.0776 7.89699 14.6937 7.82319 14.3202C7.72748 13.9224 7.67043 13.4457 7.65205 12.89C7.62673 12.4727 7.49183 11.7031 7.24736 10.5813C7.18159 10.5087 7.10085 10.2735 7.00513 9.87575C6.94045 10.2424 6.90695 10.4487 6.90464 10.4948C6.90348 10.5179 6.7828 11.0782 6.5426 12.1756C6.58644 12.2241 6.55754 12.5693 6.45589 13.2115C6.29541 13.6426 6.19148 14.0997 6.1441 14.5828C5.89695 15.8186 5.76929 16.7483 5.76111 17.372C5.81993 17.583 5.8072 17.8367 5.72291 18.1329C5.66286 18.4073 5.60223 18.6932 5.54102 18.9906C5.50405 19.2662 5.44516 19.5175 5.36434 19.7446L5.35219 19.9867C5.24707 20.698 5.21527 21.1009 5.2568 21.1954C5.24406 21.4491 5.12458 21.7551 4.89834 22.1136C4.69518 22.4733 4.3882 22.5966 3.9774 22.4836C3.24811 22.2621 2.82808 22.1024 2.71731 22.0043C2.48427 21.5766 2.37586 21.2013 2.39206 20.8785L2.47541 19.2184L2.5759 18.5993C2.5563 18.529 2.58115 18.2644 2.65046 17.8056C2.62854 17.7814 2.62626 17.5964 2.64362 17.2505C2.66214 16.8816 2.64141 16.6032 2.58144 16.4152L2.5988 16.0694C2.592 15.2831 2.60303 14.8329 2.6319 14.7188C2.68501 14.5828 2.69948 14.2946 2.67531 13.8542C2.76763 13.8588 2.83401 13.6888 2.87445 13.3441C2.91605 12.9763 2.97035 12.5861 3.03735 12.1734L3.28489 12.0817C3.23989 12.0564 3.24456 11.733 3.29889 11.1116C3.33008 10.9514 3.40861 10.5392 3.5345 9.87521C3.66039 9.21118 3.71758 8.7633 3.70608 8.53158C3.71881 8.27795 3.86543 7.89234 4.14593 7.37475C4.70353 5.94644 5.00371 5.03688 5.04647 4.64606C5.11231 4.25641 5.19891 3.91402 5.30628 3.6189C5.4368 2.86265 5.68789 2.23956 6.05955 1.74965C6.24658 1.25049 6.56166 0.965785 7.0048 0.895529L7.43587 0.605075L7.47048 0.60681C7.9252 0.305984 8.71223 0.299189 9.83156 0.586426C10.7789 1.07308 11.2825 1.64152 11.3424 2.29175C11.2339 2.60992 11.2124 3.72992 11.2779 5.65175L11.2622 5.96302Z" fill="#6F23E7"/>
<path d="M32.2565 12.8053C32.2589 12.2969 32.1626 11.9107 31.9676 11.6466C31.7738 11.3596 31.4011 11.1791 30.8495 11.1052C30.6821 11.2124 30.4432 11.5934 30.1326 12.2482C29.8464 12.881 29.6501 13.5646 29.5438 14.299C29.2574 15.3942 29.0865 16.4951 29.0309 17.6019C28.9973 18.7328 29.1402 19.5721 29.4598 20.1198C29.5013 20.2143 29.5457 20.2512 29.5931 20.2305C29.7085 20.2363 29.9047 20.0149 30.1817 19.5665C31.5161 17.4143 32.2076 15.1606 32.2565 12.8053ZM32.998 19.4649L32.411 20.7878C32.4087 20.8339 32.0492 21.3128 31.3324 22.2246C31.1027 22.6523 30.6982 22.8747 30.1189 22.8919C29.5626 22.9103 29.0232 22.8255 28.5004 22.6375C27.7977 22.348 27.2704 22.0211 26.9185 21.6567C26.5666 21.2924 26.2262 20.6974 25.8975 19.8719C25.5929 19.0245 25.4425 18.3351 25.446 17.8036C25.3688 17.037 25.3354 16.5499 25.3458 16.3424L25.3875 15.5123C25.4292 14.6823 25.4881 14.1998 25.5643 14.0649C25.592 13.9739 25.6619 13.7346 25.7739 13.3473C25.9379 12.3847 26.2611 11.4763 26.7436 10.6221C27.6821 8.98171 28.6025 8.16102 29.5049 8.16L29.678 8.16868C29.723 8.19405 29.7917 8.20904 29.884 8.21367L30.3341 8.23622C31.1384 8.34587 31.6311 8.4399 31.8123 8.51833C32.1539 8.6279 32.4516 8.68905 32.7054 8.70177L33.5969 8.9198C33.875 8.91062 34.2298 8.98619 34.6614 9.1465C35.116 9.30798 35.3532 9.42388 35.3728 9.4942C35.4155 9.56569 35.472 9.82279 35.5423 10.2655C35.6126 10.7082 35.6541 11.0339 35.6668 11.2426C35.7037 11.4293 35.7285 11.6271 35.7411 11.8357C35.8412 13.5281 36.0626 15.1111 36.4051 16.5845C36.4247 16.6548 36.4425 16.7597 36.4587 16.8992C36.4748 17.0387 36.5417 17.3194 36.6593 17.7414C36.7781 18.1403 36.8652 18.4798 36.9206 18.76C36.9759 19.0402 37.0843 19.4154 37.2458 19.8858C37.3669 20.2386 37.5544 20.6525 37.8082 21.1275C38.2801 21.8678 37.9869 22.4078 36.9286 22.7478C36.7878 22.7869 36.5443 22.7978 36.1981 22.7805C36.1289 22.777 35.9154 22.6508 35.5577 22.4017C35.3269 22.3901 35.114 22.2523 34.919 21.9883L34.6456 21.9052C34.4921 21.7357 34.3577 21.6481 34.2423 21.6423C34.1984 21.5939 33.8299 20.6393 33.1366 18.7784C33.0547 19.0286 33.0085 19.2574 32.998 19.4649Z" fill="#6F23E7"/>
<path d="M41.2879 10.3454L41.2066 9.89054C41.2078 9.86748 41.2124 9.77526 41.2205 9.61386C41.2529 9.43056 41.2523 9.21094 41.2189 8.95499C41.2478 8.37857 41.2577 7.95143 41.2485 7.67359C41.1839 7.57789 41.1719 7.12655 41.2124 6.31955C41.1837 5.50908 41.234 4.73725 41.3633 4.00405C41.3749 3.77348 41.5325 3.16883 41.8362 2.19009C42.1155 1.69556 42.2569 1.41371 42.2604 1.34454C42.3874 1.11975 42.6321 0.854628 42.9945 0.549176L43.7042 0.238014C44.0574 0.117018 44.6557 0.181671 45.4992 0.431974L46.2522 0.643065C46.2325 1.03504 46.1614 1.52845 46.039 2.12331C45.9835 2.76775 45.8455 3.67388 45.6249 4.84169C45.1837 7.17732 44.8942 9.71703 44.7565 12.4608L44.8672 13.0211C45.562 12.5474 46.1881 12.0587 46.7455 11.555C47.3261 11.0524 47.6994 10.7591 47.8656 10.6749C47.8899 10.653 48.1663 10.4473 48.6949 10.0577C49.3192 9.60359 49.6689 9.32062 49.744 9.2088C50.2114 8.65435 50.7642 8.24286 51.4024 7.97434C51.8179 7.99516 52.1819 8.11742 52.4946 8.34112C52.8477 8.68243 53.0185 8.96836 53.0069 9.19893C52.9953 9.4295 52.9514 9.61223 52.8752 9.7471C52.8233 9.86007 52.7235 10.0053 52.5757 10.1828C52.428 10.3604 52.2906 10.5615 52.1636 10.7863C51.837 11.3016 51.1768 12.0082 50.1831 12.9061C49.5021 13.5654 48.981 14.0363 48.6198 14.3187C48.4005 14.5389 47.8736 14.8938 47.0392 15.3837C47.06 15.431 47.1015 15.5255 47.1638 15.6673C47.2503 15.7872 47.3351 15.9417 47.4182 16.1308C48.3343 17.24 49.1292 17.9964 49.8031 18.4C50.0662 18.6906 50.346 18.878 50.6426 18.9622C50.6414 18.9852 50.7637 19.0838 51.0095 19.2579L51.2137 19.3375C51.7087 19.6166 52.037 19.7602 52.1986 19.7682C52.9302 19.9436 53.2867 20.2157 53.2682 20.5846C53.2509 20.9305 53.0529 21.1864 52.6744 21.3524C52.672 21.3985 52.3143 21.6117 51.6011 21.992C51.5099 21.9643 51.3102 22.0237 51.0021 22.1701C50.1343 22.4039 49.1592 22.2395 48.0768 21.6767C47.4676 21.3688 46.9703 20.9047 46.5849 20.2844L45.8199 19.622C45.8003 19.5517 45.43 19.0939 44.7088 18.2488L44.7935 19.3279L44.9145 20.3741C44.8775 21.1119 44.8941 21.7022 44.9644 22.1449C45.0347 22.5876 44.9268 22.8943 44.6406 23.0648C44.3774 23.2366 43.8991 23.3166 43.2056 23.305C42.5351 23.2945 42.0354 23.1077 41.7066 22.7445C41.6178 22.6707 41.5399 22.3778 41.4731 21.8659C41.4304 21.3322 41.3797 20.9598 41.3209 20.7488C40.9299 19.3192 40.8061 18.0994 40.9493 17.0895L40.9668 16.0502C40.9945 15.9592 41.0194 15.6946 41.0413 15.2565C41.3358 13.9999 41.418 12.3629 41.2879 10.3454Z" fill="#6F23E7"/>
<path d="M61.3608 11.4898C61.3204 11.3722 61.1612 11.318 60.8831 11.3272C60.628 11.3376 60.4249 11.4661 60.2737 11.7128C59.2522 13.1641 58.664 14.7411 58.5091 16.4438C59.2845 16.6676 59.9712 16.3553 60.5691 15.5069C61.398 13.2831 61.6619 11.9441 61.3608 11.4898ZM57.9711 25.085L57.6284 24.9985L57.1681 24.49C57.0296 24.4831 56.9286 24.4202 56.8652 24.3015C56.6263 23.989 56.1948 23.3664 55.5707 22.4336L55.1469 20.5054C55.1654 20.1365 55.1124 19.8102 54.9878 19.5266C54.8091 18.4775 54.7001 17.8826 54.6609 17.7419C54.6229 17.5782 54.6097 17.1499 54.6213 16.4571C54.656 15.7653 54.7161 15.2598 54.8016 14.9405C54.8928 14.5059 55.3742 13.4436 56.2457 11.7536C56.4638 11.5565 56.6047 11.2862 56.6682 10.9427L57.262 10.1749C57.7999 9.6009 58.3643 9.19 58.9551 8.94222C58.9575 8.89611 59.3556 8.80048 60.1496 8.65535C60.3123 8.64039 60.6787 8.71653 61.2487 8.88378C62.6173 9.27597 63.4625 9.72284 63.7844 10.2244L63.8796 10.4025C64.2868 11.047 64.4927 12.0166 64.4971 13.3113C64.3989 13.8842 64.3169 14.3655 64.251 14.7552C64.1852 15.1449 63.8954 15.8469 63.3818 16.8613C63.0032 17.4896 62.6425 17.9916 62.2997 18.3674C61.7734 18.7109 61.4179 18.878 61.2333 18.8687C61.1387 18.9102 60.9413 18.9234 60.6413 18.9084L59.845 18.8685C59.777 18.842 59.6275 18.8229 59.3967 18.8114C59.1659 18.7998 58.8342 18.7254 58.4014 18.5881C58.376 19.0954 58.478 19.8286 58.7075 20.7878C58.9612 21.7252 59.1752 22.3022 59.3494 22.519C59.8156 22.9122 60.1842 23.1733 60.4554 23.3025C60.7266 23.4317 61.0947 23.4732 61.5597 23.4272C62.026 23.3581 62.3687 23.2135 62.588 22.9933L63.5437 21.9317C64.16 21.1766 64.752 21.137 65.3197 21.8126C65.5816 22.1262 65.6704 22.4312 65.5861 22.7275C65.5261 23.0018 65.2669 23.5552 64.8087 24.3875C64.4347 24.9235 64.0423 25.3661 63.6314 25.7154C62.8974 26.0484 62.4611 26.2115 62.3227 26.2046C62.1138 26.2172 61.7924 26.1664 61.3585 26.0522C61.122 26.1559 60.7302 26.1248 60.1832 25.9587C60.1855 25.9125 60.118 25.8745 59.9807 25.8445C59.8653 25.8387 59.7055 25.796 59.5012 25.7165L59.5722 25.6853C59.5261 25.683 59.3876 25.6761 59.1568 25.6645L58.2135 25.0972L57.9711 25.085Z" fill="#6F23E7"/>
<path d="M67.9338 14.6624C67.9246 14.3845 67.9628 13.8548 68.0483 13.0732L68.3497 11.9094L69.1167 10.4569L69.7054 9.79294C69.7146 9.60849 70.3274 9.38493 71.5438 9.12226L71.5784 9.124C71.8334 9.11366 72.2246 9.15638 72.752 9.25215C73.3024 9.34907 73.8217 9.60624 74.3097 10.0237C74.799 10.418 75.1295 10.7466 75.3014 11.0095C75.7375 12.0022 75.9001 12.9118 75.7892 13.7384C75.7776 13.969 75.6483 14.2399 75.4013 14.5511C75.3759 14.5961 75.1993 14.6566 74.8716 14.7326C74.5438 14.8086 74.2778 14.8069 74.0736 14.7273C73.8705 14.6247 73.6351 14.4742 73.3674 14.2758C73.0997 14.0775 72.9873 13.7829 73.03 13.3921C72.8339 13.1511 72.8028 12.8491 72.9367 12.486C72.9967 12.2116 72.9725 12.0023 72.8641 11.8582L72.4573 11.6645C72.3165 11.7036 72.1676 11.9042 72.0106 12.2662C71.8767 12.6293 71.7965 13.076 71.7698 13.6064C71.7212 14.5748 71.9196 15.4631 72.3649 16.2713C72.5137 16.533 72.7756 16.8466 73.1506 17.2121L73.7355 18.0043L74.594 18.8794L75.2066 19.8116C75.3601 19.9811 75.5614 20.3495 75.8105 20.9167C76.084 21.4621 76.2097 21.9538 76.1877 22.3919C76.1668 22.8069 76.0133 23.3308 75.727 23.9637L75.3928 24.3977C75.3905 24.4438 75.2561 24.5873 74.9894 24.8282C74.2623 25.4853 73.4908 25.8742 72.6749 25.9952L72.4326 25.983C71.6894 26.0382 70.963 25.9903 70.2533 25.8391L69.194 25.5087C69.0786 25.5029 68.954 25.4504 68.8201 25.3513C68.6851 25.2751 68.5611 25.2111 68.448 25.1592C67.9345 24.7868 67.6253 24.4939 67.5203 24.2806C67.4084 24.2057 67.3438 23.8788 67.3266 23.3001C67.1824 22.9461 67.2408 22.4752 67.5016 21.8873C67.519 21.5414 67.5669 21.278 67.6454 21.097C68.1094 20.6117 68.6807 20.5248 69.3592 20.8362C69.5853 20.9399 69.6915 21.1302 69.6776 21.4069C69.6741 21.476 69.6966 21.7199 69.745 22.1384C69.8176 22.535 69.9376 22.9108 70.1048 23.2659C70.2721 23.621 70.5173 23.8067 70.8404 23.8229C71.1635 23.8391 71.5046 23.729 71.8635 23.4927C72.2686 22.7965 72.473 22.4138 72.4764 22.3446L72.57 21.8639C72.6335 21.5203 72.5476 21.1577 72.3122 20.7761C72.2569 20.4959 72.1092 20.2112 71.8692 19.9218L71.3881 19.1348L70.8932 18.6246C70.802 18.5969 70.5228 18.398 70.0555 18.0279C70.0359 17.9576 69.917 17.7898 69.699 17.5246C69.4809 17.2594 69.2773 16.9372 69.0881 16.5578C68.9 16.1555 68.652 15.7963 68.3439 15.4804C68.3289 15.3178 68.1922 15.0451 67.9338 14.6624Z" fill="#6F23E7"/>
<path d="M89.8243 19.0878C89.6696 19.4037 89.5882 19.6423 89.5801 19.8037C89.572 19.9651 89.5137 20.2049 89.4052 20.5231C89.2782 20.7478 89.2828 21.1179 89.4189 21.6333C89.398 22.0483 89.4216 22.5002 89.4896 22.989C89.5553 23.524 89.6741 23.9229 89.846 24.1858L90.2943 24.2429C90.2505 24.1945 90.3111 24.1397 90.4761 24.0786C90.7346 23.9991 90.8887 23.926 90.9383 23.8591C91.0122 23.7703 91.1934 23.6176 91.4819 23.4009C91.7935 23.1854 92.0249 22.9543 92.1762 22.7076C92.3066 22.4136 92.5311 22.0897 92.8497 21.7358C93.3322 20.8816 93.8067 19.4954 94.2732 17.5771C94.4833 17.0791 94.5947 16.7033 94.6074 16.4496C94.6444 16.1741 94.6018 15.8715 94.4795 15.5417L93.9464 15.099C93.5079 15.077 93.119 15.2193 92.7797 15.5259L92.0958 16.0117C91.8812 16.1397 91.7358 16.2711 91.6596 16.406C91.326 16.5973 90.9573 17.0295 90.5533 17.7028C90.5521 17.7258 90.5025 17.7927 90.4044 17.9033C90.3293 18.0151 90.2376 18.2301 90.129 18.5483C89.9571 18.7477 89.8555 18.9276 89.8243 19.0878ZM87.3967 12.8291C87.4222 12.3219 87.4903 11.8861 87.6012 11.5218C87.712 11.1575 87.7825 10.6756 87.8126 10.0761C87.8427 9.47666 87.9149 8.72904 88.0293 7.83328L88.0571 7.27991C88.0375 7.20958 88.071 7.00323 88.1576 6.66084C88.1231 5.96566 88.1595 5.47051 88.2669 5.17539L88.2842 4.82954C88.2589 4.4122 88.3207 4.10324 88.4696 3.90267C88.7385 3.61564 89.1205 3.38052 89.6156 3.19729C90.1338 3.01522 90.5435 2.92017 90.8447 2.91215L91.0178 2.92082C91.1078 2.97156 91.1868 3.0102 91.2549 3.03672C91.3472 3.04135 91.5399 3.12035 91.833 3.27373C92.1007 3.47206 92.2016 3.76606 92.1358 4.15571C92.1519 4.29521 92.1559 4.44566 92.1478 4.60706C92.1397 4.76846 91.9428 5.9259 91.557 8.07939C91.1724 10.2098 90.9264 11.6537 90.8189 12.4112L90.7114 13.862C90.8037 13.8666 90.8874 13.813 90.9624 13.7012C90.9901 13.6102 91.0986 13.5231 91.2879 13.4402C91.3387 13.3502 91.4229 13.2851 91.5406 13.2448C91.6826 13.1826 91.8257 13.0973 91.97 12.9889C92.6463 12.4218 93.5614 12.1672 94.7154 12.225C95.0847 12.2435 95.3922 12.3398 95.638 12.5139L96.1434 12.8166L97.265 13.2889C97.6227 13.538 97.8212 13.7328 97.8604 13.8735L98.1388 15.2397C98.1723 15.4956 98.171 15.981 98.1352 16.6958C98.1004 17.3875 98.0046 17.9143 97.8476 18.2763C97.836 18.5069 97.7505 18.8262 97.5912 19.2343C97.5797 19.4648 97.4734 19.9681 97.2725 20.7439C97.0716 21.5197 96.7928 22.2339 96.4361 22.8864C96.3149 22.9959 96.1885 23.2091 96.0569 23.5261C95.9495 23.8213 95.6535 24.1878 95.1687 24.6258C94.961 24.6154 94.7556 24.7901 94.5524 25.1497C94.31 25.3687 93.8582 25.6119 93.1969 25.8793C92.3014 26.2042 91.7498 26.3615 91.542 26.3511C91.3343 26.3407 91.126 26.3418 90.9172 26.3545C90.7302 26.3913 90.4752 26.4017 90.1521 26.3855C89.852 26.3704 89.5849 26.3917 89.3506 26.4493C89.1152 26.53 88.7372 26.4533 88.2168 26.2192C88.1511 26.1465 87.8234 25.9914 87.2337 25.7538C86.6671 25.5174 86.3712 25.1905 86.3459 24.7732C86.1716 24.5564 86.0811 24.2861 86.0742 23.9621C86.0685 23.6151 86.0472 23.3482 86.0103 23.1614C85.9965 22.9758 86.0023 22.6294 86.0278 22.1221C86.0232 21.7521 86.1301 20.775 86.3485 19.191C86.4652 18.2491 86.6523 17.0565 86.9099 15.6132C86.9965 15.2708 87.1588 14.3428 87.3967 12.8291Z" fill="#6F23E7"/>
<path d="M108.169 16.4011L108.012 16.0811C107.735 16.0672 107.187 16.6061 106.369 17.6978C105.407 18.8747 104.712 20.0534 104.282 21.2338C103.993 21.9359 103.813 22.5163 103.744 22.9752C103.71 23.6438 103.827 24.0888 104.093 24.3102C104.209 24.316 104.34 24.2417 104.486 24.0872C104.656 23.9339 104.754 23.8232 104.781 23.7552C104.947 23.6711 105.168 23.4163 105.444 22.991C105.766 22.5679 105.939 22.3455 105.963 22.3236L106.308 21.682L106.947 20.7086C106.9 20.7062 106.983 20.4446 107.194 19.9235C107.495 19.4532 107.664 19.0918 107.7 18.8393L108.169 16.4011ZM100.444 24.4048C100.425 23.4098 100.475 22.6495 100.594 22.1239C101.222 20.2137 101.711 18.7588 102.062 17.7593C102.063 17.7363 102.159 17.4521 102.348 16.9068C102.642 16.1126 102.9 15.5938 103.12 15.3506C103.124 15.2814 103.225 15.1016 103.425 14.8111C103.435 14.6036 103.707 14.2589 104.24 13.7771L104.642 13.3812C105.076 13.0331 105.674 12.8781 106.435 12.9163C106.715 12.884 107.037 12.9118 107.403 12.9994C108.057 13.3327 108.796 13.8205 109.62 14.4628L109.956 14.6876C110.138 14.743 110.308 14.8093 110.467 14.8866C110.559 14.8912 110.753 14.9471 111.048 15.0544L111.481 15.4228C111.682 15.5716 111.799 15.7739 111.832 16.0298C111.687 16.1612 111.595 16.6074 111.557 17.3683C111.415 18.3551 111.425 19.523 111.589 20.8718C111.619 22.1215 111.772 23.4468 112.049 24.8475C112.043 24.9628 112.108 25.2781 112.244 25.7935C112.403 26.31 112.468 26.6369 112.438 26.774C112.409 27.3505 111.852 27.6115 110.768 27.5571C109.709 27.4348 108.994 26.9366 108.621 26.0627C108.603 25.9693 108.531 25.7808 108.407 25.4972C108.144 25.2066 108.005 24.9685 107.991 24.7829L107.946 24.2953C107.858 24.2215 107.805 24.1263 107.787 24.0099C107.491 24.388 107.124 24.7741 106.688 25.1684L105.904 26.2733L105.613 26.5361C105.585 26.6271 105.338 26.7187 104.87 26.8109C104.402 26.9261 104.066 26.9324 103.863 26.8298C103.747 26.824 103.587 26.7928 103.382 26.7363L101.89 26.0374C101.548 25.9279 101.302 25.7537 101.152 25.5151C100.861 25.3156 100.717 25.2043 100.718 25.1813C100.507 24.7777 100.416 24.5189 100.444 24.4048Z" fill="#6F23E7"/>
<path d="M122.712 18.482L122.668 17.9597C122.604 17.864 122.563 17.7464 122.547 17.6069C122.555 17.4455 122.533 17.2017 122.48 16.8754C122.501 16.4604 122.415 16.0863 122.224 15.7531C122.164 15.5651 121.89 15.4936 121.402 15.5385C121.062 15.8451 120.636 16.7368 120.122 18.2135C120.121 18.2366 120.082 18.3271 120.004 18.485C119.902 18.6879 119.792 19.0291 119.675 19.5087C119.56 19.9652 119.489 20.2275 119.462 20.2955C119.409 20.4315 119.38 20.5572 119.374 20.6725C119.323 20.7624 119.292 20.9111 119.282 21.1186L119.111 21.7688C119.011 21.9025 118.98 22.0743 119.015 22.2841L118.991 22.7683C119.011 22.8386 118.989 23.034 118.927 23.3545L118.903 23.8387L118.913 25.0181C118.899 25.2948 119.107 25.756 119.537 26.4016C119.72 26.457 119.836 26.4513 119.885 26.3844C120.37 25.9464 120.648 25.4864 120.718 25.0046L120.845 24.5602C120.966 24.4506 121.075 24.1094 121.174 23.5365L121.376 22.9572C121.387 22.7497 121.444 22.5329 121.548 22.307C121.652 22.081 121.718 21.911 121.747 21.7969C121.756 21.6124 121.929 21.1588 122.266 20.436C122.247 20.3657 122.239 20.2959 122.242 20.2268L122.254 19.9847C122.558 19.0059 122.71 18.505 122.712 18.482ZM127.669 7.53113C127.629 8.33813 127.558 8.83154 127.456 9.01137L127.101 11.2473L127.042 12.4232C126.999 12.814 126.958 13.4014 126.919 14.1853C126.879 14.9693 126.858 15.627 126.854 16.1585C126.875 16.668 126.83 17.0934 126.721 17.4346C126.765 17.4831 126.784 17.5649 126.778 17.6802L126.798 17.9586L126.724 18.7524L126.651 20.205C126.661 20.4598 126.651 20.8984 126.62 21.521C126.639 22.0536 126.641 22.4813 126.625 22.8041C126.608 23.1269 126.627 23.4514 126.68 23.7777L126.657 24.2273L126.725 25.6523L126.666 26.8282C126.704 26.9919 126.719 27.1544 126.71 27.3158C126.704 27.4542 126.738 27.6986 126.812 28.0491C126.909 28.4238 126.939 28.7604 126.901 29.059C126.216 29.7875 125.388 29.9309 124.415 29.4892C124.208 29.4557 123.995 29.3295 123.774 29.1104C123.577 28.8925 123.461 28.6786 123.425 28.4688L123.425 27.7753C123.311 27.7465 123.251 27.547 123.247 27.1769C123.161 27.034 123.133 26.917 123.16 26.8259C123.235 26.7141 123.187 26.5152 123.017 26.2293L122.603 26.8673C122.478 27.046 122.346 27.1549 122.205 27.1941L122.045 27.6022C121.705 27.9318 121.448 28.2079 121.275 28.4304L120.839 28.8246C120.279 28.9121 119.52 28.8278 118.561 28.5718C118.33 28.5602 118.147 28.5279 118.01 28.4748L117.768 28.4627C117.72 28.5065 117.471 28.39 117.022 28.1133C116.638 27.9322 116.438 27.7719 116.421 27.6324L116.627 27.6774C116.311 27.5229 116.207 27.2981 116.314 27.0029C116.043 26.8738 115.883 26.6115 115.833 26.216L115.581 25.0245C115.549 24.7225 115.577 24.4002 115.664 24.0578C115.622 23.9633 115.696 23.6549 115.884 23.1327L115.796 22.8162L115.758 22.1902C115.693 22.0945 115.715 21.8876 115.823 21.5694L115.633 21.2132C115.679 20.2909 115.742 19.7277 115.822 19.5237L115.879 19.0758C115.773 18.8855 115.827 18.4953 116.042 17.9051L116.607 16.3384C116.609 16.2923 116.654 16.0865 116.742 15.7211C116.886 15.1504 117.043 14.7885 117.213 14.6352L117.888 13.6288C118.009 13.5193 118.145 13.3528 118.295 13.1291C118.547 12.7257 119.042 12.5424 119.78 12.5794C120.548 12.5023 121.766 12.6558 123.436 13.04L123.497 11.8295L123.466 10.3717C123.501 9.67999 123.509 9.04477 123.492 8.46603C123.498 7.88845 123.533 7.42788 123.596 7.08434C123.62 7.06244 123.759 6.59555 124.014 5.68368C124.268 4.7718 124.648 4.09744 125.156 3.66058C125.322 3.57645 125.614 3.53326 126.03 3.53102C126.47 3.52994 126.734 3.56629 126.823 3.64009C126.912 3.71389 127.036 3.77789 127.195 3.8321C127.832 4.04894 128.126 4.65308 128.076 5.64454L127.669 7.53113Z" fill="#6F23E7"/>
<path d="M137.501 18.0788C137.503 17.5704 137.407 17.1842 137.212 16.9202C137.018 16.6331 136.646 16.4526 136.094 16.3787C135.927 16.4859 135.688 16.8669 135.377 17.5217C135.091 18.1546 134.895 18.8382 134.788 19.5725C134.502 20.6677 134.331 21.7687 134.275 22.8754C134.242 24.0064 134.385 24.8457 134.704 25.3933C134.746 25.4879 134.79 25.5248 134.838 25.504C134.953 25.5098 135.149 25.2885 135.426 24.8401C136.761 22.6879 137.452 20.4341 137.501 18.0788ZM138.243 24.7385L137.656 26.0613C137.653 26.1074 137.294 26.5864 136.577 27.4982C136.347 27.9258 135.943 28.1483 135.363 28.1655C134.807 28.1838 134.268 28.099 133.745 27.911C133.042 27.6215 132.515 27.2946 132.163 26.9303C131.811 26.5659 131.471 25.971 131.142 25.1455C130.838 24.2981 130.687 23.6086 130.691 23.0772C130.613 22.3105 130.58 21.8234 130.59 21.6159L130.632 20.7858C130.674 19.9558 130.733 19.4733 130.809 19.3385C130.837 19.2474 130.906 19.0082 131.018 18.6208C131.182 17.6582 131.506 16.7498 131.988 15.8956C132.927 14.2552 133.847 13.4345 134.75 13.4335L134.923 13.4422C134.968 13.4676 135.036 13.4826 135.129 13.4872L135.579 13.5098C136.383 13.6194 136.876 13.7134 137.057 13.7919C137.398 13.9014 137.696 13.9626 137.95 13.9753L138.841 14.1933C139.12 14.1842 139.474 14.2597 139.906 14.42C140.361 14.5815 140.598 14.6974 140.617 14.7677C140.66 14.8392 140.717 15.0963 140.787 15.539C140.857 15.9817 140.899 16.3074 140.911 16.5161C140.948 16.7029 140.973 16.9006 140.986 17.1093C141.086 18.8017 141.307 20.3846 141.65 21.858C141.669 21.9283 141.687 22.0332 141.703 22.1727C141.719 22.3122 141.786 22.593 141.904 23.0149C142.023 23.4138 142.11 23.7534 142.165 24.0335C142.22 24.3137 142.329 24.689 142.49 25.1593C142.612 25.5121 142.799 25.926 143.053 26.4011C143.525 27.1413 143.231 27.6813 142.173 28.0213C142.032 28.0605 141.789 28.0714 141.443 28.054C141.373 28.0506 141.16 27.9243 140.802 27.6752C140.571 27.6636 140.359 27.5258 140.164 27.2618L139.89 27.1788C139.737 27.0093 139.602 26.9216 139.487 26.9158C139.443 26.8674 139.074 25.9128 138.381 24.052C138.299 24.3021 138.253 24.531 138.243 24.7385Z" fill="#6F23E7"/>
<path d="M145.76 18.562C145.751 18.2842 145.789 17.7544 145.875 16.9728L146.176 15.8091L146.943 14.3566L147.532 13.6926C147.541 13.5082 148.154 13.2846 149.37 13.0219L149.405 13.0237C149.66 13.0133 150.051 13.056 150.578 13.1518C151.129 13.2487 151.648 13.5059 152.136 13.9233C152.625 14.3177 152.956 14.6463 153.128 14.9092C153.564 15.9019 153.726 16.8115 153.615 17.6381C153.604 17.8686 153.475 18.1395 153.228 18.4508C153.202 18.4957 153.026 18.5562 152.698 18.6323C152.37 18.7083 152.104 18.7065 151.9 18.627C151.697 18.5243 151.461 18.3738 151.194 18.1755C150.926 17.9772 150.813 17.6826 150.856 17.2918C150.66 17.0508 150.629 16.7488 150.763 16.3856C150.823 16.1113 150.799 15.902 150.69 15.7579L150.284 15.5641C150.143 15.6033 149.994 15.8039 149.837 16.1659C149.703 16.529 149.623 16.9757 149.596 17.506C149.547 18.4744 149.746 19.3627 150.191 20.171C150.34 20.4327 150.602 20.7463 150.977 21.1118L151.562 21.9039L152.42 22.7791L153.033 23.7113C153.186 23.8808 153.388 24.2491 153.637 24.8164C153.91 25.3617 154.036 25.8534 154.014 26.2915C153.993 26.7065 153.839 27.2305 153.553 27.8634L153.219 28.2974C153.217 28.3435 153.082 28.487 152.816 28.7279C152.089 29.3849 151.317 29.7739 150.501 29.8948L150.259 29.8827C149.516 29.9379 148.789 29.8899 148.08 29.7388L147.02 29.4083C146.905 29.4026 146.78 29.3501 146.646 29.2509C146.511 29.1748 146.387 29.1108 146.274 29.0589C145.761 28.6865 145.452 28.3936 145.347 28.1803C145.235 28.1053 145.17 27.7785 145.153 27.1997C145.009 26.8458 145.067 26.3749 145.328 25.7869C145.345 25.4411 145.393 25.1777 145.472 24.9967C145.936 24.5114 146.507 24.4244 147.185 24.7358C147.412 24.8396 147.518 25.0299 147.504 25.3065C147.5 25.3757 147.523 25.6195 147.571 26.038C147.644 26.4346 147.764 26.8105 147.931 27.1656C148.098 27.5207 148.344 27.7064 148.667 27.7225C148.99 27.7387 149.331 27.6287 149.69 27.3924C150.095 26.6961 150.299 26.3134 150.303 26.2443L150.396 25.7635C150.46 25.42 150.374 25.0574 150.138 24.6758C150.083 24.3956 149.935 24.1108 149.695 23.8214L149.214 23.0345L148.719 22.5243C148.628 22.4966 148.349 22.2977 147.882 21.9276C147.862 21.8572 147.743 21.6895 147.525 21.4243C147.307 21.1591 147.103 20.8368 146.914 20.4575C146.726 20.0551 146.478 19.696 146.17 19.38C146.155 19.2175 146.018 18.9448 145.76 18.562Z" fill="#6F23E7"/>
<path d="M157.459 17.2759L157.438 16.9975C157.444 16.8822 157.522 16.7127 157.672 16.4891C157.797 16.3104 157.981 16.1001 158.224 15.858C158.468 15.6159 158.614 15.473 158.662 15.4292C158.973 15.2367 159.244 15.1232 159.478 15.0887C159.645 14.9815 159.997 14.8835 160.534 14.7948L160.914 14.8139C161.053 14.8209 161.156 14.8376 161.224 14.8641C161.292 14.8907 161.532 14.9489 161.944 15.0389C162.593 15.0252 163.235 15.1382 163.871 15.3781C164.027 15.5015 164.149 15.6001 164.238 15.6739C164.327 15.7477 164.448 15.8578 164.603 16.0043C164.782 16.1288 164.982 16.2891 165.203 16.4851C165.449 16.6592 165.771 16.9411 166.167 17.3309C166.96 18.1334 167.187 18.9191 166.847 19.688L166.503 20.3295C166.139 20.658 165.764 20.7548 165.378 20.6199L165.068 20.5697C164.821 20.4186 164.627 20.1315 164.486 19.7084C164.288 19.5135 164.156 19.3798 164.09 19.3071C163.476 18.6291 162.805 18.1794 162.075 17.958C161.682 17.9614 161.291 18.1498 160.902 18.5233C160.513 18.8967 160.499 19.4046 160.86 20.0468C160.849 20.2543 160.866 20.3822 160.91 20.4307C160.954 20.4791 161.049 20.6572 161.195 20.9651C161.477 21.349 161.692 21.6718 161.841 21.9336C161.94 22.2622 162.113 22.502 162.36 22.653L162.545 23.1131C162.613 23.1396 162.927 23.3518 163.485 23.7496C163.618 23.8718 163.748 24.0517 163.875 24.2892C163.875 24.2892 164.3 24.8075 165.15 25.844C165.282 25.9893 165.409 26.2153 165.532 26.522C165.796 26.8125 165.921 27.0731 165.91 27.3037C165.921 27.5354 165.862 27.7867 165.733 28.0576C165.72 28.3112 165.594 28.513 165.356 28.6628C165.14 28.8138 164.971 28.944 164.85 29.0535C164.753 29.1411 164.36 29.3757 163.669 29.7572C163.617 29.8702 163.073 30.1087 162.037 30.4729L160.985 30.6975C160.961 30.6963 160.857 30.7027 160.671 30.7165C160.484 30.7533 160.183 30.7614 159.768 30.7405L159.491 30.7267C159.373 30.767 159.106 30.7768 158.691 30.7559C157.954 30.6959 157.316 30.4906 156.778 30.14C156.665 30.0881 156.599 30.027 156.579 29.9567C156.155 29.1957 155.94 28.8729 155.934 28.9882C155.847 28.8683 155.79 28.6342 155.761 28.286C155.755 27.939 155.742 27.7304 155.723 27.66C155.704 27.5667 155.745 27.4416 155.846 27.2848C156.072 26.9263 156.489 26.9241 157.096 27.2781L157.533 27.5427C157.731 27.7606 157.978 27.9002 158.276 27.9613C158.439 27.9464 158.635 27.9562 158.864 27.9908C159.094 28.0254 159.313 28.0364 159.522 28.0238L160.159 27.7783L160.125 27.7766C160.149 27.7547 160.219 27.7466 160.334 27.7524C160.451 27.7351 160.626 27.6977 160.86 27.6401C161.54 27.4661 161.822 27.1566 161.705 26.7116L161.484 26.2844C161.256 25.7414 160.999 25.3471 160.71 25.1015L160.442 24.9147C159.564 23.9692 158.875 23.1719 158.375 22.5227C158.309 22.4731 158.165 22.3388 157.945 22.1197C157.747 21.9018 157.603 21.5479 157.512 21.0579C157.326 20.6094 157.226 20.3039 157.211 20.1413L157.244 19.4842C157.246 19.4381 157.242 19.2991 157.23 19.0674C157.219 18.8357 157.228 18.6397 157.26 18.4795C157.315 18.2973 157.322 18.159 157.28 18.0644C157.262 17.971 157.321 17.7082 157.459 17.2759Z" fill="#6F23E7"/>
<path d="M4.20186 53.2683L4.09432 54.7192L4.03875 55.8259L4.04201 57.1436C3.99339 58.112 4.05554 59.1784 4.22845 60.3429L4.38592 60.6628C4.39866 60.4092 4.44427 60.1919 4.52277 60.0109C4.62435 59.831 4.68151 59.6143 4.69424 59.3607L5.26921 57.5865C5.27268 57.5174 5.3379 57.3704 5.46488 57.1456C5.56877 56.9196 5.72867 56.5 5.94456 55.8867C6.18469 55.2516 6.33941 54.7045 6.40872 54.2457C6.47919 53.7638 6.54213 53.4318 6.59755 53.2497C6.65297 53.0675 6.65417 52.8133 6.60113 52.487L6.84542 51.0777C6.86163 50.7549 6.91937 50.5267 7.01863 50.3929C7.99492 50.3032 8.63366 50.2543 8.93486 50.2462C8.92791 50.3846 8.99943 50.5731 9.14941 50.8118C9.14478 50.904 9.21514 51.1156 9.36049 51.4464L9.46771 52.0759C9.58999 52.4057 9.69189 53.8323 9.77343 56.356C9.75599 57.1641 9.91911 58.2934 10.2628 59.7437C10.3874 59.5651 10.4446 59.3483 10.4342 59.0936C10.5797 58.9621 10.6674 58.5967 10.6975 57.9972L11.0906 57.0808L11.9272 53.5514L12.1421 52.0366L12.4729 50.9783C12.5341 50.6809 12.6368 50.478 12.7811 50.3696C12.9496 50.2394 13.2064 50.1945 13.5514 50.2349L14.4169 50.2782C14.5727 50.4016 14.789 50.4702 15.066 50.4841L15.4762 50.6087C15.4392 50.8842 15.4005 51.1943 15.3601 51.539C15.3231 51.8146 15.199 52.444 14.9876 53.4274C14.5451 56.7106 14.2379 58.6831 14.0658 59.3449C14.0577 59.5063 14.0167 59.6313 13.9429 59.7201C13.9036 60.0417 13.7027 60.8176 13.3401 62.0476C13.3308 62.2321 13.0717 62.5543 12.5627 63.0142C12.3873 63.2828 12.1363 63.4436 11.8097 63.4965C11.6885 63.606 11.4658 63.6642 11.1415 63.6711C10.8161 63.701 10.4837 63.6381 10.1445 63.4825C9.80407 63.3498 9.61253 63.2478 9.56984 63.1763C9.34946 62.9572 9.06849 62.7929 8.72693 62.6833L8.21805 62.4498C7.95614 62.1361 7.80327 61.9551 7.75943 61.9067C7.67405 61.7637 7.61006 61.4253 7.56744 60.8916C7.52244 60.8662 7.48037 60.552 7.44123 59.9491C7.11334 60.9497 6.9465 61.5077 6.94071 61.623C6.80563 62.0091 6.71328 62.2357 6.66365 62.3025C6.63825 62.3475 6.61112 62.427 6.58225 62.5412C6.57762 62.6334 6.54991 62.7245 6.49912 62.8144C6.49218 62.9527 6.40388 63.0985 6.23421 63.2518C6.08763 63.4063 5.80431 63.5192 5.38425 63.5907C4.96303 63.6851 4.42007 63.6695 3.75539 63.5437L3.33822 63.5575C3.17667 63.5494 3.00473 63.5177 2.82241 63.4623C2.55471 63.264 2.37011 63.0236 2.2686 62.7411C2.01133 62.3352 1.7904 61.8965 1.60584 61.425C1.47431 61.2797 1.31282 60.8093 1.12138 60.0138C0.937976 59.5192 0.848008 59.2373 0.851481 59.1681L0.867109 58.8569C0.77942 58.76 0.689453 58.4781 0.597206 58.0112C0.52804 57.5454 0.522324 57.1984 0.580059 56.9702C0.515451 56.8745 0.492986 56.6306 0.512665 56.2387C0.478082 56.0058 0.473524 55.6357 0.498991 55.1285C0.472583 54.2719 0.419586 53.7145 0.340001 53.4562C0.378129 53.1576 0.306647 52.738 0.125555 52.1972C-0.00699037 51.1504 -0.0345921 50.5481 0.04275 50.3901C-0.0172282 50.2022 0.0549409 49.9169 0.259257 49.5342C0.265045 49.4189 0.569747 49.1105 1.17336 48.6091C1.47803 48.5319 1.71979 48.5556 1.89864 48.6801C2.07864 48.7816 2.28347 48.8497 2.5131 48.8843L3.70742 49.2909C4.36747 49.5089 4.60565 50.2951 4.42195 51.6497L4.21575 52.9916C4.2146 53.0147 4.21228 53.0608 4.20881 53.13L4.20186 53.2683Z" fill="#6F23E7"/>
<path d="M24.8526 51.4252C24.8122 51.3076 24.653 51.2534 24.3749 51.2626C24.1199 51.273 23.9167 51.4015 23.7655 51.6482C22.744 53.0995 22.1558 54.6765 22.0009 56.3792C22.7764 56.603 23.463 56.2907 24.0609 55.4423C24.8898 53.2185 25.1537 51.8795 24.8526 51.4252ZM21.463 65.0204L21.1202 64.9339L20.6599 64.4254C20.5214 64.4185 20.4204 64.3556 20.357 64.2369C20.1181 63.9244 19.6866 63.3018 19.0625 62.369L18.6387 60.4408C18.6572 60.0719 18.6042 59.7456 18.4796 59.462C18.3009 58.4129 18.1919 57.818 18.1527 57.6773C18.1147 57.5136 18.1015 57.0853 18.1131 56.3925C18.1478 55.7007 18.2079 55.1952 18.2934 54.8759C18.3846 54.4413 18.866 53.379 19.7375 51.689C19.9556 51.4919 20.0965 51.2216 20.16 50.8781L20.7538 50.1103C21.2917 49.5363 21.8561 49.1254 22.4469 48.8776C22.4493 48.8315 22.8474 48.7359 23.6414 48.5907C23.8041 48.5758 24.1705 48.6519 24.7405 48.8192C26.1091 49.2114 26.9543 49.6582 27.2762 50.1598L27.3714 50.3379C27.7786 50.9824 27.9845 51.952 27.9889 53.2467C27.8907 53.8196 27.8087 54.3009 27.7429 54.6906C27.677 55.0803 27.3873 55.7823 26.8736 56.7967C26.495 57.425 26.1343 57.927 25.7915 58.3028C25.2652 58.6463 24.9097 58.8134 24.7251 58.8041C24.6305 58.8456 24.4331 58.8588 24.1331 58.8438L23.3369 58.8039C23.2688 58.7774 23.1193 58.7583 22.8885 58.7468C22.6577 58.7352 22.326 58.6608 21.8933 58.5235C21.8678 59.0308 21.9698 59.764 22.1993 60.7232C22.453 61.6606 22.667 62.2376 22.8412 62.4544C23.3074 62.8476 23.676 63.1087 23.9472 63.2379C24.2184 63.3671 24.5865 63.4086 25.0515 63.3626C25.5178 63.2935 25.8605 63.1489 26.0798 62.9287L27.0355 61.8671C27.6518 61.112 28.2438 61.0724 28.8115 61.748C29.0734 62.0616 29.1622 62.3666 29.0779 62.6629C29.0179 62.9372 28.7587 63.4906 28.3005 64.3229C27.9265 64.8589 27.5341 65.3015 27.1232 65.6508C26.3892 65.9838 25.953 66.1469 25.8145 66.14C25.6056 66.1526 25.2842 66.1018 24.8503 65.9876C24.6138 66.0913 24.222 66.0602 23.675 65.8941C23.6773 65.8479 23.6098 65.8099 23.4725 65.7799C23.3571 65.7741 23.1973 65.7314 22.993 65.6519L23.064 65.6207C23.0179 65.6184 22.8794 65.6115 22.6486 65.5999L21.7053 65.0326L21.463 65.0204Z" fill="#6F23E7"/>
<path d="M40.1914 54.2048C40.2342 53.3517 40.1287 52.9188 39.8748 52.9061C39.7606 52.8773 39.6106 52.8697 39.4248 52.8835L38.9608 53.1377L38.9937 53.174C38.824 53.3273 38.6151 53.5711 38.367 53.9054L38.4016 53.9071C38.1488 54.3336 37.9607 54.6247 37.8372 54.7803C37.5913 55.0685 37.4655 55.2702 37.4597 55.3855C37.4539 55.5008 37.3991 55.6714 37.2952 55.8974C37.2144 56.1245 37.1364 56.2939 37.0614 56.4057C37.0095 56.5187 36.9004 56.8484 36.7341 57.3948C36.569 57.9182 36.4685 58.3061 36.4327 58.5586L36.2734 58.9667L35.8681 60.8187C35.7884 61.0228 35.7699 61.3917 35.8125 61.9255C35.8782 62.4604 35.9508 62.857 36.0304 63.1152C36.2623 63.566 36.5046 63.8093 36.7573 63.8451C36.9258 63.7149 37.0568 63.6405 37.1503 63.6221C37.1711 63.6694 37.2507 63.6965 37.3892 63.7034C37.5276 63.7104 37.6332 63.681 37.7059 63.6153L37.6713 63.6135C38.2311 63.0637 38.6351 62.6216 38.8832 62.2874C39.1314 61.9531 39.2971 61.4182 39.3803 60.6826L39.5241 59.8924C39.6568 59.5523 39.7348 59.1517 39.7579 58.6906L40.0543 56.2437C40.1987 55.673 40.2449 55.213 40.193 54.8637L40.2017 54.6908L40.1914 54.2048ZM34.8777 40.4509C35.2873 40.587 35.5065 40.8292 35.5353 41.1773C35.5617 42.0339 35.5414 42.6686 35.4744 43.0813L35.3894 44.776C35.357 44.9593 35.3378 46.0332 35.3317 47.9976C35.3499 49.9402 35.3843 51.56 35.4348 52.857L35.537 52.8968C35.8209 52.31 36.0004 51.9607 36.0755 51.8489C36.1736 51.7382 36.2619 51.5924 36.3404 51.4114C36.442 51.2316 36.611 51.0898 36.8476 50.9861C36.8499 50.94 36.9723 50.8074 37.2147 50.5884C37.4813 50.3475 37.6625 50.1948 37.7583 50.1302C37.8771 50.0669 37.9602 50.0248 38.0075 50.004C38.0791 49.9614 38.1737 49.9199 38.2914 49.8796C38.4322 49.8404 38.5147 49.8099 38.539 49.788C38.8667 49.7119 39.0652 49.6756 39.1345 49.6791L39.5915 49.5633C39.6376 49.5656 39.7069 49.5691 39.7992 49.5737C39.9157 49.5565 40.0507 49.6326 40.2042 49.8021C40.3173 49.854 40.4794 49.8505 40.6906 49.7918C41.106 49.8126 41.4822 49.9239 41.8191 50.1257C42.1561 50.3275 42.3874 50.5587 42.5132 50.8192C42.6631 51.0579 42.872 51.2764 43.1397 51.4747C43.1581 51.5681 43.2216 51.6869 43.33 51.831C43.4627 51.9532 43.5562 52.1659 43.6104 52.4692C43.7914 53.4722 43.8379 54.8499 43.7499 56.6022C43.7026 56.6229 43.6755 56.7025 43.6685 56.8408C43.6847 56.9803 43.6742 57.1878 43.6373 57.4634C43.6245 57.717 43.6141 57.9245 43.606 58.0859L43.4207 59.0128L43.3807 59.8083C43.3311 59.8751 43.2849 60.1039 43.2421 60.4948L42.6672 62.2689L42.113 63.6281C42.1096 63.6972 41.9826 63.922 41.7321 64.3024C41.4044 64.3785 41.1291 64.5612 40.9063 64.8505C40.2428 65.164 39.8152 65.3852 39.6236 65.5143C39.1146 65.9742 38.5139 66.1869 37.8215 66.1522C37.7292 66.1475 37.4038 66.1775 36.8452 66.2419C36.0074 66.3386 35.3191 66.2232 34.7802 65.8958C34.5033 65.8819 34.3267 65.7112 34.2506 65.3838C33.8006 65.1301 33.5519 65.0136 33.5046 65.0344C33.3638 65.0735 33.2271 65.032 33.0944 64.9098C32.9848 64.7887 32.9109 64.6463 32.8729 64.4826C32.6906 64.4273 32.5712 64.271 32.5147 64.0139C32.5113 63.6208 32.4363 63.2703 32.2898 62.9625C32.1433 62.6546 32.0891 62.3514 32.1272 62.0528C32.1884 61.7554 32.1816 61.4315 32.1066 61.081C32.0559 60.7086 32.0594 60.4083 32.1171 60.18C32.0202 59.8053 31.9597 59.3978 31.9356 58.9574L31.9408 58.8536C31.972 58.6934 32.002 58.5562 32.0308 58.4421L32.0586 57.8887C32.1279 57.4299 32.1545 57.1307 32.1384 56.9912C32.0761 56.8494 32.0525 56.6286 32.0675 56.3289C32.0237 56.2805 32.0035 56.2216 32.007 56.1525L31.9932 55.7357C31.7959 55.5178 31.8346 55.2077 32.1093 54.8054C32.2086 54.6717 32.2283 54.2797 32.1683 53.6295L31.8381 51.2205C31.8612 51.2217 31.8762 51.1531 31.8831 51.0147L31.9369 50.636C31.7558 49.633 31.6902 48.6358 31.74 47.6443C31.7204 47.574 31.7152 47.4466 31.7245 47.2621L31.754 46.6742C31.7287 46.2568 31.7524 45.7842 31.8252 45.2562C31.9211 44.7293 31.9604 44.1765 31.9432 43.5978C31.9317 42.9038 32.042 42.3199 32.274 41.8461C32.3364 41.5256 32.4403 41.2996 32.5857 41.1682C32.7323 41.0138 32.9712 40.8639 33.3024 40.7187C33.8483 40.4456 34.3734 40.3563 34.8777 40.4509Z" fill="#6F23E7"/>
<path d="M47.3167 53.5217L47.2959 53.2433C47.3017 53.128 47.3797 52.9585 47.5297 52.7349C47.6544 52.5562 47.8385 52.3459 48.082 52.1038C48.3255 51.8617 48.4715 51.7188 48.52 51.675C48.8304 51.4825 49.1022 51.369 49.3353 51.3345C49.5027 51.2273 49.8547 51.1293 50.3913 51.0406L50.7721 51.0597C50.9106 51.0667 51.0139 51.0834 51.0819 51.1099C51.15 51.1364 51.39 51.1947 51.802 51.2847C52.4506 51.271 53.0927 51.384 53.7285 51.6239C53.8843 51.7473 54.0066 51.8459 54.0955 51.9197C54.1843 51.9935 54.306 52.1036 54.4607 52.25C54.6395 52.3746 54.8397 52.5349 55.0612 52.7309C55.307 52.905 55.6283 53.1869 56.0253 53.5767C56.8179 54.3792 57.0446 55.1649 56.7052 55.9338L56.3606 56.5753C55.997 56.9038 55.622 57.0006 55.2354 56.8657L54.9256 56.8155C54.6786 56.6644 54.4848 56.3773 54.3441 55.9542C54.1456 55.7593 54.0135 55.6256 53.9478 55.5529C53.3339 54.8749 52.6624 54.4252 51.9331 54.2038C51.5396 54.2071 51.1484 54.3956 50.7594 54.769C50.3705 55.1425 50.3565 55.6503 50.7176 56.2926C50.7072 56.5001 50.7239 56.628 50.7678 56.6765C50.8116 56.7249 50.9068 56.903 51.0533 57.2109C51.3348 57.5948 51.55 57.9176 51.6988 58.1794C51.798 58.5079 51.9711 58.7478 52.218 58.8988L52.4031 59.3588C52.4712 59.3854 52.7845 59.5976 53.343 59.9954C53.4756 60.1176 53.6054 60.2975 53.7323 60.535C53.7323 60.535 54.1575 61.0533 55.0078 62.0898C55.1394 62.2351 55.2669 62.4611 55.3903 62.7678C55.6533 63.0583 55.7791 63.3189 55.7675 63.5495C55.779 63.7812 55.7201 64.0325 55.5908 64.3034C55.5781 64.557 55.4523 64.7588 55.2134 64.9086C54.9976 65.0596 54.8291 65.1898 54.7079 65.2993C54.6109 65.3869 54.2174 65.6215 53.5272 66.003C53.4753 66.1159 52.9311 66.3545 51.8948 66.7186L50.8423 66.9433C50.8192 66.9421 50.7148 66.9485 50.529 66.9623C50.3421 66.9991 50.0409 67.0071 49.6254 66.9863L49.3485 66.9725C49.2308 67.0128 48.9642 67.0225 48.5488 67.0017C47.8114 66.9417 47.1738 66.7364 46.6361 66.3858C46.523 66.3339 46.4567 66.2728 46.4371 66.2025C46.0125 65.4415 45.7974 65.1187 45.7916 65.234C45.705 65.114 45.6474 64.88 45.6186 64.5318C45.6129 64.1848 45.6002 63.9762 45.5806 63.9058C45.5621 63.8124 45.6031 63.6874 45.7036 63.5306C45.9298 63.1721 46.3464 63.1698 46.9533 63.5239L47.3912 63.7885C47.5885 64.0064 47.836 64.146 48.1338 64.2071C48.2965 64.1922 48.4926 64.202 48.7223 64.2366C48.9519 64.2712 49.1712 64.2822 49.3801 64.2696L50.0171 64.0241L49.9825 64.0224C50.0067 64.0005 50.0765 63.9924 50.1919 63.9982C50.3085 63.9809 50.4839 63.9435 50.7182 63.8859C51.3979 63.7119 51.6795 63.4024 51.563 62.9574L51.3415 62.5302C51.1143 61.9872 50.8564 61.5929 50.568 61.3473L50.2997 61.1604C49.4217 60.215 48.7328 59.4177 48.2333 58.7685C48.1663 58.7189 48.0227 58.5846 47.8023 58.3655C47.605 58.1476 47.4608 57.7936 47.3697 57.3037C47.184 56.8552 47.0837 56.5496 47.0687 56.3871L47.1017 55.73C47.104 55.6839 47.0994 55.5449 47.0879 55.3132C47.0764 55.0815 47.0862 54.8855 47.1174 54.7253C47.1728 54.5431 47.1798 54.4048 47.1383 54.3102C47.1198 54.2168 47.1793 53.954 47.3167 53.5217Z" fill="#6F23E7"/>
<path d="M64.2389 46.4989L64.3428 46.5041C65.1483 46.5907 65.6554 46.8589 65.8642 47.3085C66.0972 47.7363 66.1693 48.1444 66.0804 48.5329C66.0145 48.9225 65.6787 49.3911 65.0727 49.9386C64.4899 50.4873 63.9682 50.7385 63.5078 50.6924C63.3693 50.6854 63.0958 50.6024 62.6873 50.4432C62.3019 50.2852 62.0983 50.1941 62.0763 50.1699C62.0579 50.0765 61.9921 50.0039 61.879 49.952C61.2906 49.6913 60.9854 49.0866 60.9636 48.1378C60.9683 48.0456 61.041 47.9799 61.1818 47.9407C61.0895 47.9361 61.0849 47.7971 61.168 47.5239C61.355 47.0248 61.7295 46.7084 62.2916 46.5747C63.014 46.4722 63.6631 46.447 64.2389 46.4989ZM63.7304 55.2456L62.8519 60.9919C62.8449 61.1303 62.838 61.2686 62.831 61.407C62.8252 61.5222 62.8316 61.6266 62.85 61.72C62.8223 61.811 62.805 61.9257 62.798 62.0641L62.673 64.5543C62.726 65.3428 62.7028 65.804 62.6036 65.9377C62.4628 65.9769 62.2977 66.0379 62.1085 66.1209C61.9181 66.2269 61.5592 66.2321 61.0318 66.1363C60.5264 66.0647 60.1611 65.9655 59.9361 65.8387L59.5259 65.7141C59.2951 65.7026 59.1503 65.5913 59.0915 65.3803C58.8007 65.1808 58.6513 64.9306 58.6433 64.6297C58.5798 64.511 58.6687 64.3536 58.9099 64.1577C58.8926 64.0412 58.8546 63.8775 58.7957 63.6665C58.7381 63.4325 58.7254 63.2238 58.7578 63.0405C58.8328 62.9287 58.8069 62.754 58.68 62.5165C58.6927 62.2629 58.7418 61.9764 58.8272 61.6571C58.9242 61.5695 58.964 61.2363 58.9468 60.6576C59.1199 60.4351 59.2169 60.1163 59.2378 59.7013C59.164 59.3278 59.2171 58.9606 59.3972 58.5998C59.5773 58.239 59.6881 57.8747 59.7297 57.5069C59.8048 56.9328 59.937 56.3731 60.1264 55.8278C60.1379 55.5973 60.2603 55.2336 60.4935 54.7367C60.7498 54.241 60.9148 53.9488 60.9887 53.86L61.5704 53.3344L62.2057 53.1235L62.2403 53.1253C62.5219 53.0469 62.7983 53.0723 63.0695 53.2015C63.726 53.4887 64.1201 53.7049 64.2516 53.8502C64.1547 53.9378 64.09 54.0732 64.0577 54.2565C64.0254 54.4398 63.9942 54.6001 63.9641 54.7373C63.866 54.8479 63.7881 55.0174 63.7304 55.2456Z" fill="#6F23E7"/>
<path d="M69.7344 54.1596L69.7846 53.85C69.3023 53.7796 68.9578 53.7277 68.7512 53.6942C68.5689 53.6389 68.2597 53.5771 67.8235 53.5091C67.3873 53.441 67.0445 53.3545 66.7953 53.2495C66.3187 53.0638 66.0626 52.6349 66.0269 51.9628C65.9924 51.2676 66.2331 50.852 66.749 50.7161C67.2163 50.6239 67.5423 50.5825 67.727 50.5917C67.9116 50.601 68.259 50.5953 68.769 50.5746C69.0299 50.449 69.3801 50.3856 69.8198 50.3845L70.346 50.2722C70.3449 50.2953 70.4383 50.2768 70.6264 50.2169L70.836 49.4993C70.8545 49.1304 70.9769 48.7667 71.2031 48.4082C71.2113 48.2468 71.3838 47.8047 71.7209 47.0819C71.7256 46.9897 71.9668 46.3314 72.4448 45.1071C72.5429 44.9965 72.9024 44.7487 73.5233 44.3637C73.9018 44.1978 74.4148 44.3506 75.0621 44.8222C75.4233 45.0021 75.6661 45.2339 75.7907 45.5175C75.6453 45.6489 75.5598 45.9682 75.5344 46.4755C75.5032 46.6357 75.2988 47.4808 74.9212 49.0105L74.8726 49.9789C75.0561 50.0112 75.3532 50.0839 75.764 50.197C76.1979 50.3112 76.712 50.4409 77.3063 50.5863C78.4487 50.8747 79.1525 51.3723 79.4178 52.079C79.5078 52.592 79.4668 52.9483 79.2948 53.1477C79.1228 53.3471 78.7229 53.4773 78.0951 53.5383C77.5862 53.5359 76.9163 53.5139 76.0855 53.4723C75.2777 53.4318 74.6747 53.4594 74.2766 53.555C74.2096 53.9677 74.1703 54.2894 74.1587 54.52L74.0981 55.037C74.09 55.1984 73.9433 56.0463 73.658 57.5807C73.5091 57.7813 73.3399 58.8477 73.1503 60.7798L73.0236 63.3046C73.0027 63.7196 73.0177 64.1133 73.0684 64.4857C73.066 64.9941 73.1057 65.3544 73.1876 65.5665C73.1772 65.774 73.2129 66.215 73.2948 66.8895C72.9842 67.5442 72.5059 67.8554 71.8596 67.823C71.2365 67.7918 70.6941 67.5335 70.2326 67.0481L69.8796 66.4756C69.8196 66.2877 69.7683 66.158 69.7256 66.0865C69.706 66.0162 69.6869 65.9343 69.6685 65.8409C69.5301 65.3717 69.4176 65.0771 69.3311 64.9572C69.2019 64.7658 69.1396 64.624 69.1442 64.5318C69.1488 64.4395 69.1546 64.3243 69.1616 64.1859C69.1351 63.7916 69.0942 63.4544 69.0388 63.1743C68.9292 63.0532 68.8912 62.6583 68.9248 61.9897C69.0323 60.77 69.0676 60.0667 69.0307 59.88C69.1034 59.8143 69.1369 59.3768 69.1313 58.5674L69.2734 57.8118C69.278 57.7195 69.3415 57.376 69.4639 56.7811C69.4224 56.6866 69.423 56.4439 69.4658 56.0531C69.5097 55.6392 69.5588 55.3528 69.613 55.1937C69.6731 54.9193 69.7135 54.5746 69.7344 54.1596Z" fill="#6F23E7"/>
<path d="M86.3509 56.1364C86.4606 55.7951 86.4711 55.3565 86.3823 54.8204C86.2277 54.674 86.0119 54.5938 85.735 54.5799C85.3888 54.5626 85.061 54.8698 84.7516 55.5015C84.3546 56.0363 84.0469 56.6335 83.8287 57.2929L83.7941 57.2911C83.4916 58.2468 83.3386 58.7592 83.3352 58.8284C83.6998 58.9391 83.9975 59.0003 84.2283 59.0119C84.4603 59.0004 84.732 58.8869 85.0437 58.6713C85.6 58.1907 86.0357 57.3457 86.3509 56.1364ZM85.997 61.1115L84.7109 61.1511C83.9955 61.1152 83.4335 61.0177 83.025 60.8586L83.0959 61.5209C83.069 63.4381 83.5368 64.7213 84.4991 65.3705C84.7703 65.4997 84.9982 65.5689 85.1828 65.5781C85.3674 65.5874 85.6144 65.5073 85.9237 65.3379C86.0206 65.2503 86.1078 65.1275 86.1851 64.9696C86.2186 64.7632 86.3387 64.6768 86.5452 64.7102C87.5517 63.5587 88.2909 63.1219 88.7628 63.3998C89.2313 63.7469 89.4609 64.0126 89.4516 64.1971C89.447 64.2893 89.3841 64.3902 89.2629 64.4997L89.2525 64.7072C89.2409 64.9378 89.07 65.3453 88.7399 65.9297C88.4329 66.5153 88.1074 67.0076 87.7634 67.4064C87.5845 67.7442 87.3646 67.9759 87.1038 68.1015C86.3421 68.5256 85.5481 68.6707 84.7219 68.5369C84.5384 68.5046 84.4138 68.4521 84.348 68.3795C84.1657 68.3241 84.0278 68.3056 83.9343 68.3241L83.6591 68.2756C83.4514 68.2652 83.2806 68.2104 83.1468 68.1112C82.9229 67.9613 82.7648 67.8841 82.6725 67.8794C82.084 67.6188 81.7234 67.4274 81.5907 67.3051C81.4811 67.1841 81.3813 67.0982 81.2913 67.0474C81.2013 66.9967 80.9942 66.7436 80.67 66.2882C80.3827 66.0195 80.2177 65.8494 80.175 65.778C80.047 65.5635 79.9275 65.4073 79.8168 65.3093C79.7291 65.2124 79.6818 65.002 79.6749 64.678C79.5884 64.5581 79.5498 64.406 79.559 64.2215L79.4344 63.9379C79.4425 63.7765 79.3797 63.6462 79.2458 63.547C79.1143 63.4017 79.0537 63.2253 79.0641 63.0178L79.078 62.7411C78.988 62.6904 78.9719 62.5509 79.0296 62.3226L79.0748 61.4234L79.0558 61.1104L79.0679 60.8683C79.0495 60.7749 79.0824 60.5801 79.1667 60.2838L79.1477 59.9708C79.1719 59.9489 79.2158 59.7662 79.2793 59.4227C79.396 58.9431 79.5149 58.6485 79.6361 58.539L79.6517 58.2278C79.6783 58.1598 79.6944 58.0681 79.7002 57.9528C79.706 57.8375 79.7354 57.7119 79.7886 57.5759C79.8647 57.441 80.0754 56.9315 80.4206 56.0473L81.0353 54.8645C81.2142 54.5268 81.4872 54.159 81.8542 53.7614C81.8831 53.6472 81.9858 53.4443 82.1624 53.1527L82.6333 52.7602C82.7822 52.5596 82.9975 52.4202 83.279 52.3418C83.6103 52.1966 83.8566 52.1281 84.0182 52.1362L84.9945 52.0464C85.1087 52.0752 85.1889 52.0908 85.2351 52.0931L85.6851 52.1157C86.1906 52.1872 86.6008 52.3118 86.9158 52.4894C87.5978 52.7316 88.0922 53.0222 88.3991 53.3612C89.0741 54.204 89.393 54.9944 89.356 55.7322C89.319 56.47 89.1717 57.0983 88.9143 57.6171C88.2713 58.9024 87.8142 59.7116 87.543 60.0448C87.0894 60.7848 86.574 61.1404 85.997 61.1115Z" fill="#6F23E7"/>
<path d="M92.483 57.6572C92.4738 57.3793 92.512 56.8496 92.5975 56.068L92.8989 54.9042L93.6659 53.4517L94.2546 52.7878C94.2638 52.6033 94.8766 52.3797 96.093 52.1171L96.1276 52.1188C96.3826 52.1085 96.7738 52.1512 97.3012 52.247C97.8516 52.3439 98.3709 52.6011 98.859 53.0185C99.3482 53.4128 99.6788 53.7415 99.8507 54.0043C100.287 54.997 100.449 55.9066 100.338 56.7332C100.327 56.9638 100.198 57.2347 99.9505 57.5459C99.9251 57.5909 99.7485 57.6514 99.4208 57.7274C99.0931 57.8035 98.8271 57.8017 98.6228 57.7221C98.4197 57.6195 98.1843 57.469 97.9166 57.2707C97.6489 57.0723 97.5365 56.7778 97.5792 56.3869C97.3831 56.146 97.352 55.8439 97.4859 55.4808C97.5459 55.2064 97.5218 54.9972 97.4133 54.853L97.0065 54.6593C96.8658 54.6985 96.7169 54.899 96.5599 55.261C96.4259 55.6241 96.3457 56.0709 96.319 56.6012C96.2704 57.5696 96.4688 58.4579 96.9141 59.2661C97.0629 59.5278 97.3248 59.8415 97.6998 60.207L98.2848 60.9991L99.1432 61.8742L99.7558 62.8064C99.9093 62.9759 100.111 63.3443 100.36 63.9115C100.633 64.4569 100.759 64.9486 100.737 65.3867C100.716 65.8017 100.562 66.3257 100.276 66.9585L99.942 67.3925C99.9397 67.4386 99.8053 67.5822 99.5387 67.8231C98.8115 68.4801 98.04 68.8691 97.2241 68.99L96.9818 68.9778C96.2386 69.0331 95.5122 68.9851 94.8025 68.834L93.7432 68.5035C93.6278 68.4977 93.5032 68.4452 93.3693 68.3461C93.2343 68.27 93.1103 68.206 92.9972 68.1541C92.4837 67.7816 92.1745 67.4887 92.0695 67.2754C91.9576 67.2005 91.893 66.8736 91.8758 66.2949C91.7316 65.941 91.79 65.47 92.0509 64.8821C92.0682 64.5362 92.1162 64.2728 92.1947 64.0918C92.6586 63.6066 93.2299 63.5196 93.9084 63.831C94.1345 63.9348 94.2407 64.125 94.2268 64.4017C94.2233 64.4709 94.2458 64.7147 94.2942 65.1332C94.3668 65.5298 94.4868 65.9056 94.6541 66.2608C94.8213 66.6159 95.0665 66.8015 95.3896 66.8177C95.7127 66.8339 96.0538 66.7238 96.4127 66.4876C96.8179 65.7913 97.0222 65.4086 97.0257 65.3394L97.1192 64.8587C97.1827 64.5151 97.0968 64.1525 96.8615 63.7709C96.8061 63.4908 96.6584 63.206 96.4184 62.9166L95.9374 62.1297L95.4424 61.6195C95.3512 61.5918 95.072 61.3929 94.6047 61.0227C94.5851 60.9524 94.4662 60.7846 94.2482 60.5194C94.0301 60.2542 93.8265 59.932 93.6373 59.5527C93.4492 59.1503 93.2012 58.7911 92.8931 58.4752C92.8781 58.3126 92.7414 58.04 92.483 57.6572Z" fill="#6F23E7"/>
<path d="M141.35 63.3872C141.3 63.1261 140.788 62.2409 140.211 61.4113C139.634 60.5853 139.209 60.1231 139.261 60.3877C142.934 78.3793 135.563 92.4042 131.494 102.172C126.65 113.8 120.9 123.597 107.918 132.481C108.012 132.162 108.098 131.845 108.183 131.521C108.897 128.674 109.05 125.688 108.609 122.732C108.453 121.705 107.489 120.998 106.463 121.155C105.436 121.312 104.729 122.276 104.886 123.302C105.258 125.758 105.128 128.246 104.539 130.605C103.946 132.961 102.888 135.209 101.397 137.203C100.318 138.645 101.59 140.627 103.572 140.096C105.911 139.401 108.347 139.179 110.735 139.42C113.158 139.664 115.541 140.387 117.727 141.568C118.641 142.059 119.785 141.718 120.276 140.801C120.767 139.887 120.426 138.743 119.509 138.252C116.881 136.831 114.021 135.965 111.105 135.674C110.744 135.638 110.382 135.612 110.022 135.591C122.445 125.99 128.284 119.33 134.165 105.313C140.975 89.0834 145.037 81.4317 141.354 63.3865L141.35 63.3872Z" fill="#6F23E7"/>
</svg>
