<svg width="101" height="62" viewBox="0 0 101 62" fill="none" xmlns="http://www.w3.org/2000/svg">
<path d="M65.3339 61.7352L64.1528 60.9475C70.2772 57.1852 73.7333 51.5864 74.52 44.1496C62.8422 40.6936 57.0015 33.7171 57.0015 23.2185C57.0015 16.7443 59.1451 11.2856 63.4322 6.84704C67.7194 2.40582 72.9683 0.186523 79.1806 0.186523C85.4799 0.186523 90.6644 2.41714 94.7322 6.87924C98.8001 11.3413 100.834 17.0489 100.834 24.0062C100.834 32.7554 97.4563 40.8041 90.6966 48.153C83.9368 55.502 75.4826 60.0293 65.3339 61.7352ZM9.16637 61.7352L7.98536 60.9475C14.1098 57.1852 17.5658 51.5864 18.3525 44.1496C6.67466 40.6936 0.833984 33.7171 0.833984 23.2185C0.833984 16.7443 2.97757 11.2856 7.26474 6.84704C11.5519 2.40582 16.8008 0.186523 23.0131 0.186523C29.3124 0.186523 34.4969 2.41714 38.5647 6.87924C42.6326 11.3413 44.6665 17.0489 44.6665 24.0062C44.6665 32.7554 41.2888 40.8041 34.5291 48.153C27.7693 55.502 19.3151 60.0293 9.16637 61.7352Z" fill="#564297"/>
</svg>
