<svg width="294" height="139" viewBox="0 0 294 139" fill="none" xmlns="http://www.w3.org/2000/svg">
<path d="M14.874 8.24993C14.8783 8.74944 14.9375 9.91253 15.0515 11.7392C15.2121 14.978 15.3041 16.9504 15.3274 17.6565L15.6632 19.7439L15.9112 21.8269C16.6204 20.5702 16.9655 19.8386 16.9465 19.632C16.9567 19.427 17.244 18.6777 17.8081 17.3844C18.5744 16.1599 19.0844 15.0694 19.3379 14.1129C19.376 13.9386 19.5585 13.5219 19.8852 12.8628C19.8018 12.7705 19.889 12.4958 20.1468 12.0388C20.4062 11.5525 20.6084 11.034 20.7535 10.4833C20.9279 9.93398 21.0159 9.64468 21.0173 9.61539C21.0481 9.58756 21.0789 9.55973 21.1096 9.53191C21.2019 9.44842 21.3323 9.19063 21.5009 8.75853C21.6093 8.35279 21.6694 8.03273 21.6812 7.79836L21.7495 6.43607C21.7539 6.34818 21.8426 6.04424 22.0155 5.52425L22.0223 4.51132C22.0575 3.8082 22.44 2.91691 23.1697 1.83744L24.086 1.13446C24.0992 0.870791 24.3271 0.720681 24.7694 0.68413C25.2411 0.649047 25.6498 0.698915 25.9955 0.833734C26.3412 0.968553 26.5726 1.0389 26.6898 1.04478C26.8011 1.16784 27.2185 1.33563 27.9421 1.54815C28.2878 1.68296 28.4965 1.91371 28.5683 2.24038C28.6693 2.56852 28.7058 3.01091 28.6779 3.56754L28.1984 6.9798C28.1881 7.18488 28.0289 8.60135 27.7209 11.2292L27.6943 12.6377C27.6621 12.6948 27.6225 13.1921 27.5754 14.1296L27.4608 16.4147C27.4388 16.8541 27.4248 17.1325 27.4189 17.2497L27.467 18.9262C27.3498 18.9203 27.4602 20.2328 27.7982 22.8637C27.7776 23.2738 27.8793 24.1747 28.1032 25.5664C28.3579 26.9302 28.3892 28.0625 28.1971 28.9633C28.1736 29.4321 27.7275 29.8356 26.8588 30.1738C26.2202 30.0243 25.8342 29.814 25.701 29.543C25.4446 29.3833 25.2894 29.2581 25.2352 29.1672L24.9057 28.7101C24.4561 28.3058 24.098 27.8326 23.8315 27.2905C23.6367 27.0752 23.5049 26.7749 23.4361 26.3896C23.1637 25.9648 23.0136 25.4433 22.9859 24.8251C22.9582 24.2069 22.8623 23.7763 22.6983 23.5331C22.565 23.262 22.4603 23.0072 22.3842 22.7684C22.0781 22.4299 21.9017 21.8484 21.8549 21.0237C21.8096 20.1697 21.7585 19.4328 21.7014 18.8132C21.7191 18.4616 21.7469 18.1987 21.7851 18.0244C21.7089 17.7856 21.6592 17.6069 21.6357 17.4883C21.6416 17.3711 21.6336 17.2385 21.6116 17.0905L21.394 17.9167C21.2987 18.0587 21.0796 18.6205 20.7367 19.6019L19.6706 22.412L18.7408 25.1408C18.5899 25.2214 18.3964 25.5641 18.1605 26.1691C17.863 26.8297 17.6836 27.1878 17.622 27.2434C17.5898 27.3006 17.5414 27.3862 17.477 27.5005C17.2191 27.9575 16.9363 28.3251 16.6286 28.6034C15.8009 29.2961 14.9703 29.4601 14.1369 29.0952C13.3313 28.7611 12.7601 28.145 12.4233 27.247C12.2432 26.7387 12.0983 26.4083 11.9884 26.256C11.9709 26.0201 11.8303 25.6019 11.5667 25.0013C11.3896 24.4344 11.2637 23.7232 11.1891 22.8677C11.0559 22.5967 10.9761 22.1374 10.9499 21.49C10.8166 21.219 10.7332 20.833 10.6995 20.332C10.6659 19.831 10.6023 19.3432 10.5086 18.8686C10.3871 18.3632 10.3147 17.7575 10.2914 17.0514C10.2592 16.5211 10.088 15.5433 9.77767 14.118C9.69419 14.0257 9.5917 13.7269 9.47019 13.2215C9.38809 13.6873 9.34557 13.9495 9.34263 14.0081C9.34116 14.0374 9.18797 14.7493 8.88307 16.1437C8.93873 16.2053 8.90204 16.644 8.773 17.4599C8.5693 18.0077 8.43738 18.5885 8.37722 19.2022C8.0635 20.7725 7.90146 21.9539 7.89108 22.7463C7.96574 23.0144 7.94958 23.3367 7.84259 23.7131C7.76636 24.0617 7.6894 24.425 7.61171 24.8029C7.56478 25.153 7.49002 25.4723 7.38744 25.7609L7.37201 26.0685C7.23857 26.9723 7.1982 27.4842 7.25092 27.6044C7.23476 27.9266 7.08308 28.3155 6.79591 28.771C6.53802 29.228 6.14835 29.3847 5.62689 29.2411C4.70116 28.9597 4.16799 28.7567 4.02739 28.6322C3.73157 28.0887 3.59395 27.6119 3.61452 27.2017L3.72032 25.0924L3.84789 24.3058C3.823 24.2164 3.85454 23.8802 3.94252 23.2972C3.9147 23.2665 3.9118 23.0314 3.93385 22.5919C3.95736 22.1232 3.93104 21.7694 3.85491 21.5306L3.87695 21.0912C3.86832 20.0922 3.88232 19.5201 3.91897 19.3751C3.98638 19.2023 4.00474 18.8361 3.97407 18.2765C4.09126 18.2824 4.17552 18.0663 4.22686 17.6284C4.27966 17.1611 4.34859 16.6652 4.43363 16.1408L4.74786 16.0244C4.69073 15.9922 4.69666 15.5813 4.76563 14.7918C4.80521 14.5882 4.9049 14.0645 5.0647 13.2208C5.2245 12.3771 5.29709 11.808 5.28249 11.5136C5.29866 11.1913 5.48477 10.7013 5.84082 10.0437C6.54862 8.22886 6.92966 7.07316 6.98394 6.57659C7.06751 6.08149 7.17744 5.64645 7.31373 5.27147C7.47941 4.31057 7.79813 3.51887 8.26991 2.89639C8.50731 2.26215 8.90727 1.9004 9.46978 1.81113L10.017 1.44208L10.0609 1.44428C10.6381 1.06205 11.6371 1.05342 13.058 1.41838C14.2605 2.03673 14.8998 2.759 14.9758 3.58518C14.8381 3.98945 14.8107 5.41253 14.8939 7.85443L14.874 8.24993Z" fill="#A0F25E"/>
<path d="M41.5234 16.9438C41.5264 16.2978 41.4042 15.8071 41.1567 15.4716C40.9106 15.1068 40.4375 14.8775 39.7373 14.7836C39.5249 14.9198 39.2216 15.4039 38.8275 16.2359C38.4641 17.04 38.2149 17.9086 38.08 18.8417C37.7165 20.2332 37.4995 21.6321 37.4289 23.0384C37.3862 24.4754 37.5677 25.5418 37.9734 26.2376C38.0261 26.3578 38.0825 26.4047 38.1425 26.3783C38.289 26.3856 38.5381 26.1044 38.8897 25.5347C40.5835 22.8001 41.4614 19.9365 41.5234 16.9438ZM42.4647 25.4056L41.7195 27.0864C41.7166 27.145 41.2602 27.7535 40.3504 28.9121C40.0588 29.4555 39.5453 29.7381 38.81 29.76C38.1039 29.7833 37.4191 29.6755 36.7556 29.4367C35.8636 29.0688 35.1942 28.6535 34.7475 28.1905C34.3008 27.7275 33.8688 26.9716 33.4515 25.9227C33.0649 24.846 32.8739 23.97 32.8784 23.2947C32.7804 22.3206 32.738 21.7017 32.7512 21.438L32.8041 20.3833C32.857 19.3287 32.9318 18.7157 33.0285 18.5443C33.0637 18.4286 33.1524 18.1246 33.2946 17.6325C33.5027 16.4094 33.9131 15.2551 34.5256 14.1698C35.7168 12.0855 36.8852 11.0427 38.0307 11.0414L38.2504 11.0525C38.3075 11.0847 38.3947 11.1037 38.5119 11.1096L39.0831 11.1383C40.1041 11.2776 40.7296 11.3971 40.9595 11.4967C41.3931 11.636 41.771 11.7136 42.0933 11.7298L43.2248 12.0068C43.5779 11.9952 44.0283 12.0912 44.5761 12.2949C45.1532 12.5001 45.4542 12.6473 45.4791 12.7367C45.5333 12.8275 45.605 13.1542 45.6943 13.7167C45.7835 14.2792 45.8362 14.693 45.8523 14.9582C45.8991 15.1955 45.9306 15.4467 45.9466 15.7118C46.0737 17.8622 46.3547 19.8735 46.7894 21.7456C46.8143 21.835 46.837 21.9683 46.8575 22.1455C46.878 22.3228 46.9629 22.6795 47.1122 23.2156C47.263 23.7225 47.3735 24.1539 47.4438 24.5099C47.5141 24.8658 47.6517 25.3427 47.8567 25.9404C48.0104 26.3886 48.2484 26.9145 48.5705 27.5181C49.1695 28.4586 48.7973 29.1448 47.454 29.5768C47.2753 29.6265 46.9662 29.6404 46.5267 29.6184C46.4389 29.6139 46.1679 29.4535 45.7138 29.137C45.4209 29.1223 45.1506 28.9472 44.9031 28.6118L44.556 28.5062C44.3612 28.2909 44.1906 28.1795 44.0441 28.1722C43.9884 28.1106 43.5206 26.8977 42.6406 24.5333C42.5365 24.8512 42.4779 25.1419 42.4647 25.4056Z" fill="#A0F25E"/>
<path d="M52.9876 13.8182L52.8844 13.2403C52.8859 13.211 52.8917 13.0938 52.902 12.8887C52.9431 12.6558 52.9424 12.3768 52.8999 12.0516C52.9367 11.3191 52.9492 10.7764 52.9376 10.4234C52.8555 10.3018 52.8403 9.72832 52.8917 8.70294C52.8552 7.67315 52.9191 6.69245 53.0833 5.76084C53.098 5.46788 53.2981 4.6996 53.6835 3.45602C54.0381 2.82766 54.2176 2.46953 54.222 2.38164C54.3832 2.09603 54.6938 1.75916 55.1538 1.37105L56.0547 0.975687C56.503 0.821947 57.2625 0.904096 58.3333 1.22213L59.289 1.49035C59.264 1.98839 59.1739 2.61532 59.0185 3.37116C58.948 4.18999 58.7728 5.34132 58.4928 6.82516C57.9327 9.79283 57.5653 13.0198 57.3904 16.5061L57.531 17.218C58.4129 16.6161 59.2077 15.9952 59.9153 15.3551C60.6522 14.7166 61.1261 14.3438 61.3371 14.2369C61.3678 14.2091 61.7187 13.9477 62.3897 13.4527C63.1822 12.8757 63.6261 12.5161 63.7214 12.374C64.3148 11.6696 65.0165 11.1467 65.8266 10.8055C66.3539 10.832 66.8161 10.9873 67.213 11.2716C67.6612 11.7052 67.8779 12.0685 67.8632 12.3615C67.8485 12.6545 67.7928 12.8866 67.6961 13.058C67.6302 13.2016 67.5034 13.3861 67.3159 13.6117C67.1284 13.8372 66.954 14.0928 66.7928 14.3784C66.3782 15.0331 65.5402 15.931 64.2788 17.0719C63.4144 17.9096 62.7529 18.5079 62.2943 18.8667C62.016 19.1465 61.3472 19.5975 60.288 20.2199C60.3144 20.28 60.3671 20.4001 60.4462 20.5803C60.556 20.7326 60.6637 20.9289 60.7691 21.1692C61.932 22.5786 62.9411 23.5396 63.7965 24.0525C64.1304 24.4217 64.4856 24.6598 64.862 24.7667C64.8606 24.796 65.0158 24.9213 65.3278 25.1425L65.587 25.2437C66.2154 25.5983 66.6321 25.7807 66.8372 25.791C67.7659 26.0138 68.2184 26.3595 68.1949 26.8283C68.1729 27.2677 67.9216 27.5929 67.4411 27.8038C67.4382 27.8623 66.984 28.1333 66.0787 28.6165C65.963 28.5813 65.7096 28.6568 65.3184 28.8427C64.2168 29.1399 62.9791 28.931 61.6052 28.2159C60.8318 27.8247 60.2005 27.235 59.7114 26.4468L58.7403 25.6051C58.7154 25.5158 58.2453 24.9342 57.33 23.8603L57.4374 25.2314L57.591 26.5608C57.544 27.4983 57.5651 28.2483 57.6544 28.8108C57.7437 29.3733 57.6066 29.7629 57.2433 29.9796C56.9093 30.1978 56.3021 30.2996 55.4217 30.2848C54.5707 30.2715 53.9364 30.0341 53.519 29.5726C53.4063 29.4788 53.3074 29.1067 53.2226 28.4563C53.1685 27.7781 53.1041 27.3049 53.0294 27.0369C52.5331 25.2204 52.3759 23.6706 52.5578 22.3874L52.5799 21.0668C52.6151 20.9511 52.6467 20.615 52.6746 20.0583C53.0484 18.4617 53.1527 16.3817 52.9876 13.8182Z" fill="#A0F25E"/>
<path d="M78.4674 15.2724C78.4162 15.1229 78.214 15.0541 77.861 15.0657C77.5373 15.0789 77.2794 15.2421 77.0875 15.5556C75.7908 17.3996 75.0442 19.4034 74.8475 21.5669C75.8319 21.8513 76.7035 21.4544 77.4625 20.3764C78.5146 17.5509 78.8496 15.8496 78.4674 15.2724ZM74.1647 32.5465L73.7296 32.4366L73.1453 31.7905C72.9695 31.7817 72.8413 31.7018 72.7608 31.5509C72.4576 31.1539 71.9099 30.3628 71.1176 29.1776L70.5797 26.7276C70.6032 26.2589 70.5359 25.8443 70.3777 25.4839C70.1509 24.1509 70.0126 23.395 69.9628 23.2163C69.9145 23.0083 69.8977 22.4641 69.9125 21.5837C69.9566 20.7048 70.0329 20.0625 70.1413 19.6568C70.2571 19.1046 70.8682 17.7548 71.9745 15.6075C72.2514 15.3571 72.4301 15.0136 72.5107 14.5771L73.2646 13.6016C73.9473 12.8723 74.6637 12.3502 75.4137 12.0353C75.4167 11.9767 75.922 11.8552 76.9299 11.6708C77.1364 11.6518 77.6015 11.7486 78.3251 11.9611C80.0623 12.4594 81.1352 13.0272 81.5438 13.6645L81.6646 13.8908C82.1816 14.7097 82.4429 15.9417 82.4485 17.5867C82.3238 18.3147 82.2197 18.9263 82.1362 19.4214C82.0526 19.9165 81.6848 20.8085 81.0327 22.0974C80.5521 22.8957 80.0943 23.5336 79.6591 24.011C78.9911 24.4475 78.5399 24.6598 78.3055 24.648C78.1854 24.7007 77.9349 24.7175 77.5541 24.6984L76.5433 24.6478C76.4569 24.614 76.2672 24.5898 75.9743 24.5752C75.6813 24.5605 75.2602 24.4659 74.7109 24.2915C74.6785 24.936 74.808 25.8677 75.0994 27.0865C75.4214 28.2774 75.693 29.0106 75.9142 29.2861C76.5059 29.7857 76.9739 30.1175 77.3181 30.2816C77.6623 30.4458 78.1296 30.4986 78.7199 30.4401C79.3117 30.3523 79.7468 30.1685 80.0252 29.8887L81.2383 28.5398C82.0206 27.5805 82.7721 27.5301 83.4927 28.3886C83.8251 28.7871 83.9379 29.1745 83.8309 29.551C83.7546 29.8996 83.4257 30.6027 82.844 31.6602C82.3693 32.3413 81.8711 32.9037 81.3496 33.3474C80.4179 33.7706 79.8641 33.9778 79.6883 33.969C79.4232 33.9851 79.0153 33.9206 78.4645 33.7755C78.1642 33.9072 77.6669 33.8676 76.9726 33.6566C76.9755 33.598 76.8898 33.5496 76.7155 33.5115C76.569 33.5042 76.3662 33.4499 76.1069 33.3488L76.197 33.3093C76.1384 33.3063 75.9626 33.2975 75.6697 33.2828L74.4723 32.5619L74.1647 32.5465Z" fill="#A0F25E"/>
<path d="M86.8109 19.3034C86.7992 18.9504 86.8477 18.2773 86.9562 17.2841L87.3388 15.8054L88.3125 13.9599L89.0597 13.1163C89.0714 12.8819 89.8493 12.5978 91.3933 12.2641L91.4372 12.2663C91.761 12.2532 92.2575 12.3074 92.9269 12.4291C93.6257 12.5523 94.2848 12.879 94.9043 13.4094C95.5253 13.9105 95.9449 14.328 96.1632 14.662C96.7167 15.9233 96.923 17.0791 96.7822 18.1294C96.7675 18.4224 96.6034 18.7666 96.2899 19.162C96.2577 19.2192 96.0335 19.296 95.6175 19.3926C95.2015 19.4893 94.8638 19.487 94.6046 19.3859C94.3468 19.2555 94.048 19.0643 93.7082 18.8123C93.3684 18.5603 93.2256 18.186 93.2799 17.6894C93.0309 17.3832 92.9914 16.9994 93.1614 16.538C93.2376 16.1894 93.2069 15.9235 93.0693 15.7404L92.5529 15.4942C92.3742 15.544 92.1852 15.7989 91.9859 16.2588C91.8159 16.7202 91.714 17.2878 91.6802 17.9616C91.6185 19.1921 91.8703 20.3208 92.4356 21.3477C92.6245 21.6803 92.9569 22.0787 93.4329 22.5432L94.1754 23.5496L95.2651 24.6616L96.0428 25.8461C96.2375 26.0614 96.4931 26.5295 96.8094 27.2502C97.1564 27.9431 97.316 28.5679 97.2881 29.1245C97.2616 29.6519 97.0667 30.3176 96.7033 31.1218L96.2792 31.6732C96.2762 31.7318 96.1055 31.9141 95.7671 32.2202C94.8441 33.0551 93.8648 33.5493 92.8291 33.7029L92.5215 33.6875C91.5782 33.7577 90.6561 33.6967 89.7552 33.5047L88.4106 33.0848C88.2641 33.0775 88.1059 33.0108 87.936 32.8848C87.7646 32.7881 87.6072 32.7068 87.4636 32.6408C86.8118 32.1676 86.4193 31.7954 86.2861 31.5244C86.144 31.4292 86.062 31.0139 86.0402 30.2786C85.8571 29.8288 85.9312 29.2304 86.2624 28.4834C86.2844 28.044 86.3452 27.7093 86.4449 27.4793C87.0339 26.8627 87.759 26.7522 88.6202 27.1479C88.9073 27.2797 89.042 27.5215 89.0244 27.873C89.02 27.9609 89.0485 28.2707 89.11 28.8025C89.2022 29.3064 89.3544 29.784 89.5668 30.2352C89.7791 30.6864 90.0903 30.9222 90.5005 30.9428C90.9106 30.9634 91.3435 30.8236 91.7991 30.5233C92.3134 29.6387 92.5728 29.1524 92.5772 29.0645L92.6959 28.4537C92.7766 28.0172 92.6675 27.5565 92.3688 27.0715C92.2985 26.7156 92.1111 26.3537 91.8064 25.986L91.1957 24.9862L90.5674 24.3379C90.4517 24.3027 90.0973 24.05 89.5041 23.5797C89.4792 23.4903 89.3283 23.2771 89.0515 22.9402C88.7747 22.6032 88.5163 22.1938 88.2761 21.7118C88.0374 21.2005 87.7225 20.7442 87.3315 20.3428C87.3125 20.1362 87.139 19.7898 86.8109 19.3034Z" fill="#A0F25E"/>
<path d="M114.598 24.9264C114.402 25.3277 114.298 25.6309 114.288 25.836C114.278 26.0411 114.204 26.3458 114.066 26.75C113.905 27.0356 113.911 27.5059 114.083 28.1607C114.057 28.688 114.087 29.2622 114.173 29.8833C114.257 30.563 114.407 31.0699 114.626 31.4039L115.195 31.4765C115.139 31.415 115.216 31.3454 115.425 31.2678C115.753 31.1668 115.949 31.0738 116.012 30.9888C116.106 30.8761 116.336 30.682 116.702 30.4067C117.098 30.1328 117.391 29.8392 117.583 29.5257C117.749 29.1522 118.034 28.7406 118.438 28.291C119.051 27.2056 119.653 25.4443 120.245 23.0069C120.512 22.3741 120.653 21.8966 120.67 21.5743C120.716 21.2242 120.662 20.8397 120.507 20.4207L119.83 19.8581C119.274 19.8302 118.78 20.0111 118.349 20.4006L117.481 21.0179C117.209 21.1805 117.024 21.3474 116.928 21.5188C116.504 21.7619 116.036 22.3111 115.523 23.1665C115.522 23.1958 115.459 23.2808 115.334 23.4214C115.239 23.5635 115.123 23.8366 114.985 24.2409C114.766 24.4943 114.638 24.7228 114.598 24.9264ZM111.516 16.974C111.549 16.3295 111.635 15.7758 111.776 15.313C111.917 14.8501 112.006 14.2378 112.044 13.4761C112.083 12.7144 112.174 11.7645 112.319 10.6263L112.355 9.92318C112.33 9.83382 112.372 9.57162 112.482 9.13658C112.438 8.25328 112.485 7.62414 112.621 7.24916L112.643 6.80971C112.611 6.27944 112.689 5.88687 112.878 5.63202C113.22 5.26733 113.705 4.96858 114.333 4.73577C114.991 4.50443 115.511 4.38366 115.893 4.37347L116.113 4.38449C116.227 4.44896 116.327 4.49805 116.414 4.53175C116.531 4.53763 116.776 4.63801 117.148 4.83289C117.488 5.08489 117.616 5.45845 117.532 5.95355C117.553 6.1308 117.558 6.32196 117.547 6.52704C117.537 6.73211 117.287 8.20277 116.797 10.939C116.309 13.6459 115.997 15.4806 115.861 16.443L115.724 18.2865C115.841 18.2923 115.947 18.2242 116.043 18.0822C116.078 17.9664 116.216 17.8559 116.456 17.7504C116.52 17.6362 116.627 17.5535 116.777 17.5022C116.957 17.4231 117.138 17.3148 117.322 17.1771C118.18 16.4565 119.342 16.133 120.807 16.2065C121.275 16.23 121.666 16.3523 121.978 16.5736L122.619 16.9582L124.043 17.5583C124.497 17.8747 124.749 18.1223 124.799 18.3011L125.152 20.0369C125.195 20.3621 125.193 20.9788 125.147 21.887C125.103 22.7659 124.982 23.4353 124.782 23.8953C124.768 24.1882 124.659 24.594 124.457 25.1125C124.442 25.4055 124.307 26.0448 124.052 27.0306C123.797 28.0164 123.443 28.9238 122.991 29.7529C122.837 29.892 122.676 30.163 122.509 30.5658C122.373 30.9408 121.997 31.4065 121.382 31.9631C121.118 31.9498 120.858 32.1717 120.6 32.6287C120.292 32.907 119.718 33.216 118.879 33.5557C117.742 33.9686 117.042 34.1684 116.778 34.1552C116.515 34.142 116.25 34.1434 115.985 34.1595C115.748 34.2063 115.424 34.2194 115.014 34.1989C114.633 34.1798 114.294 34.2068 113.997 34.28C113.698 34.3825 113.218 34.285 112.557 33.9876C112.474 33.8953 112.058 33.6982 111.31 33.3963C110.59 33.0959 110.215 32.6806 110.183 32.1503C109.961 31.8749 109.846 31.5313 109.838 31.1197C109.83 30.6788 109.803 30.3397 109.757 30.1024C109.739 29.8665 109.746 29.4263 109.779 28.7818C109.773 28.3116 109.909 27.0702 110.186 25.0575C110.334 23.8608 110.572 22.3455 110.898 20.5115C111.008 20.0765 111.214 18.8973 111.516 16.974Z" fill="#A0F25E"/>
<path d="M137.884 21.5126L137.685 21.1061C137.333 21.0884 136.638 21.7732 135.599 23.1602C134.379 24.6556 133.496 26.1533 132.951 27.6532C132.583 28.5452 132.355 29.2827 132.267 29.8657C132.224 30.7153 132.372 31.2807 132.711 31.562C132.857 31.5694 133.023 31.4749 133.209 31.2787C133.425 31.0839 133.549 30.9433 133.583 30.8569C133.794 30.75 134.074 30.4263 134.425 29.8858C134.833 29.3483 135.053 29.0656 135.084 29.0378L135.521 28.2227L136.332 26.9857C136.274 26.9828 136.379 26.6503 136.647 25.9882C137.029 25.3906 137.243 24.9314 137.289 24.6106L137.884 21.5126ZM128.079 31.6822C128.054 30.418 128.117 29.452 128.268 28.784C129.065 26.3569 129.687 24.5084 130.132 23.2384C130.134 23.2091 130.255 22.8481 130.495 22.1552C130.869 21.146 131.195 20.4869 131.475 20.1779C131.48 20.09 131.609 19.8615 131.862 19.4924C131.875 19.2287 132.22 18.7908 132.897 18.1786L133.407 17.6755C133.958 17.2332 134.717 17.0363 135.684 17.0848C136.038 17.0438 136.447 17.0791 136.912 17.1905C137.742 17.6139 138.68 18.2337 139.726 19.0498L140.152 19.3355C140.384 19.4058 140.6 19.4901 140.801 19.5883C140.918 19.5941 141.164 19.6652 141.539 19.8015L142.088 20.2696C142.343 20.4586 142.491 20.7157 142.534 21.0409C142.349 21.2079 142.233 21.7748 142.184 22.7415C142.004 23.9954 142.018 25.4793 142.225 27.1932C142.263 28.7811 142.458 30.4649 142.809 32.2448C142.802 32.3913 142.884 32.7919 143.057 33.4467C143.259 34.103 143.341 34.5183 143.303 34.6926C143.266 35.425 142.559 35.7567 141.183 35.6876C139.839 35.5321 138.931 34.8992 138.458 33.7888C138.435 33.6701 138.344 33.4306 138.186 33.0702C137.852 32.701 137.676 32.3985 137.659 32.1627L137.602 31.543C137.489 31.4493 137.422 31.3284 137.4 31.1805C137.023 31.6609 136.558 32.1515 136.004 32.6524L135.008 34.0563L134.639 34.3902C134.604 34.5059 134.29 34.6223 133.697 34.7394C133.102 34.8858 132.676 34.8938 132.418 34.7634C132.271 34.7561 132.068 34.7165 131.807 34.6447L129.913 33.7567C129.48 33.6174 129.168 33.3962 128.977 33.0929C128.608 32.8395 128.424 32.6981 128.426 32.6688C128.158 32.1561 128.042 31.8272 128.079 31.6822Z" fill="#A0F25E"/>
<path d="M156.344 24.1566L156.289 23.493C156.207 23.3714 156.156 23.222 156.135 23.0448C156.146 22.8397 156.117 22.5299 156.05 22.1153C156.076 21.588 155.968 21.1126 155.725 20.6893C155.649 20.4505 155.301 20.3596 154.681 20.4166C154.25 20.8062 153.709 21.9392 153.057 23.8155C153.055 23.8448 153.006 23.9598 152.907 24.1605C152.777 24.4183 152.638 24.8518 152.49 25.4612C152.343 26.0412 152.253 26.3745 152.219 26.4609C152.152 26.6337 152.114 26.7934 152.107 26.9399C152.043 27.0541 152.004 27.2431 151.991 27.5068L151.773 28.3329C151.647 28.5028 151.607 28.721 151.652 28.9877L151.621 29.6029C151.646 29.6922 151.619 29.9405 151.54 30.3477L151.509 30.963L151.522 32.4615C151.504 32.8131 151.768 33.399 152.315 34.2194C152.546 34.2898 152.693 34.2825 152.756 34.1975C153.372 33.641 153.724 33.0566 153.814 32.4443L153.974 31.8796C154.128 31.7405 154.267 31.3069 154.392 30.5789L154.649 29.8429C154.662 29.5792 154.735 29.3038 154.867 29.0167C154.998 28.7296 155.083 28.5136 155.119 28.3686C155.131 28.1342 155.351 27.5578 155.779 26.6394C155.754 26.5501 155.744 26.4614 155.748 26.3736L155.764 26.0659C156.149 24.8224 156.342 24.1859 156.344 24.1566ZM162.637 10.2424C162.585 11.2678 162.495 11.8947 162.366 12.1232L161.915 14.9642L161.84 16.4583C161.786 16.9549 161.734 17.7012 161.684 18.6973C161.634 19.6934 161.607 20.529 161.602 21.2043C161.629 21.8518 161.572 22.3923 161.433 22.8259C161.489 22.8874 161.513 22.9914 161.505 23.1379L161.532 23.4917L161.437 24.5002L161.344 26.3459C161.358 26.6696 161.344 27.227 161.305 28.018C161.329 28.6947 161.332 29.2382 161.311 29.6483C161.29 30.0585 161.314 30.4708 161.381 30.8854L161.352 31.4567L161.438 33.2672L161.363 34.7614C161.411 34.9694 161.43 35.1759 161.42 35.381C161.411 35.5568 161.454 35.8673 161.549 36.3127C161.672 36.7887 161.71 37.2165 161.661 37.5959C160.793 38.5215 159.741 38.7037 158.506 38.1425C158.244 38.1 157.973 37.9395 157.693 37.6612C157.443 37.3843 157.295 37.1125 157.249 36.8459L157.249 35.9648C157.104 35.9282 157.029 35.6747 157.023 35.2045C156.915 35.0229 156.878 34.8742 156.914 34.7585C157.009 34.6164 156.948 34.3637 156.731 34.0004L156.206 34.8111C156.048 35.0381 155.879 35.1765 155.701 35.2263L155.498 35.7448C155.066 36.1637 154.74 36.5145 154.52 36.7971L153.967 37.298C153.256 37.4093 152.292 37.3022 151.075 36.9768C150.782 36.9621 150.549 36.921 150.376 36.8536L150.069 36.8382C150.007 36.8939 149.692 36.7459 149.122 36.3942C148.634 36.1642 148.38 35.9605 148.359 35.7833L148.621 35.8404C148.22 35.6441 148.087 35.3584 148.223 34.9834C147.879 34.8193 147.676 34.486 147.613 33.9836L147.292 32.4696C147.253 32.0858 147.288 31.6764 147.398 31.2414C147.345 31.1213 147.438 30.7294 147.677 30.0659L147.565 29.6638L147.517 28.8684C147.435 28.7468 147.463 28.4838 147.6 28.0796L147.359 27.6269C147.418 26.455 147.497 25.7395 147.599 25.4802L147.671 24.9111C147.536 24.6694 147.605 24.1736 147.878 23.4236L148.595 21.433C148.598 21.3744 148.655 21.113 148.766 20.6486C148.949 19.9236 149.149 19.4636 149.364 19.2688L150.221 17.9902C150.375 17.851 150.547 17.6394 150.738 17.3552C151.057 16.8426 151.685 16.6098 152.623 16.6568C153.597 16.5588 155.144 16.7539 157.263 17.242L157.341 15.7039L157.301 13.8516C157.345 12.9727 157.356 12.1656 157.335 11.4303C157.342 10.6964 157.386 10.1112 157.467 9.67469C157.498 9.64686 157.674 9.05363 157.997 7.89499C158.319 6.73636 158.803 5.8795 159.447 5.32443C159.658 5.21753 160.028 5.16266 160.557 5.15981C161.115 5.15843 161.45 5.20463 161.563 5.29839C161.676 5.39216 161.833 5.47348 162.035 5.54236C162.844 5.81788 163.217 6.58551 163.154 7.84526L162.637 10.2424Z" fill="#A0F25E"/>
<path d="M175.117 23.6444C175.12 22.9984 174.998 22.5077 174.75 22.1722C174.504 21.8074 174.031 21.5781 173.331 21.4842C173.119 21.6204 172.815 22.1045 172.421 22.9365C172.058 23.7406 171.809 24.6092 171.674 25.5423C171.31 26.9338 171.093 28.3327 171.023 29.7389C170.98 31.1759 171.162 32.2424 171.567 32.9382C171.62 33.0584 171.676 33.1052 171.736 33.0789C171.883 33.0862 172.132 32.805 172.484 32.2353C174.177 29.5007 175.055 26.6371 175.117 23.6444ZM176.058 32.1062L175.313 33.787C175.31 33.8456 174.854 34.4541 173.944 35.6127C173.653 36.1561 173.139 36.4387 172.404 36.4606C171.698 36.4839 171.013 36.3761 170.349 36.1372C169.457 35.7694 168.788 35.354 168.341 34.8911C167.895 34.4281 167.463 33.6722 167.045 32.6233C166.659 31.5466 166.468 30.6706 166.472 29.9953C166.374 29.0212 166.332 28.4023 166.345 28.1386L166.398 27.0839C166.451 26.0293 166.526 25.4162 166.622 25.2449C166.658 25.1292 166.746 24.8252 166.888 24.3331C167.097 23.1099 167.507 21.9557 168.119 20.8704C169.311 18.7861 170.479 17.7433 171.624 17.742L171.844 17.753C171.901 17.7853 171.988 17.8043 172.106 17.8102L172.677 17.8389C173.698 17.9782 174.323 18.0977 174.553 18.1973C174.987 18.3365 175.365 18.4142 175.687 18.4304L176.819 18.7074C177.172 18.6958 177.622 18.7918 178.17 18.9955C178.747 19.2006 179.048 19.3479 179.073 19.4373C179.127 19.5281 179.199 19.8548 179.288 20.4173C179.377 20.9798 179.43 21.3936 179.446 21.6588C179.493 21.8961 179.524 22.1473 179.54 22.4124C179.668 24.5628 179.948 26.5741 180.383 28.4462C180.408 28.5356 180.431 28.6689 180.451 28.8461C180.472 29.0234 180.557 29.3801 180.706 29.9162C180.857 30.4231 180.967 30.8545 181.038 31.2105C181.108 31.5664 181.245 32.0433 181.45 32.6409C181.604 33.0892 181.842 33.6151 182.164 34.2187C182.763 35.1592 182.391 35.8454 181.048 36.2773C180.869 36.3271 180.56 36.341 180.121 36.3189C180.033 36.3145 179.762 36.1541 179.308 35.8376C179.015 35.8229 178.744 35.6478 178.497 35.3124L178.15 35.2068C177.955 34.9915 177.784 34.8801 177.638 34.8728C177.582 34.8112 177.114 33.5983 176.234 31.2339C176.13 31.5517 176.072 31.8425 176.058 32.1062Z" fill="#A0F25E"/>
<path d="M185.601 24.2583C185.589 23.9053 185.638 23.2322 185.746 22.2391L186.129 20.7604L187.102 18.9148L187.85 18.0712C187.861 17.8368 188.639 17.5528 190.183 17.219L190.227 17.2212C190.551 17.2081 191.047 17.2624 191.717 17.3841C192.416 17.5072 193.075 17.834 193.694 18.3644C194.315 18.8654 194.735 19.283 194.953 19.617C195.507 20.8783 195.713 22.0341 195.572 23.0844C195.557 23.3773 195.393 23.7215 195.08 24.117C195.048 24.1741 194.823 24.251 194.407 24.3476C193.991 24.4442 193.654 24.442 193.394 24.3408C193.137 24.2104 192.838 24.0192 192.498 23.7672C192.158 23.5152 192.015 23.1409 192.07 22.6444C191.821 22.3382 191.781 21.9544 191.951 21.493C192.028 21.1444 191.997 20.8785 191.859 20.6954L191.343 20.4492C191.164 20.499 190.975 20.7538 190.776 21.2137C190.606 21.6751 190.504 22.2427 190.47 22.9166C190.408 24.147 190.66 25.2757 191.225 26.3027C191.414 26.6352 191.747 27.0337 192.223 27.4981L192.965 28.5046L194.055 29.6166L194.833 30.801C195.027 31.0164 195.283 31.4844 195.599 32.2052C195.946 32.8981 196.106 33.5229 196.078 34.0795C196.052 34.6068 195.857 35.2726 195.493 36.0767L195.069 36.6282C195.066 36.6868 194.895 36.8691 194.557 37.1752C193.634 38.01 192.655 38.5042 191.619 38.6579L191.311 38.6425C190.368 38.7126 189.446 38.6517 188.545 38.4597L187.2 38.0398C187.054 38.0324 186.896 37.9657 186.726 37.8397C186.554 37.743 186.397 37.6617 186.253 37.5958C185.602 37.1225 185.209 36.7504 185.076 36.4794C184.934 36.3841 184.852 35.9689 184.83 35.2335C184.647 34.7838 184.721 34.1854 185.052 33.4384C185.074 32.9989 185.135 32.6642 185.235 32.4343C185.824 31.8177 186.549 31.7072 187.41 32.1028C187.697 32.2347 187.832 32.4764 187.814 32.828C187.81 32.9159 187.838 33.2257 187.9 33.7574C187.992 34.2613 188.144 34.7389 188.357 35.1901C188.569 35.6413 188.88 35.8772 189.29 35.8978C189.701 35.9183 190.133 35.7785 190.589 35.4783C191.103 34.5936 191.363 34.1073 191.367 34.0194L191.486 33.4086C191.566 32.9721 191.457 32.5114 191.159 32.0265C191.088 31.6705 190.901 31.3087 190.596 30.941L189.986 29.9411L189.357 29.2928C189.242 29.2577 188.887 29.0049 188.294 28.5346C188.269 28.4453 188.118 28.2321 187.841 27.8951C187.565 27.5582 187.306 27.1487 187.066 26.6668C186.827 26.1555 186.512 25.6991 186.121 25.2977C186.102 25.0912 185.929 24.7447 185.601 24.2583Z" fill="#A0F25E"/>
<path d="M200.451 22.6242L200.425 22.2704C200.432 22.1239 200.531 21.9086 200.721 21.6245C200.88 21.3974 201.113 21.1301 201.422 20.8226C201.732 20.515 201.917 20.3334 201.978 20.2777C202.372 20.0332 202.717 19.8889 203.013 19.845C203.226 19.7088 203.673 19.5844 204.354 19.4717L204.837 19.496C205.013 19.5048 205.144 19.526 205.23 19.5597C205.317 19.5935 205.622 19.6675 206.144 19.7818C206.968 19.7644 207.783 19.908 208.59 20.2129C208.788 20.3696 208.943 20.4949 209.056 20.5887C209.168 20.6824 209.323 20.8223 209.519 21.0084C209.746 21.1666 210 21.3703 210.282 21.6194C210.594 21.8406 211.001 22.1988 211.505 22.694C212.511 23.7137 212.799 24.712 212.368 25.689L211.931 26.5041C211.469 26.9215 210.993 27.0445 210.503 26.873L210.109 26.8093C209.796 26.6173 209.55 26.2525 209.371 25.7149C209.119 25.4673 208.952 25.2974 208.868 25.2051C208.089 24.3436 207.237 23.7722 206.311 23.4908C205.811 23.4951 205.315 23.7345 204.821 24.2091C204.327 24.6836 204.31 25.3289 204.768 26.1449C204.755 26.4085 204.776 26.5711 204.832 26.6327C204.887 26.6942 205.008 26.9205 205.194 27.3117C205.551 27.7995 205.825 28.2097 206.013 28.5422C206.139 28.9597 206.359 29.2645 206.672 29.4564L206.908 30.0409C206.994 30.0746 207.392 30.3442 208.1 30.8497C208.269 31.005 208.434 31.2335 208.595 31.5353C208.595 31.5353 209.134 32.1938 210.214 33.5109C210.381 33.6955 210.543 33.9826 210.699 34.3723C211.033 34.7415 211.193 35.0726 211.178 35.3655C211.193 35.66 211.118 35.9793 210.954 36.3235C210.938 36.6458 210.778 36.9021 210.475 37.0925C210.201 37.2843 209.987 37.4498 209.833 37.5889C209.71 37.7003 209.21 37.9983 208.334 38.483C208.268 38.6265 207.578 38.9297 206.262 39.3923L204.926 39.6778C204.897 39.6763 204.764 39.6843 204.529 39.7019C204.291 39.7487 203.909 39.7589 203.382 39.7325L203.03 39.7148C202.881 39.7661 202.542 39.7785 202.015 39.752C201.079 39.6757 200.27 39.4148 199.587 38.9694C199.444 38.9035 199.359 38.8258 199.334 38.7365C198.795 37.7696 198.522 37.3594 198.515 37.5059C198.405 37.3535 198.332 37.0561 198.295 36.6138C198.288 36.1728 198.272 35.9077 198.247 35.8183C198.224 35.6997 198.276 35.5408 198.403 35.3416C198.69 34.886 199.219 34.8832 199.99 35.333L200.546 35.6693C200.796 35.9462 201.11 36.1235 201.488 36.2012C201.695 36.1822 201.944 36.1947 202.235 36.2386C202.527 36.2826 202.805 36.2966 203.07 36.2805L203.879 35.9686L203.835 35.9664C203.866 35.9386 203.954 35.9284 204.101 35.9357C204.249 35.9138 204.471 35.8662 204.769 35.793C205.632 35.5719 205.989 35.1787 205.841 34.6132L205.56 34.0705C205.271 33.3805 204.944 32.8795 204.578 32.5674L204.237 32.33C203.123 31.1287 202.249 30.1156 201.614 29.2908C201.529 29.2278 201.347 29.0571 201.067 28.7788C200.817 28.5019 200.634 28.0522 200.518 27.4296C200.283 26.8597 200.155 26.4715 200.136 26.265L200.178 25.43C200.181 25.3714 200.175 25.1949 200.161 24.9005C200.146 24.6061 200.158 24.357 200.198 24.1534C200.268 23.922 200.277 23.7462 200.224 23.6261C200.201 23.5074 200.277 23.1735 200.451 22.6242Z" fill="#A0F25E"/>
<path d="M5.91182 68.3564L5.77531 70.1999L5.70477 71.6062L5.70891 73.2805C5.64719 74.5109 5.72608 75.8659 5.94558 77.3454L6.14546 77.7519C6.16163 77.4297 6.21953 77.1536 6.31918 76.9236C6.44812 76.6951 6.52067 76.4197 6.53683 76.0975L7.26667 73.8432C7.27108 73.7553 7.35387 73.5686 7.51505 73.2829C7.64693 72.9959 7.84989 72.4627 8.12394 71.6834C8.42875 70.8764 8.62515 70.1813 8.71313 69.5983C8.80258 68.986 8.88248 68.5642 8.95283 68.3328C9.02318 68.1013 9.02469 67.7783 8.95737 67.3638L9.26747 65.5731C9.28804 65.1629 9.36133 64.8729 9.48733 64.703C10.7266 64.5889 11.5374 64.5268 11.9197 64.5166C11.9109 64.6924 12.0017 64.9319 12.1921 65.2351C12.1862 65.3523 12.2755 65.6211 12.46 66.0416L12.5961 66.8414C12.7513 67.2604 12.8807 69.0731 12.9842 72.2797C12.962 73.3065 13.1691 74.7413 13.6053 76.5842C13.7636 76.3572 13.8361 76.0818 13.823 75.758C14.0076 75.5911 14.119 75.1267 14.1572 74.365L14.6561 73.2006L15.7181 68.7161L15.9909 66.7914L16.4108 65.4467C16.4885 65.0688 16.6189 64.811 16.802 64.6733C17.0159 64.5079 17.3418 64.4508 17.7798 64.5021L18.8784 64.5572C19.0761 64.714 19.3508 64.8012 19.7024 64.8188L20.2231 64.9771C20.1761 65.3272 20.127 65.7212 20.0757 66.1592C20.0287 66.5093 19.8712 67.3091 19.6029 68.5585C19.0412 72.7303 18.6512 75.2366 18.4328 76.0774C18.4225 76.2824 18.3705 76.4414 18.2767 76.5541C18.2268 76.9628 17.9718 77.9486 17.5116 79.5115C17.4998 79.7459 17.1709 80.1553 16.5248 80.7396C16.3021 81.0809 15.9835 81.2852 15.5689 81.3525C15.4151 81.4917 15.1324 81.5656 14.7208 81.5743C14.3077 81.6123 13.8858 81.5324 13.4552 81.3346C13.0231 81.1661 12.7799 81.0364 12.7257 80.9456C12.446 80.6672 12.0894 80.4584 11.6558 80.3192L11.0098 80.0225C10.6774 79.624 10.4833 79.394 10.4277 79.3324C10.3193 79.1508 10.2381 78.7208 10.184 78.0426C10.1269 78.0104 10.0734 77.6112 10.0238 76.8451C9.60755 78.1165 9.39577 78.8254 9.38842 78.9719C9.21696 79.4626 9.09973 79.7504 9.03673 79.8354C9.00449 79.8925 8.97005 79.9936 8.93341 80.1386C8.92753 80.2558 8.89236 80.3715 8.82789 80.4858C8.81907 80.6615 8.70698 80.8468 8.49162 81.0416C8.30555 81.2379 7.94591 81.3814 7.4127 81.4721C6.87802 81.5921 6.18881 81.5723 5.34509 81.4125L4.81555 81.4299C4.61048 81.4197 4.39222 81.3793 4.16079 81.309C3.82098 81.057 3.58666 80.7515 3.45781 80.3926C3.13123 79.877 2.8508 79.3195 2.61652 78.7204C2.44956 78.5358 2.24457 77.9381 2.00157 76.9273C1.76876 76.2989 1.65456 75.9407 1.65897 75.8528L1.6788 75.4573C1.56749 75.3342 1.45329 74.9761 1.3362 74.3828C1.2484 73.791 1.24114 73.3501 1.31443 73.0601C1.23242 72.9385 1.2039 72.6286 1.22888 72.1306C1.18499 71.8347 1.1792 71.3645 1.21153 70.72C1.178 69.6316 1.11073 68.9233 1.00971 68.5952C1.05811 68.2158 0.967373 67.6826 0.7375 66.9955C0.569252 65.6654 0.534215 64.9001 0.63239 64.6994C0.556256 64.4606 0.647865 64.0981 0.907217 63.6118C0.914564 63.4653 1.30134 63.0735 2.06755 62.4364C2.45428 62.3384 2.76116 62.3684 2.98819 62.5267C3.21668 62.6556 3.47668 62.7421 3.76817 62.7861L5.2842 63.3027C6.12204 63.5796 6.42437 64.5787 6.1912 66.2999L5.92946 68.0049C5.92799 68.0342 5.92505 68.0928 5.92064 68.1807L5.91182 68.3564Z" fill="#A0F25E"/>
<path d="M32.1252 66.0146C32.0739 65.8652 31.8718 65.7963 31.5188 65.808C31.195 65.8211 30.9372 65.9844 30.7452 66.2979C29.4486 68.1419 28.7019 70.1457 28.5053 72.3092C29.4896 72.5935 30.3613 72.1967 31.1202 71.1187C32.1724 68.2932 32.5074 66.5918 32.1252 66.0146ZM27.8224 83.2888L27.3874 83.1788L26.803 82.5328C26.6273 82.5239 26.4991 82.4441 26.4186 82.2932C26.1154 81.8962 25.5677 81.1051 24.7754 79.9199L24.2374 77.4699C24.2609 77.0011 24.1936 76.5866 24.0355 76.2262C23.8086 74.8932 23.6703 74.1373 23.6206 73.9586C23.5722 73.7506 23.5555 73.2064 23.5703 72.326C23.6144 71.4471 23.6906 70.8048 23.7991 70.399C23.9149 69.8468 24.5259 68.4971 25.6322 66.3498C25.9091 66.0993 26.0879 65.7559 26.1685 65.3194L26.9223 64.3439C27.6051 63.6145 28.3214 63.0924 29.0715 62.7776C29.0744 62.719 29.5798 62.5975 30.5877 62.4131C30.7942 62.3941 31.2593 62.4908 31.9829 62.7033C33.7201 63.2017 34.793 63.7694 35.2016 64.4067L35.3224 64.6331C35.8394 65.452 36.1006 66.6839 36.1062 68.329C35.9816 69.057 35.8775 69.6685 35.7939 70.1636C35.7104 70.6587 35.3426 71.5507 34.6905 72.8397C34.2099 73.638 33.752 74.2758 33.3169 74.7533C32.6489 75.1897 32.1977 75.402 31.9633 75.3903C31.8432 75.443 31.5927 75.4598 31.2118 75.4407L30.2011 75.39C30.1147 75.3563 29.925 75.3321 29.632 75.3174C29.3391 75.3027 28.9179 75.2082 28.3687 75.0338C28.3363 75.6783 28.4658 76.61 28.7571 77.8287C29.0792 79.0197 29.3508 79.7529 29.572 80.0283C30.1637 80.5279 30.6316 80.8598 30.9759 81.0239C31.3201 81.188 31.7873 81.2408 32.3777 81.1823C32.9695 81.0945 33.4046 80.9108 33.6829 80.631L34.896 79.2821C35.6784 78.3227 36.4299 78.2723 37.1504 79.1308C37.4829 79.5293 37.5956 79.9168 37.4886 80.2932C37.4124 80.6418 37.0834 81.3449 36.5017 82.4024C36.027 83.0835 35.5289 83.6459 35.0073 84.0897C34.0756 84.5129 33.5219 84.7201 33.3461 84.7113C33.081 84.7273 32.673 84.6628 32.1223 84.5177C31.822 84.6495 31.3247 84.6099 30.6304 84.3988C30.6333 84.3402 30.5476 84.2919 30.3733 84.2538C30.2268 84.2464 30.024 84.1922 29.7647 84.0911L29.8548 84.0515C29.7962 84.0486 29.6204 84.0398 29.3274 84.0251L28.1301 83.3042L27.8224 83.2888Z" fill="#A0F25E"/>
<path d="M51.5957 69.5464C51.65 68.4624 51.5161 67.9124 51.1938 67.8962C51.0488 67.8596 50.8584 67.85 50.6225 67.8676L50.0336 68.1905L50.0754 68.2366C49.86 68.4314 49.5948 68.7412 49.2798 69.1659L49.3238 69.1681C49.0029 69.7101 48.7641 70.0799 48.6073 70.2776C48.2952 70.6438 48.1355 70.9001 48.1282 71.0466C48.1208 71.1931 48.0512 71.4099 47.9193 71.6969C47.8167 71.9855 47.7178 72.2008 47.6226 72.3429C47.5566 72.4864 47.4182 72.9054 47.2071 73.5997C46.9975 74.2647 46.87 74.7576 46.8246 75.0783L46.6223 75.5969L46.1078 77.9501C46.0067 78.2093 45.9832 78.6781 46.0373 79.3563C46.1207 80.036 46.2129 80.5399 46.3139 80.868C46.6082 81.4408 46.9158 81.75 47.2366 81.7954C47.4505 81.6299 47.6168 81.5355 47.7354 81.5121C47.7618 81.5721 47.8628 81.6066 48.0386 81.6154C48.2144 81.6242 48.3484 81.5869 48.4407 81.5034L48.3968 81.5012C49.1073 80.8026 49.6201 80.2409 49.9351 79.8161C50.2501 79.3914 50.4604 78.7117 50.5661 77.7772L50.7486 76.773C50.9171 76.3409 51.0161 75.8319 51.0455 75.246L51.4217 72.1369C51.6049 71.4119 51.6636 70.8274 51.5977 70.3836L51.6088 70.1638L51.5957 69.5464ZM44.8506 52.0706C45.3706 52.2435 45.6489 52.5512 45.6854 52.9936C45.719 54.0819 45.6932 54.8883 45.6082 55.4127L45.5002 57.566C45.4591 57.7989 45.4347 59.1634 45.427 61.6595C45.4501 64.1277 45.4937 66.1859 45.5579 67.8338L45.6875 67.8844C46.048 67.1388 46.2758 66.695 46.3711 66.5529C46.4956 66.4123 46.6077 66.227 46.7073 65.9971C46.8363 65.7686 47.0509 65.5884 47.3512 65.4566C47.3541 65.3981 47.5094 65.2296 47.8171 64.9514C48.1555 64.6453 48.3855 64.4512 48.5071 64.3692C48.658 64.2886 48.7635 64.2352 48.8236 64.2088C48.9144 64.1547 49.0345 64.1019 49.1839 64.0507C49.3627 64.0009 49.4674 63.9621 49.4982 63.9343C49.9142 63.8377 50.1662 63.7916 50.254 63.796L50.8341 63.6489C50.8927 63.6518 50.9806 63.6562 51.0978 63.6621C51.2458 63.6401 51.4171 63.7368 51.6119 63.9522C51.7555 64.0181 51.9613 64.0138 52.2294 63.9391C52.7567 63.9656 53.2342 64.107 53.6619 64.3634C54.0896 64.6198 54.3832 64.9136 54.5429 65.2446C54.7332 65.5479 54.9983 65.8255 55.3381 66.0775C55.3616 66.1962 55.4421 66.3471 55.5798 66.5302C55.7482 66.6855 55.8668 66.9558 55.9356 67.341C56.1654 68.6155 56.2244 70.366 56.1127 72.5925C56.0527 72.6189 56.0182 72.7199 56.0094 72.8957C56.0299 73.073 56.0167 73.3366 55.9698 73.6867C55.9536 74.009 55.9404 74.2726 55.9301 74.4777L55.6948 75.6554L55.6441 76.6661C55.5811 76.7511 55.5225 77.0419 55.4682 77.5384L54.7383 79.7927L54.0349 81.5196C54.0305 81.6075 53.8694 81.8931 53.5514 82.3765C53.1354 82.4731 52.786 82.7052 52.5032 83.0729C51.6609 83.4712 51.1181 83.7523 50.8749 83.9163C50.2288 84.5007 49.4663 84.7709 48.5874 84.7268C48.4703 84.7209 48.0572 84.7589 47.3482 84.8408C46.2847 84.9637 45.4109 84.8171 44.7269 84.401C44.3754 84.3833 44.1513 84.1665 44.0547 83.7505C43.4834 83.4281 43.1678 83.2801 43.1077 83.3065C42.929 83.3563 42.7554 83.3035 42.587 83.1482C42.4479 82.9944 42.3541 82.8135 42.3058 82.6054C42.0744 82.5351 41.9228 82.3366 41.8511 82.0099C41.8468 81.5104 41.7516 81.0651 41.5657 80.6739C41.3797 80.2828 41.3109 79.8975 41.3593 79.5182C41.437 79.1402 41.4283 78.7286 41.3331 78.2833C41.2687 77.8101 41.2732 77.4285 41.3465 77.1385C41.2235 76.6624 41.1467 76.1446 41.116 75.585L41.1226 75.4532C41.1622 75.2496 41.2003 75.0753 41.237 74.9303L41.2722 74.2271C41.3602 73.6442 41.394 73.264 41.3735 73.0868C41.2944 72.9066 41.2644 72.6261 41.2835 72.2452C41.2279 72.1837 41.2022 72.109 41.2067 72.0211L41.1892 71.4915C40.9387 71.2147 40.9878 70.8206 41.3366 70.3094C41.4626 70.1395 41.4875 69.6415 41.4115 68.8153L40.9923 65.7545C41.0216 65.756 41.0407 65.6688 41.0495 65.493L41.1177 65.0118C40.8879 63.7374 40.8046 62.4703 40.8678 61.2105C40.8429 61.1212 40.8363 60.9593 40.8481 60.7249L40.8855 59.9779C40.8534 59.4476 40.8835 58.847 40.9759 58.1762C41.0976 57.5067 41.1475 56.8044 41.1256 56.069C41.1111 55.1872 41.2511 54.4453 41.5457 53.8433C41.6248 53.436 41.7567 53.1489 41.9413 52.982C42.1274 52.7857 42.4306 52.5953 42.8511 52.4108C43.544 52.0638 44.2105 51.9504 44.8506 52.0706Z" fill="#A0F25E"/>
<path d="M60.6403 68.6784L60.6139 68.3246C60.6213 68.1781 60.7202 67.9628 60.9107 67.6787C61.0689 67.4517 61.3026 67.1844 61.6117 66.8768C61.9208 66.5692 62.1062 66.3876 62.1677 66.332C62.5618 66.0874 62.9068 65.9432 63.2027 65.8993C63.4151 65.7631 63.8619 65.6386 64.5431 65.5259L65.0265 65.5502C65.2022 65.559 65.3333 65.5803 65.4198 65.614C65.5062 65.6477 65.8109 65.7217 66.3338 65.836C67.157 65.8186 67.9722 65.9623 68.7793 66.2671C68.977 66.4238 69.1322 66.5491 69.245 66.6429C69.3578 66.7366 69.5123 66.8766 69.7086 67.0626C69.9356 67.2209 70.1897 67.4245 70.4709 67.6736C70.7829 67.8948 71.1908 68.253 71.6946 68.7482C72.7008 69.7679 72.9885 70.7662 72.5577 71.7432L72.1203 72.5583C71.6588 72.9757 71.1827 73.0987 70.692 72.9273L70.2987 72.8635C69.9853 72.6715 69.7392 72.3067 69.5606 71.7691C69.3087 71.5215 69.141 71.3516 69.0575 71.2593C68.2784 70.3978 67.4259 69.8264 66.5002 69.545C66.0007 69.5493 65.5041 69.7888 65.0103 70.2633C64.5166 70.7378 64.4989 71.3831 64.9573 72.1991C64.9441 72.4627 64.9653 72.6253 65.021 72.6869C65.0766 72.7484 65.1974 72.9747 65.3834 73.3659C65.7407 73.8537 66.0139 74.2639 66.2028 74.5965C66.3287 75.014 66.5484 75.3187 66.8618 75.5106L67.0968 76.0951C67.1832 76.1288 67.5809 76.3984 68.2898 76.9039C68.4582 77.0592 68.623 77.2877 68.7841 77.5895C68.7841 77.5895 69.3238 78.2481 70.4032 79.5651C70.5701 79.7497 70.7319 80.0368 70.8886 80.4265C71.2225 80.7957 71.3822 81.1268 71.3675 81.4198C71.3821 81.7142 71.3073 82.0335 71.1432 82.3777C71.127 82.7 70.9673 82.9563 70.6641 83.1467C70.3901 83.3385 70.1762 83.504 70.0224 83.6432C69.8993 83.7545 69.3998 84.0525 68.5237 84.5372C68.4578 84.6808 67.7671 84.9839 66.4516 85.4465L65.1156 85.732C65.0863 85.7305 64.9537 85.7386 64.7179 85.7561C64.4806 85.8029 64.0983 85.8131 63.5709 85.7867L63.2194 85.769C63.0699 85.8203 62.7316 85.8327 62.2042 85.8062C61.2682 85.7299 60.4589 85.4691 59.7764 85.0236C59.6328 84.9577 59.5486 84.88 59.5237 84.7907C58.9848 83.8238 58.7117 83.4136 58.7043 83.5601C58.5945 83.4077 58.5213 83.1104 58.4848 82.668C58.4775 82.2271 58.4614 81.9619 58.4365 81.8726C58.4131 81.7539 58.4651 81.595 58.5926 81.3958C58.8798 80.9403 59.4086 80.9374 60.179 81.3872L60.7349 81.7235C60.9853 82.0004 61.2995 82.1777 61.6774 82.2554C61.884 82.2364 62.133 82.2489 62.4245 82.2929C62.716 82.3369 62.9943 82.3508 63.2594 82.3347L64.0681 82.0229L64.0241 82.0207C64.0549 81.9928 64.1435 81.9826 64.29 81.9899C64.438 81.968 64.6606 81.9204 64.958 81.8472C65.8208 81.6262 66.1783 81.2329 66.0304 80.6675L65.7493 80.1247C65.4608 79.4347 65.1335 78.9337 64.7673 78.6216L64.4268 78.3843C63.3123 77.1829 62.4379 76.1698 61.8038 75.345C61.7188 75.282 61.5365 75.1114 61.2567 74.833C61.0063 74.5561 60.8232 74.1064 60.7076 73.4838C60.4719 72.9139 60.3445 72.5257 60.3255 72.3192L60.3674 71.4842C60.3703 71.4257 60.3645 71.2491 60.3499 70.9547C60.3353 70.6603 60.3477 70.4112 60.3873 70.2076C60.4577 69.9762 60.4665 69.8004 60.4138 69.6803C60.3904 69.5616 60.4658 69.2277 60.6403 68.6784Z" fill="#A0F25E"/>
<path d="M82.1208 59.7552L82.2526 59.7618C83.275 59.8719 83.9188 60.2125 84.1838 60.7839C84.4797 61.3274 84.5711 61.8459 84.4583 62.3396C84.3747 62.8347 83.9483 63.4301 83.1792 64.1257C82.4393 64.8229 81.7772 65.1421 81.1927 65.0834C81.0169 65.0746 80.6698 64.9691 80.1513 64.7669C79.662 64.5661 79.4035 64.4503 79.3757 64.4196C79.3523 64.3009 79.2688 64.2086 79.1252 64.1427C78.3782 63.8115 77.9909 63.0431 77.9632 61.8376C77.9691 61.7204 78.0614 61.6369 78.2401 61.5871C78.1229 61.5812 78.1171 61.4047 78.2226 61.0576C78.46 60.4233 78.9354 60.0213 79.6488 59.8515C80.5659 59.7213 81.3898 59.6892 82.1208 59.7552ZM81.4752 70.8688L80.3601 78.1701C80.3513 78.3459 80.3425 78.5217 80.3336 78.6975C80.3263 78.844 80.3343 78.9765 80.3578 79.0952C80.3226 79.2109 80.3006 79.3567 80.2918 79.5324L80.1331 82.6965C80.2003 83.6984 80.1709 84.2843 80.0449 84.4542C79.8662 84.504 79.6567 84.5816 79.4165 84.6871C79.1747 84.8218 78.7192 84.8283 78.0498 84.7066C77.4082 84.6157 76.9446 84.4896 76.659 84.3285L76.1382 84.1702C75.8453 84.1555 75.6614 84.0141 75.5868 83.746C75.2177 83.4926 75.028 83.1747 75.0178 82.7923C74.9373 82.6414 75.0501 82.4415 75.3563 82.1925C75.3344 82.0446 75.2861 81.8366 75.2114 81.5685C75.1382 81.2711 75.1221 81.006 75.1632 80.7731C75.2584 80.631 75.2255 80.4091 75.0644 80.1073C75.0806 79.785 75.1429 79.421 75.2513 79.0153C75.3744 78.904 75.425 78.4807 75.4032 77.7453C75.6229 77.4626 75.746 77.0576 75.7725 76.5303C75.6788 76.0557 75.7463 75.5891 75.9748 75.1307C76.2034 74.6722 76.3441 74.2093 76.3969 73.7421C76.4923 73.0126 76.6601 72.3014 76.9004 71.6086C76.9151 71.3156 77.0705 70.8535 77.3665 70.2222C77.6918 69.5924 77.9013 69.2211 77.9951 69.1083L78.7335 68.4404L79.5399 68.1725L79.5838 68.1747C79.9413 68.0752 80.2921 68.1074 80.6363 68.2716C81.4697 68.6364 81.9699 68.9112 82.1369 69.0958C82.0138 69.2071 81.9318 69.3792 81.8907 69.6121C81.8497 69.845 81.8101 70.0486 81.772 70.2229C81.6474 70.3635 81.5485 70.5788 81.4752 70.8688Z" fill="#A0F25E"/>
<path d="M89.0965 69.4889L89.1603 69.0956C88.548 69.0061 88.1108 68.9401 87.8486 68.8976C87.6171 68.8273 87.2246 68.7488 86.6709 68.6623C86.1172 68.5758 85.6821 68.4659 85.3657 68.3325C84.7608 68.0966 84.4357 67.5516 84.3904 66.6976C84.3466 65.8143 84.6521 65.2863 85.3069 65.1136C85.9002 64.9965 86.314 64.9438 86.5484 64.9555C86.7828 64.9673 87.2237 64.96 87.8711 64.9338C88.2022 64.7742 88.6468 64.6937 89.2049 64.6923L89.8729 64.5496C89.8714 64.5789 89.9901 64.5554 90.2289 64.4793L90.4949 63.5675C90.5184 63.0988 90.6737 62.6366 90.9609 62.1811C90.9712 61.976 91.1903 61.4143 91.6182 60.4959C91.624 60.3787 91.9303 59.5423 92.537 57.9868C92.6615 57.8462 93.1179 57.5313 93.906 57.0422C94.3865 56.8313 95.0376 57.0255 95.8593 57.6248C96.3178 57.8533 96.6261 58.1478 96.7842 58.5082C96.5996 58.6752 96.4912 59.0809 96.4588 59.7254C96.4192 59.929 96.1598 61.0027 95.6805 62.9465L95.6188 64.1769C95.8517 64.218 96.2289 64.3103 96.7503 64.454C97.3011 64.5991 97.9536 64.764 98.708 64.9487C100.158 65.3151 101.052 65.9473 101.388 66.8453C101.503 67.4972 101.45 67.9498 101.232 68.2032C101.014 68.4566 100.506 68.622 99.7094 68.6995C99.0634 68.6965 98.213 68.6685 97.1584 68.6156C96.133 68.5642 95.3676 68.5992 94.8622 68.7207C94.7772 69.2451 94.7273 69.6538 94.7126 69.9468L94.6356 70.6038C94.6253 70.8088 94.4391 71.8862 94.077 73.8358C93.888 74.0907 93.6732 75.4456 93.4326 77.9007L93.2717 81.1086C93.2452 81.636 93.2642 82.1362 93.3286 82.6094C93.3255 83.2553 93.376 83.7131 93.48 83.9827C93.4667 84.2463 93.5121 84.8066 93.6159 85.6636C93.2218 86.4955 92.6145 86.891 91.7942 86.8498C91.0032 86.8101 90.3148 86.4819 89.729 85.8651L89.2808 85.1378C89.2047 84.899 89.1395 84.7342 89.0854 84.6433C89.0605 84.554 89.0363 84.45 89.0129 84.3313C88.8372 83.7351 88.6944 83.3608 88.5846 83.2085C88.4206 82.9653 88.3415 82.7851 88.3474 82.6679C88.3533 82.5507 88.3606 82.4042 88.3694 82.2285C88.3358 81.7275 88.2839 81.299 88.2136 80.943C88.0745 80.7892 88.0262 80.2875 88.0688 79.4379C88.2053 77.8881 88.2501 76.9946 88.2033 76.7573C88.2956 76.6738 88.3381 76.1179 88.331 75.0896L88.5113 74.1294C88.5172 74.0122 88.5978 73.5757 88.7532 72.8199C88.7005 72.6997 88.7013 72.3914 88.7556 71.8948C88.8113 71.369 88.8736 71.005 88.9425 70.8028C89.0187 70.4542 89.0701 70.0162 89.0965 69.4889Z" fill="#A0F25E"/>
<path d="M110.189 72.0006C110.328 71.5671 110.341 71.0097 110.229 70.3285C110.033 70.1425 109.759 70.0406 109.407 70.023C108.968 70.0009 108.552 70.3913 108.159 71.1939C107.655 71.8735 107.264 72.6322 106.987 73.4701L106.943 73.4679C106.559 74.6822 106.365 75.3333 106.361 75.4212C106.824 75.5619 107.202 75.6395 107.495 75.6542C107.789 75.6396 108.134 75.4954 108.53 75.2215C109.236 74.6108 109.789 73.5372 110.189 72.0006ZM109.74 78.3221L108.107 78.3723C107.199 78.3268 106.486 78.2029 105.967 78.0007L106.057 78.8422C106.023 81.2783 106.617 82.9087 107.838 83.7336C108.183 83.8977 108.472 83.9857 108.706 83.9974C108.941 84.0092 109.254 83.9074 109.647 83.6921C109.77 83.5808 109.88 83.4248 109.979 83.2242C110.021 82.962 110.173 82.8521 110.436 82.8947C111.713 81.4315 112.651 80.8765 113.251 81.2296C113.845 81.6706 114.137 82.0083 114.125 82.2427C114.119 82.3598 114.039 82.488 113.885 82.6271L113.872 82.8908C113.857 83.1838 113.641 83.7016 113.221 84.4442C112.832 85.1882 112.419 85.8137 111.982 86.3204C111.755 86.7496 111.476 87.044 111.145 87.2036C110.178 87.7425 109.17 87.9269 108.121 87.7568C107.888 87.7158 107.73 87.6491 107.647 87.5568C107.415 87.4865 107.24 87.463 107.121 87.4864L106.772 87.4248C106.508 87.4116 106.292 87.342 106.122 87.216C105.838 87.0255 105.637 86.9273 105.52 86.9215C104.773 86.5903 104.315 86.3471 104.147 86.1918C104.007 86.0379 103.881 85.9288 103.766 85.8643C103.652 85.7998 103.389 85.4783 102.978 84.8996C102.613 84.5582 102.404 84.3421 102.349 84.2513C102.187 83.9788 102.035 83.7803 101.895 83.6558C101.783 83.5327 101.723 83.2654 101.715 82.8538C101.605 82.7014 101.556 82.508 101.568 82.2737L101.409 81.9133C101.42 81.7082 101.34 81.5427 101.17 81.4167C101.003 81.2321 100.926 81.0079 100.939 80.7443L100.957 80.3927C100.843 80.3282 100.822 80.151 100.896 79.861L100.953 78.7184L100.929 78.3207L100.944 78.0131C100.921 77.8944 100.963 77.6469 101.07 77.2704L101.045 76.8727C101.076 76.8449 101.132 76.6127 101.213 76.1762C101.361 75.5669 101.512 75.1926 101.665 75.0535L101.685 74.658C101.719 74.5716 101.739 74.4551 101.747 74.3086C101.754 74.1621 101.792 74.0025 101.859 73.8296C101.956 73.6583 102.223 73.0109 102.661 71.8874L103.441 70.3846C103.669 69.9554 104.015 69.4882 104.481 68.9829C104.518 68.8379 104.648 68.5801 104.872 68.2095L105.47 67.7109C105.659 67.456 105.932 67.2788 106.29 67.1792C106.71 66.9947 107.023 66.9076 107.228 66.9179L108.467 66.8039C108.612 66.8405 108.714 66.8603 108.773 66.8632L109.344 66.8919C109.985 66.9828 110.506 67.1411 110.906 67.3667C111.772 67.6745 112.399 68.0437 112.789 68.4744C113.646 69.5454 114.051 70.5496 114.004 71.4871C113.956 72.4246 113.77 73.2229 113.443 73.882C112.627 75.5152 112.046 76.5434 111.702 76.9667C111.126 77.907 110.472 78.3588 109.74 78.3221Z" fill="#A0F25E"/>
<path d="M117.973 73.933C117.961 73.5799 118.01 72.9069 118.118 71.9137L118.501 70.435L119.474 68.5895L120.222 67.7459C120.233 67.5115 121.011 67.2274 122.555 66.8937L122.599 66.8959C122.923 66.8828 123.419 66.937 124.089 67.0587C124.788 67.1819 125.447 67.5086 126.066 68.039C126.687 68.5401 127.107 68.9576 127.325 69.2916C127.879 70.5529 128.085 71.7087 127.944 72.759C127.929 73.052 127.765 73.3962 127.452 73.7916C127.42 73.8488 127.195 73.9256 126.779 74.0222C126.363 74.1189 126.026 74.1166 125.766 74.0155C125.509 73.8851 125.21 73.6939 124.87 73.4419C124.53 73.1899 124.388 72.8156 124.442 72.319C124.193 72.0128 124.153 71.629 124.323 71.1676C124.4 70.819 124.369 70.5531 124.231 70.37L123.715 70.1238C123.536 70.1736 123.347 70.4285 123.148 70.8884C122.978 71.3498 122.876 71.9174 122.842 72.5912C122.78 73.8217 123.032 74.9504 123.597 75.9773C123.786 76.3098 124.119 76.7083 124.595 77.1728L125.337 78.1792L126.427 79.2912L127.205 80.4756C127.399 80.691 127.655 81.1591 127.971 81.8798C128.318 82.5727 128.478 83.1975 128.45 83.7541C128.424 84.2815 128.229 84.9472 127.865 85.7514L127.441 86.3028C127.438 86.3614 127.267 86.5437 126.929 86.8498C126.006 87.6847 125.027 88.1789 123.991 88.3325L123.683 88.3171C122.74 88.3873 121.818 88.3263 120.917 88.1343L119.572 87.7144C119.426 87.7071 119.268 87.6404 119.098 87.5144C118.927 87.4177 118.769 87.3364 118.626 87.2704C117.974 86.7972 117.581 86.425 117.448 86.154C117.306 86.0588 117.224 85.6435 117.202 84.9081C117.019 84.4584 117.093 83.86 117.424 83.113C117.446 82.6736 117.507 82.3389 117.607 82.1089C118.196 81.4923 118.921 81.3818 119.782 81.7775C120.069 81.9093 120.204 82.1511 120.186 82.5026C120.182 82.5905 120.21 82.9003 120.272 83.4321C120.364 83.936 120.516 84.4136 120.729 84.8648C120.941 85.316 121.252 85.5518 121.662 85.5724C122.073 85.593 122.505 85.4532 122.961 85.1529C123.475 84.2683 123.735 83.782 123.739 83.6941L123.858 83.0833C123.938 82.6468 123.829 82.186 123.531 81.7011C123.46 81.3452 123.273 80.9833 122.968 80.6156L122.358 79.6158L121.729 78.9675C121.614 78.9323 121.259 78.6796 120.666 78.2093C120.641 78.1199 120.49 77.9067 120.213 77.5698C119.937 77.2328 119.678 76.8234 119.438 76.3414C119.199 75.8301 118.884 75.3738 118.493 74.9724C118.474 74.7658 118.301 74.4194 117.973 73.933Z" fill="#A0F25E"/>
<path d="M174.847 75.2421C174.66 74.9655 174.329 73.7266 174.105 72.4792C173.884 71.2359 173.851 70.449 174.04 70.7296C186.737 89.9402 204.682 104.285 225.091 112.629C242.745 119.842 262.233 122.571 281.759 120.059C281.393 119.86 281.035 119.656 280.673 119.443C277.516 117.552 274.732 115.04 272.501 112.027C271.73 110.978 271.958 109.497 273.007 108.726C274.056 107.955 275.537 108.183 276.308 109.232C278.156 111.74 280.479 113.83 283.092 115.4C285.708 116.963 288.639 118.019 291.729 118.465C293.964 118.787 294.595 121.672 292.366 122.959C289.675 124.416 287.318 126.38 285.415 128.711C283.482 131.076 282.01 133.831 281.119 136.816C280.745 138.062 279.427 138.774 278.179 138.396C276.933 138.021 276.22 136.704 276.599 135.456C277.669 131.866 279.437 128.561 281.765 125.717C282.053 125.365 282.351 125.022 282.652 124.683C263.122 127.186 243.638 124.466 225.994 117.251C205.563 108.898 187.578 94.5124 174.843 75.2443L174.847 75.2421Z" fill="#A0F25E"/>
</svg>
